<svg width="100%" height="100%" viewBox="0 0 222 414" fill="none" xmlns="http://www.w3.org/2000/svg">
<path fill-rule="evenodd" clip-rule="evenodd" d="M105.328 225.048L110.716 234.381L116.105 225.048L105.328 225.048ZM109.757 234.935C110.183 235.673 111.249 235.673 111.676 234.935L117.064 225.602C117.49 224.863 116.957 223.94 116.105 223.94L105.328 223.94C104.475 223.94 103.942 224.863 104.369 225.602L109.757 234.935Z" fill="#FD9B28"/>
<path fill-rule="evenodd" clip-rule="evenodd" d="M105.328 208.497L110.716 217.83L116.105 208.497L105.328 208.497ZM109.757 218.383C110.183 219.122 111.249 219.122 111.676 218.383L117.064 209.05C117.49 208.312 116.957 207.389 116.105 207.389L105.328 207.389C104.475 207.389 103.942 208.312 104.369 209.05L109.757 218.383Z" fill="#FD9B28"/>
<path fill-rule="evenodd" clip-rule="evenodd" d="M105.328 191.945L110.716 201.278L116.105 191.945L105.328 191.945ZM109.757 201.832C110.183 202.571 111.249 202.571 111.676 201.832L117.064 192.499C117.49 191.761 116.957 190.838 116.105 190.838L105.328 190.838C104.475 190.838 103.942 191.761 104.369 192.499L109.757 201.832Z" fill="#FD9B28"/>
<path fill-rule="evenodd" clip-rule="evenodd" d="M105.328 175.394L110.716 184.727L116.105 175.394L105.328 175.394ZM109.757 185.281C110.183 186.019 111.249 186.019 111.676 185.281L117.064 175.948C117.49 175.209 116.957 174.286 116.105 174.286L105.328 174.286C104.475 174.286 103.942 175.209 104.369 175.948L109.757 185.281Z" fill="#FD9B28"/>
<path fill-rule="evenodd" clip-rule="evenodd" d="M186.97 349.823L173.393 346.184L163.453 356.124L167.091 369.702L180.669 373.34L190.609 363.4L186.97 349.823ZM191.844 363.731L187.875 348.918L173.061 344.949L162.217 355.793L166.187 370.606L181 374.575L191.844 363.731Z" fill="#FD9B28"/>
<path fill-rule="evenodd" clip-rule="evenodd" d="M205.026 367.788L191.448 364.15L181.508 374.089L185.146 387.667L198.724 391.305L208.664 381.366L205.026 367.788ZM209.899 381.697L205.93 366.883L191.117 362.914L180.273 373.758L184.242 388.572L199.055 392.541L209.899 381.697Z" fill="#FD9B28"/>
<path fill-rule="evenodd" clip-rule="evenodd" d="M180.466 374.476L166.888 370.838L156.949 380.778L160.587 394.355L174.165 397.994L184.104 388.054L180.466 374.476ZM185.34 388.385L181.371 373.572L166.557 369.602L155.713 380.447L159.683 395.26L174.496 399.229L185.34 388.385Z" fill="#FD9B28"/>
<path fill-rule="evenodd" clip-rule="evenodd" d="M98.4783 58.0505L89.2632 55.5813L82.5173 62.3272L84.9865 71.5423L94.2015 74.0115L100.947 67.2656L98.4783 58.0505ZM101.786 67.4903L99.0921 57.4367L89.0385 54.7428L81.6788 62.1026L84.3726 72.1561L94.4262 74.85L101.786 67.4903Z" fill="#FD9B28"/>
<path fill-rule="evenodd" clip-rule="evenodd" d="M110.732 70.2434L101.517 67.7742L94.7711 74.5201L97.2403 83.7352L106.455 86.2044L113.201 79.4585L110.732 70.2434ZM114.04 79.6831L111.346 69.6296L101.292 66.9357L93.9327 74.2954L96.6265 84.349L106.68 87.0428L114.04 79.6831Z" fill="#FD9B28"/>
<path fill-rule="evenodd" clip-rule="evenodd" d="M94.0641 74.7824L84.849 72.3133L78.1031 79.0592L80.5723 88.2742L89.7874 90.7434L96.5333 83.9975L94.0641 74.7824ZM97.3717 84.2222L94.6779 74.1686L84.6243 71.4748L77.2646 78.8345L79.9585 88.8881L90.012 91.5819L97.3717 84.2222Z" fill="#FD9B28"/>
<path fill-rule="evenodd" clip-rule="evenodd" d="M204.748 17.8581L210.137 27.1911L215.525 17.8581L204.748 17.8581ZM209.178 27.745C209.604 28.4834 210.67 28.4834 211.096 27.745L216.485 18.412C216.911 17.6735 216.378 16.7505 215.525 16.7505L204.748 16.7505C203.896 16.7505 203.363 17.6735 203.789 18.412L209.178 27.745Z" fill="#FD9B28"/>
<path fill-rule="evenodd" clip-rule="evenodd" d="M204.748 1.30688L210.137 10.6399L215.525 1.30688L204.748 1.30688ZM209.178 11.1937C209.604 11.9322 210.67 11.9322 211.096 11.1937L216.485 1.86072C216.911 1.12226 216.378 0.199194 215.525 0.199194L204.748 0.199195C203.896 0.199195 203.363 1.12226 203.789 1.86072L209.178 11.1937Z" fill="#FD9B28"/>
<path fill-rule="evenodd" clip-rule="evenodd" d="M204.324 288.139C202.445 288.518 200.614 287.301 200.236 285.421C199.857 283.542 201.074 281.711 202.954 281.333C204.833 280.954 206.664 282.171 207.042 284.051C207.421 285.93 206.204 287.761 204.324 288.139ZM204.548 289.249C202.055 289.751 199.628 288.137 199.126 285.645C198.624 283.152 200.238 280.725 202.73 280.223C205.223 279.721 207.651 281.334 208.152 283.827C208.654 286.32 207.041 288.747 204.548 289.249Z" fill="#FD9B28"/>
<path d="M208.094 142.356L215.935 154.79L209.087 167.798L194.399 168.372L186.557 155.938L193.405 142.93L208.094 142.356Z" fill="#FD9B28" fill-opacity="0.17"/>
<path d="M77.6437 336.512L81.0968 341.987L78.0813 347.715L71.6128 347.968L68.1597 342.492L71.1751 336.764L77.6437 336.512Z" fill="#FD9B28" fill-opacity="0.17"/>
<path d="M12.1221 10.3441L15.5752 15.8196L12.5597 21.5479L6.09118 21.8006L2.63808 16.325L5.65352 10.5967L12.1221 10.3441Z" fill="#FD9B28" fill-opacity="0.17"/>
</svg>
