<svg width="100%" height="100%" viewBox="0 0 1367 658" fill="none" xmlns="http://www.w3.org/2000/svg">
<path d="M1781.63 108.452C1847.18 369.62 1495.72 519.272 1260.88 542.202C1238.44 544.603 1215.66 546.333 1192.82 546.993C1039.74 556.72 940.782 437.96 834.827 350.791C756.241 286.221 656.939 262.525 564.534 226.264C455.052 183.41 414.342 68.7052 483.225 -25.3259C522.243 -78.6093 569.614 -121.2 622.622 -155.065C649.29 -172.021 677.149 -186.895 705.971 -199.564C825.389 -248.353 962.643 -254.691 1091.57 -231.173C1123.8 -225.285 1155 -215.822 1186.29 -208.096C1323.41 -174.239 1559.63 -100.938 1711.15 12.332C1754.46 44.6652 1768.06 67.049 1781.63 108.452Z" fill="url(#paint0_radial_17_1017)"/>
<path d="M556.141 368.168L569.453 375.854L569.453 391.225L556.141 398.911L542.829 391.225L542.829 375.854L556.141 368.168Z" fill="#FD9B28" fill-opacity="0.31"/>
<path d="M1127.37 549.151L1140.68 556.837L1140.68 572.208L1127.37 579.894L1114.06 572.208L1114.06 556.837L1127.37 549.151Z" fill="#FD9B28" fill-opacity="0.31"/>
<path d="M80.9047 62.47L86.5487 65.7285L86.5487 72.2457L80.9047 75.5043L75.2607 72.2457L75.2607 65.7285L80.9047 62.47Z" fill="#FD9B28" fill-opacity="0.31"/>
<path d="M609.803 491.096L615.447 494.355L615.447 500.872L609.803 504.13L604.159 500.872L604.159 494.355L609.803 491.096Z" fill="#FD9B28" fill-opacity="0.31"/>
<path d="M330.19 30.2142L335.834 33.4728L335.834 39.99L330.19 43.2485L324.546 39.99L324.546 33.4728L330.19 30.2142Z" fill="#FD9B28" fill-opacity="0.31"/>
<path d="M979.272 487.787L984.916 491.046L984.916 497.563L979.272 500.821L973.628 497.563L973.628 491.046L979.272 487.787Z" fill="#FD9B28" fill-opacity="0.31"/>
<path fill-rule="evenodd" clip-rule="evenodd" d="M381.941 14.7438L369.768 21.7722L369.768 35.829L381.941 42.8574L394.115 35.829L394.115 21.7722L381.941 14.7438ZM395.223 21.1326L381.941 13.4647L368.66 21.1326L368.66 36.4685L381.941 44.1364L395.223 36.4685L395.223 21.1326Z" fill="#FD9B28"/>
<path fill-rule="evenodd" clip-rule="evenodd" d="M407.412 14.6802L395.238 21.7086L395.238 35.7654L407.412 42.7938L419.585 35.7654L419.585 21.7086L407.412 14.6802ZM420.693 21.069L407.412 13.4011L394.131 21.069L394.131 36.4049L407.412 44.0728L420.693 36.4049L420.693 21.069Z" fill="#FD9B28"/>
<path fill-rule="evenodd" clip-rule="evenodd" d="M394.775 36.7754L382.602 43.8038L382.602 57.8606L394.775 64.889L406.949 57.8606L406.949 43.8038L394.775 36.7754ZM408.056 43.1643L394.775 35.4963L381.494 43.1643L381.494 58.5001L394.775 66.168L408.056 58.5001L408.056 43.1643Z" fill="#FD9B28"/>
<path fill-rule="evenodd" clip-rule="evenodd" d="M505.161 306.9L498.058 311.002L498.058 319.204L505.161 323.306L512.265 319.204L512.265 311.002L505.161 306.9ZM512.911 310.629L505.161 306.154L497.411 310.629L497.411 319.577L505.161 324.052L512.911 319.577L512.911 310.629Z" fill="#FD9B28"/>
<path fill-rule="evenodd" clip-rule="evenodd" d="M520.024 306.863L512.92 310.965L512.92 319.167L520.024 323.269L527.127 319.167L527.127 310.965L520.024 306.863ZM527.774 310.592L520.024 306.117L512.274 310.592L512.274 319.54L520.024 324.015L527.774 319.54L527.774 310.592Z" fill="#FD9B28"/>
<path fill-rule="evenodd" clip-rule="evenodd" d="M512.65 319.757L505.546 323.858L505.546 332.06L512.65 336.162L519.754 332.06L519.754 323.858L512.65 319.757ZM520.4 323.485L512.65 319.01L504.9 323.485L504.9 332.434L512.65 336.908L520.4 332.434L520.4 323.485Z" fill="#FD9B28"/>
<path fill-rule="evenodd" clip-rule="evenodd" d="M1244.14 544.112L1237.04 548.214L1237.04 556.416L1244.14 560.518L1251.25 556.416L1251.25 548.214L1244.14 544.112ZM1251.89 547.841L1244.14 543.366L1236.39 547.841L1236.39 556.789L1244.14 561.264L1251.89 556.789L1251.89 547.841Z" fill="#FD9B28"/>
<path fill-rule="evenodd" clip-rule="evenodd" d="M1259 544.075L1251.9 548.177L1251.9 556.379L1259 560.48L1266.11 556.379L1266.11 548.177L1259 544.075ZM1266.75 547.803L1259 543.329L1251.25 547.803L1251.25 556.752L1259 561.227L1266.75 556.752L1266.75 547.803Z" fill="#FD9B28"/>
<path fill-rule="evenodd" clip-rule="evenodd" d="M1251.63 556.969L1244.53 561.07L1244.53 569.272L1251.63 573.374L1258.73 569.272L1258.73 561.07L1251.63 556.969ZM1259.38 560.697L1251.63 556.222L1243.88 560.697L1243.88 569.646L1251.63 574.12L1259.38 569.646L1259.38 560.697Z" fill="#FD9B28"/>
<path fill-rule="evenodd" clip-rule="evenodd" d="M23.0949 147.785L28.4833 157.118L33.8717 147.785L23.0949 147.785ZM27.524 157.671C27.9504 158.41 29.0162 158.41 29.4426 157.671L34.831 148.338C35.2573 147.6 34.7244 146.677 33.8717 146.677L23.0949 146.677C22.2422 146.677 21.7093 147.6 22.1356 148.338L27.524 157.671Z" fill="#FD9B28"/>
<path fill-rule="evenodd" clip-rule="evenodd" d="M23.0949 131.233L28.4833 140.566L33.8717 131.233L23.0949 131.233ZM27.524 141.12C27.9504 141.859 29.0162 141.859 29.4426 141.12L34.831 131.787C35.2573 131.049 34.7244 130.126 33.8717 130.126L23.0949 130.126C22.2422 130.126 21.7093 131.049 22.1356 131.787L27.524 141.12Z" fill="#FD9B28"/>
<path fill-rule="evenodd" clip-rule="evenodd" d="M23.0949 114.682L28.4833 124.015L33.8717 114.682L23.0949 114.682ZM27.524 124.569C27.9504 125.307 29.0162 125.307 29.4426 124.569L34.831 115.236C35.2573 114.497 34.7244 113.574 33.8717 113.574L23.0949 113.574C22.2422 113.574 21.7093 114.497 22.1356 115.236L27.524 124.569Z" fill="#FD9B28"/>
<path fill-rule="evenodd" clip-rule="evenodd" d="M23.0949 98.1306L28.4833 107.464L33.8717 98.1306L23.0949 98.1306ZM27.524 108.017C27.9504 108.756 29.0162 108.756 29.4426 108.017L34.831 98.6844C35.2573 97.946 34.7244 97.0229 33.8717 97.0229L23.0949 97.0229C22.2422 97.0229 21.7093 97.946 22.1356 98.6844L27.524 108.017Z" fill="#FD9B28"/>
<path fill-rule="evenodd" clip-rule="evenodd" d="M1321.65 591.779L1327.03 601.112L1332.42 591.779L1321.65 591.779ZM1326.07 601.666C1326.5 602.404 1327.57 602.404 1327.99 601.666L1333.38 592.333C1333.81 591.594 1333.27 590.671 1332.42 590.671L1321.65 590.671C1320.79 590.671 1320.26 591.594 1320.69 592.333L1326.07 601.666Z" fill="#FD9B28"/>
<path fill-rule="evenodd" clip-rule="evenodd" d="M1321.65 575.228L1327.03 584.561L1332.42 575.228L1321.65 575.228ZM1326.07 585.115C1326.5 585.853 1327.57 585.853 1327.99 585.115L1333.38 575.782C1333.81 575.043 1333.27 574.12 1332.42 574.12L1321.65 574.12C1320.79 574.12 1320.26 575.043 1320.69 575.782L1326.07 585.115Z" fill="#FD9B28"/>
<path fill-rule="evenodd" clip-rule="evenodd" d="M1321.65 558.676L1327.03 568.009L1332.42 558.676L1321.65 558.676ZM1326.07 568.563C1326.5 569.302 1327.57 569.302 1327.99 568.563L1333.38 559.23C1333.81 558.492 1333.27 557.569 1332.42 557.569L1321.65 557.569C1320.79 557.569 1320.26 558.492 1320.69 559.23L1326.07 568.563Z" fill="#FD9B28"/>
<path fill-rule="evenodd" clip-rule="evenodd" d="M1321.65 542.125L1327.03 551.458L1332.42 542.125L1321.65 542.125ZM1326.07 552.012C1326.5 552.75 1327.57 552.75 1327.99 552.012L1333.38 542.679C1333.81 541.94 1333.27 541.017 1332.42 541.017L1321.65 541.017C1320.79 541.017 1320.26 541.94 1320.69 542.679L1326.07 552.012Z" fill="#FD9B28"/>
<path fill-rule="evenodd" clip-rule="evenodd" d="M337.816 97.6782L343.205 107.011L348.593 97.6782L337.816 97.6782ZM342.245 107.565C342.672 108.303 343.738 108.303 344.164 107.565L349.552 98.232C349.979 97.4935 349.446 96.5705 348.593 96.5705L337.816 96.5705C336.964 96.5705 336.431 97.4935 336.857 98.232L342.245 107.565Z" fill="#FD9B28"/>
<path fill-rule="evenodd" clip-rule="evenodd" d="M337.816 81.1268L343.205 90.4598L348.593 81.1268L337.816 81.1268ZM342.245 91.0137C342.672 91.7521 343.738 91.7521 344.164 91.0137L349.552 81.6807C349.979 80.9422 349.446 80.0191 348.593 80.0191L337.816 80.0191C336.964 80.0191 336.431 80.9422 336.857 81.6807L342.245 91.0137Z" fill="#FD9B28"/>
<path fill-rule="evenodd" clip-rule="evenodd" d="M936.242 515.362L941.63 524.695L947.019 515.362L936.242 515.362ZM940.671 525.249C941.097 525.987 942.163 525.987 942.59 525.249L947.978 515.916C948.404 515.177 947.871 514.254 947.019 514.254L936.242 514.254C935.389 514.254 934.856 515.177 935.283 515.916L940.671 525.249Z" fill="#FD9B28"/>
<path fill-rule="evenodd" clip-rule="evenodd" d="M936.242 498.81L941.63 508.143L947.019 498.81L936.242 498.81ZM940.671 508.697C941.097 509.436 942.163 509.436 942.59 508.697L947.978 499.364C948.404 498.626 947.871 497.703 947.019 497.703L936.242 497.703C935.389 497.703 934.856 498.626 935.283 499.364L940.671 508.697Z" fill="#FD9B28"/>
<path fill-rule="evenodd" clip-rule="evenodd" d="M431.6 121.115C433.476 121.115 434.996 119.595 434.996 117.719C434.996 115.844 433.476 114.323 431.6 114.323C429.725 114.323 428.204 115.844 428.204 117.719C428.204 119.595 429.725 121.115 431.6 121.115ZM431.6 122.223C434.088 122.223 436.104 120.207 436.104 117.719C436.104 115.232 434.088 113.216 431.6 113.216C429.113 113.216 427.097 115.232 427.097 117.719C427.097 120.207 429.113 122.223 431.6 122.223Z" fill="#FD9B28"/>
<path fill-rule="evenodd" clip-rule="evenodd" d="M1007.99 525.418C1009.87 525.418 1011.39 523.898 1011.39 522.022C1011.39 520.147 1009.87 518.626 1007.99 518.626C1006.11 518.626 1004.59 520.147 1004.59 522.022C1004.59 523.898 1006.11 525.418 1007.99 525.418ZM1007.99 526.526C1010.48 526.526 1012.49 524.51 1012.49 522.022C1012.49 519.535 1010.48 517.518 1007.99 517.518C1005.5 517.518 1003.49 519.535 1003.49 522.022C1003.49 524.51 1005.5 526.526 1007.99 526.526Z" fill="#FD9B28"/>
<path fill-rule="evenodd" clip-rule="evenodd" d="M510.83 253.297C512.705 253.297 514.226 251.777 514.226 249.901C514.226 248.025 512.705 246.505 510.83 246.505C508.954 246.505 507.434 248.025 507.434 249.901C507.434 251.777 508.954 253.297 510.83 253.297ZM510.83 254.405C513.317 254.405 515.333 252.388 515.333 249.901C515.333 247.414 513.317 245.397 510.83 245.397C508.342 245.397 506.326 247.414 506.326 249.901C506.326 252.388 508.342 254.405 510.83 254.405Z" fill="#FD9B28"/>
<path fill-rule="evenodd" clip-rule="evenodd" d="M5.30637 47.1065C7.18198 47.1065 8.70245 45.586 8.70245 43.7104C8.70245 41.8348 7.18198 40.3143 5.30637 40.3143C3.43077 40.3143 1.91029 41.8348 1.91029 43.7104C1.91029 45.586 3.43077 47.1065 5.30637 47.1065ZM5.30637 48.2142C7.79373 48.2142 9.81013 46.1978 9.81013 43.7104C9.81013 41.2231 7.79373 39.2067 5.30637 39.2067C2.81901 39.2067 0.802612 41.2231 0.802612 43.7104C0.802612 46.1978 2.81901 48.2142 5.30637 48.2142Z" fill="#FD9B28"/>
<path d="M1288.05 38.9871L1301.36 46.6728L1301.36 62.0442L1288.05 69.7299L1274.74 62.0442L1274.74 46.6728L1288.05 38.9871Z" fill="white" fill-opacity="0.3"/>
<path d="M809.362 78.2803L815.006 81.5389L815.006 88.0561L809.362 91.3146L803.718 88.0561L803.718 81.5389L809.362 78.2803Z" fill="white" fill-opacity="0.3"/>
<path d="M597.308 144.09L601.906 146.745L601.906 152.053L597.308 154.708L592.711 152.053L592.711 146.745L597.308 144.09Z" fill="white" fill-opacity="0.3"/>
<path d="M1267.83 445.263L1273.47 448.522L1273.47 455.039L1267.83 458.298L1262.18 455.039L1262.18 448.522L1267.83 445.263Z" fill="white" fill-opacity="0.3"/>
<path d="M1188.77 87.5516L1194.41 90.8102L1194.41 97.3273L1188.77 100.586L1183.12 97.3273L1183.12 90.8102L1188.77 87.5516Z" fill="white" fill-opacity="0.3"/>
<path fill-rule="evenodd" clip-rule="evenodd" d="M1228 294.841L1215.83 301.869L1215.83 315.926L1228 322.954L1240.18 315.926L1240.18 301.869L1228 294.841ZM1241.28 301.229L1228 293.562L1214.72 301.229L1214.72 316.565L1228 324.233L1241.28 316.565L1241.28 301.229Z" fill="white" fill-opacity="0.3"/>
<path fill-rule="evenodd" clip-rule="evenodd" d="M1253.47 294.777L1241.3 301.805L1241.3 315.862L1253.47 322.891L1265.65 315.862L1265.65 301.805L1253.47 294.777ZM1266.75 301.166L1253.47 293.498L1240.19 301.166L1240.19 316.502L1253.47 324.17L1266.75 316.502L1266.75 301.166Z" fill="white" fill-opacity="0.3"/>
<path fill-rule="evenodd" clip-rule="evenodd" d="M1240.84 316.872L1228.66 323.901L1228.66 337.957L1240.84 344.986L1253.01 337.957L1253.01 323.901L1240.84 316.872ZM1254.12 323.261L1240.84 315.593L1227.56 323.261L1227.56 338.597L1240.84 346.265L1254.12 338.597L1254.12 323.261Z" fill="white" fill-opacity="0.3"/>
<path fill-rule="evenodd" clip-rule="evenodd" d="M590.185 69.0659L582.053 73.7609L582.053 83.1509L590.185 87.8459L598.317 83.1509L598.317 73.7609L590.185 69.0659ZM599.057 73.3337L590.185 68.2115L581.313 73.3337L581.313 83.5781L590.185 88.7003L599.057 83.5781L599.057 73.3337Z" fill="white" fill-opacity="0.3"/>
<path fill-rule="evenodd" clip-rule="evenodd" d="M607.2 69.0234L599.068 73.7184L599.068 83.1084L607.2 87.8034L615.332 83.1084L615.332 73.7184L607.2 69.0234ZM616.072 73.2912L607.2 68.169L598.328 73.2912L598.328 83.5356L607.2 88.6578L616.072 83.5356L616.072 73.2912Z" fill="white" fill-opacity="0.3"/>
<path fill-rule="evenodd" clip-rule="evenodd" d="M598.758 83.7831L590.626 88.4781L590.626 97.8681L598.758 102.563L606.89 97.8681L606.89 88.4781L598.758 83.7831ZM607.63 88.0509L598.758 82.9287L589.886 88.0509L589.886 98.2953L598.758 103.418L607.63 98.2953L607.63 88.0509Z" fill="white" fill-opacity="0.3"/>
<path fill-rule="evenodd" clip-rule="evenodd" d="M528.883 170.129L534.272 179.462L539.66 170.129L528.883 170.129ZM533.312 180.015C533.739 180.754 534.804 180.754 535.231 180.015L540.619 170.682C541.046 169.944 540.513 169.021 539.66 169.021L528.883 169.021C528.03 169.021 527.498 169.944 527.924 170.682L533.312 180.015Z" fill="white" fill-opacity="0.3"/>
<path fill-rule="evenodd" clip-rule="evenodd" d="M528.883 153.577L534.272 162.91L539.66 153.577L528.883 153.577ZM533.312 163.464C533.739 164.203 534.804 164.203 535.231 163.464L540.619 154.131C541.046 153.393 540.513 152.47 539.66 152.47L528.883 152.47C528.03 152.47 527.498 153.393 527.924 154.131L533.312 163.464Z" fill="white" fill-opacity="0.3"/>
<path fill-rule="evenodd" clip-rule="evenodd" d="M528.883 137.026L534.272 146.359L539.66 137.026L528.883 137.026ZM533.312 146.913C533.739 147.651 534.804 147.651 535.231 146.913L540.619 137.58C541.046 136.841 540.513 135.918 539.66 135.918L528.883 135.918C528.03 135.918 527.498 136.841 527.924 137.58L533.312 146.913Z" fill="white" fill-opacity="0.3"/>
<path fill-rule="evenodd" clip-rule="evenodd" d="M528.883 120.475L534.272 129.808L539.66 120.475L528.883 120.475ZM533.312 130.362C533.739 131.1 534.804 131.1 535.231 130.362L540.619 121.029C541.046 120.29 540.513 119.367 539.66 119.367L528.883 119.367C528.03 119.367 527.498 120.29 527.924 121.029L533.312 130.362Z" fill="white" fill-opacity="0.3"/>
<path fill-rule="evenodd" clip-rule="evenodd" d="M1282.66 168.372L1288.05 177.705L1293.44 168.372L1282.66 168.372ZM1287.09 178.259C1287.52 178.997 1288.59 178.997 1289.01 178.259L1294.4 168.926C1294.83 168.187 1294.29 167.264 1293.44 167.264L1282.66 167.264C1281.81 167.264 1281.28 168.187 1281.7 168.926L1287.09 178.259Z" fill="white" fill-opacity="0.3"/>
<path fill-rule="evenodd" clip-rule="evenodd" d="M1282.66 151.82L1288.05 161.153L1293.44 151.82L1282.66 151.82ZM1287.09 161.707C1287.52 162.446 1288.59 162.446 1289.01 161.707L1294.4 152.374C1294.83 151.636 1294.29 150.713 1293.44 150.713L1282.66 150.713C1281.81 150.713 1281.28 151.636 1281.7 152.374L1287.09 161.707Z" fill="white" fill-opacity="0.3"/>
<path fill-rule="evenodd" clip-rule="evenodd" d="M1282.66 135.269L1288.05 144.602L1293.44 135.269L1282.66 135.269ZM1287.09 145.156C1287.52 145.894 1288.59 145.894 1289.01 145.156L1294.4 135.823C1294.83 135.084 1294.29 134.161 1293.44 134.161L1282.66 134.161C1281.81 134.161 1281.28 135.084 1281.7 135.823L1287.09 145.156Z" fill="white" fill-opacity="0.3"/>
<path fill-rule="evenodd" clip-rule="evenodd" d="M1282.66 118.718L1288.05 128.051L1293.44 118.718L1282.66 118.718ZM1287.09 128.605C1287.52 129.343 1288.59 129.343 1289.01 128.605L1294.4 119.272C1294.83 118.533 1294.29 117.61 1293.44 117.61L1282.66 117.61C1281.81 117.61 1281.28 118.533 1281.7 119.272L1287.09 128.605Z" fill="white" fill-opacity="0.3"/>
<path fill-rule="evenodd" clip-rule="evenodd" d="M1326.15 400.82L1331.54 410.153L1336.93 400.82L1326.15 400.82ZM1330.58 410.707C1331 411.445 1332.07 411.445 1332.5 410.707L1337.89 401.374C1338.31 400.636 1337.78 399.712 1336.93 399.712L1326.15 399.713C1325.3 399.713 1324.76 400.636 1325.19 401.374L1330.58 410.707Z" fill="white" fill-opacity="0.3"/>
<path fill-rule="evenodd" clip-rule="evenodd" d="M1326.15 384.269L1331.54 393.602L1336.93 384.269L1326.15 384.269ZM1330.58 394.156C1331 394.894 1332.07 394.894 1332.5 394.156L1337.89 384.823C1338.31 384.084 1337.78 383.161 1336.93 383.161L1326.15 383.161C1325.3 383.161 1324.76 384.084 1325.19 384.823L1330.58 394.156Z" fill="white" fill-opacity="0.3"/>
<path fill-rule="evenodd" clip-rule="evenodd" d="M906.615 87.389L912.003 96.722L917.392 87.389L906.615 87.389ZM911.044 97.2759C911.471 98.0143 912.536 98.0143 912.963 97.2759L918.351 87.9429C918.778 87.2044 918.245 86.2813 917.392 86.2813L906.615 86.2813C905.762 86.2813 905.229 87.2044 905.656 87.9429L911.044 97.2759Z" fill="white" fill-opacity="0.3"/>
<path fill-rule="evenodd" clip-rule="evenodd" d="M906.615 70.8377L912.003 80.1707L917.392 70.8377L906.615 70.8377ZM911.044 80.7245C911.471 81.463 912.536 81.463 912.963 80.7245L918.351 71.3915C918.778 70.6531 918.245 69.73 917.392 69.73L906.615 69.73C905.762 69.73 905.229 70.6531 905.656 71.3915L911.044 80.7245Z" fill="white" fill-opacity="0.3"/>
<path fill-rule="evenodd" clip-rule="evenodd" d="M1320.54 272.032C1322.41 272.032 1323.93 270.511 1323.93 268.636C1323.93 266.76 1322.41 265.24 1320.54 265.24C1318.66 265.24 1317.14 266.76 1317.14 268.636C1317.14 270.511 1318.66 272.032 1320.54 272.032ZM1320.54 273.139C1323.02 273.139 1325.04 271.123 1325.04 268.636C1325.04 266.148 1323.02 264.132 1320.54 264.132C1318.05 264.132 1316.03 266.148 1316.03 268.636C1316.03 271.123 1318.05 273.139 1320.54 273.139Z" fill="white" fill-opacity="0.3"/>
<path fill-rule="evenodd" clip-rule="evenodd" d="M489.898 94.9635C491.773 94.9635 493.294 93.443 493.294 91.5674C493.294 89.6918 491.773 88.1713 489.898 88.1713C488.022 88.1713 486.502 89.6918 486.502 91.5674C486.502 93.443 488.022 94.9635 489.898 94.9635ZM489.898 96.0712C492.385 96.0712 494.402 94.0548 494.402 91.5674C494.402 89.0801 492.385 87.0637 489.898 87.0637C487.411 87.0637 485.394 89.0801 485.394 91.5674C485.394 94.0548 487.411 96.0712 489.898 96.0712Z" fill="white" fill-opacity="0.3"/>
<path fill-rule="evenodd" clip-rule="evenodd" d="M1040.78 80.1706C1042.65 80.1706 1044.17 78.6501 1044.17 76.7745C1044.17 74.8989 1042.65 73.3784 1040.78 73.3784C1038.9 73.3784 1037.38 74.8989 1037.38 76.7745C1037.38 78.6501 1038.9 80.1706 1040.78 80.1706ZM1040.78 81.2783C1043.26 81.2783 1045.28 79.2619 1045.28 76.7745C1045.28 74.2872 1043.26 72.2708 1040.78 72.2708C1038.29 72.2708 1036.27 74.2872 1036.27 76.7745C1036.27 79.2619 1038.29 81.2783 1040.78 81.2783Z" fill="white" fill-opacity="0.3"/>
<path fill-rule="evenodd" clip-rule="evenodd" d="M707.398 76.1113C709.274 76.1113 710.794 74.5909 710.794 72.7152C710.794 70.8396 709.274 69.3192 707.398 69.3192C705.523 69.3192 704.002 70.8396 704.002 72.7152C704.002 74.5909 705.523 76.1113 707.398 76.1113ZM707.398 77.219C709.886 77.219 711.902 75.2026 711.902 72.7152C711.902 70.2279 709.886 68.2115 707.398 68.2115C704.911 68.2115 702.895 70.2279 702.895 72.7152C702.895 75.2026 704.911 77.219 707.398 77.219Z" fill="white" fill-opacity="0.3"/>
<defs>
<radialGradient id="paint0_radial_17_1017" cx="0" cy="0" r="1" gradientUnits="userSpaceOnUse" gradientTransform="translate(826.81 293.04) rotate(11.1171) scale(1149.34 1186.12)">
<stop stop-color="#FDC800"/>
<stop offset="0.14" stop-color="#FDBB0B"/>
<stop offset="0.4" stop-color="#FDA91B"/>
<stop offset="0.68" stop-color="#FD9E25"/>
<stop offset="1" stop-color="#FD9B28"/>
</radialGradient>
</defs>
</svg>
