<svg width="41" height="41" viewBox="0 0 41 41" fill="none" xmlns="http://www.w3.org/2000/svg">
<path d="M3.14786 0.928217C2.52995 1.10918 1.96597 1.43921 1.50553 1.88929C1.26833 2.17089 1.06802 2.48158 0.909422 2.81386L0.605286 3.37347V20.3199C0.605286 32.2907 0.605286 37.3516 0.678278 37.7044C0.857986 38.4698 1.25211 39.1681 1.81446 39.7175C2.37681 40.2669 3.0841 40.6447 3.85346 40.8066C4.1576 40.8066 10.0092 40.8796 21.2136 40.8674H38.1114L38.744 40.5632C39.4567 40.233 40.0236 39.6531 40.3376 38.9331L40.6053 38.3735V8.7141L40.3376 8.15449C40.0236 7.4345 39.4567 6.85455 38.744 6.52432L38.1114 6.22019H33.7075H29.3036V4.82116C29.3036 3.45863 29.3036 3.42213 29.0116 2.86252C28.6957 2.11564 28.109 1.51589 27.3693 1.18369L26.761 0.855225H15.1187C8.26952 0.855225 3.34251 0.855225 3.14786 0.928217ZM26.5785 2.26642C27.1593 2.51282 27.6217 2.97518 27.8681 3.55595C27.9464 4.04251 27.979 4.53534 27.9654 5.02797V6.17153H18.8535H9.77804L9.21842 6.43917C8.50573 6.76939 7.93876 7.34934 7.62475 8.06934L7.32061 8.70194V13.7749V18.8479H8.65881V13.9817C8.60124 12.2618 8.63373 10.5401 8.75614 8.82359C9.00294 8.28132 9.44014 7.84845 9.98485 7.60705C10.4836 7.46106 37.4301 7.46106 37.9654 7.60705C38.5462 7.85345 39.0085 8.31581 39.2549 8.89659C39.4009 9.39537 39.4009 37.6679 39.2549 38.1667C39.0085 38.7474 38.5462 39.2098 37.9654 39.4562C37.6977 39.5292 34.1576 39.5535 22.6369 39.5535H7.61259L7.90456 39.1399C8.0854 38.8566 8.24403 38.5596 8.37901 38.2518L8.57366 37.7652V32.9842V28.2153H7.28412V32.9112V37.607L7.05297 38.0328C6.80915 38.573 6.37657 39.0056 5.83643 39.2494C5.47407 39.4772 5.04535 39.5758 4.61988 39.5292C4.19442 39.5758 3.7657 39.4772 3.40334 39.2494C2.86937 38.9967 2.43946 38.5668 2.18679 38.0328L1.99215 37.6557V20.8431C1.99215 7.7287 1.99215 3.94525 2.07731 3.65328C2.30913 3.08169 2.74175 2.61445 3.29385 2.33941C3.70748 2.1326 26.1527 2.1326 26.5785 2.26642Z" fill="#FD9B28"/>
<path d="M27.1381 14.3103C24.7795 14.7125 22.6594 15.9897 21.2014 17.8869C20.2518 19.1456 19.6356 20.6238 19.4102 22.1842C19.1848 23.7447 19.3575 25.3369 19.9122 26.8128C20.4668 28.2887 21.3855 29.6004 22.5829 30.6262C23.7803 31.652 25.2175 32.3585 26.761 32.6801C28.357 32.9886 30.0049 32.8924 31.5542 32.4003C32.8022 31.9853 33.9486 31.3118 34.9187 30.4238C35.8889 29.5358 36.6608 28.4532 37.1843 27.2467C37.7078 26.0402 37.971 24.7369 37.9567 23.4217C37.9425 22.1066 37.6511 20.8093 37.1016 19.6144C36.2281 17.672 34.6933 16.1027 32.7707 15.1862C31.0352 14.2994 29.061 13.9924 27.1381 14.3103ZM29.997 15.6485C31.5271 15.9202 32.9466 16.6269 34.0857 17.684C35.2248 18.7411 36.0353 20.104 36.4204 21.6096C36.5741 22.2256 36.6356 22.8611 36.6029 23.4952C36.657 24.193 36.5785 24.8947 36.3717 25.5633C36.2479 26.0461 36.0852 26.5181 35.8851 26.9745C35.6634 27.4814 35.3683 27.9528 35.0092 28.3736C34.7272 27.7675 34.4794 27.1461 34.2671 26.5122C33.8778 25.4903 33.4885 24.5049 33.379 24.2981C33.2048 24.0185 32.9701 23.7816 32.6922 23.6047C32.4143 23.4278 32.1002 23.3156 31.7732 23.2762C31.2987 23.1546 31.0311 23.0451 31.0554 22.9964C31.3341 22.2811 31.4303 21.5076 31.3352 20.7458C31.3352 19.5293 31.3352 19.5293 31.0189 18.9575C30.7671 18.4229 30.3369 17.9928 29.8024 17.741C29.0895 17.4686 28.3012 17.4686 27.5883 17.741C26.989 18.0264 26.5043 18.5068 26.2136 19.1035C26.0311 19.4806 26.0067 19.6509 25.9824 20.7945C25.8853 21.5563 25.9815 22.3303 26.2622 23.0451C26.2622 23.0451 26.0189 23.2154 25.5445 23.3249C25.2174 23.3643 24.9033 23.4765 24.6254 23.6534C24.3475 23.8302 24.1128 24.0672 23.9386 24.3468C23.8291 24.5414 23.4277 25.5633 23.0505 26.5609C22.8382 27.1947 22.5904 27.8161 22.3084 28.4222C21.955 28.0086 21.664 27.5455 21.4447 27.0475C20.852 25.8437 20.5836 24.506 20.6661 23.1667C20.7191 22.0354 21.0116 20.9282 21.5242 19.9182C22.0368 18.9083 22.7579 18.0186 23.6398 17.308C24.5218 16.5974 25.5445 16.0821 26.6403 15.796C27.7362 15.5099 28.8803 15.4596 29.997 15.6485ZM29.3644 19.1035C29.8754 19.4806 29.924 19.6266 29.9484 20.8553V21.9867L29.4617 22.9721C29.2839 23.2982 29.1373 23.6403 29.0238 23.994C29.0238 23.994 29.705 24.1886 30.4958 24.3833C31.0404 24.4723 31.5691 24.6403 32.0651 24.8821C32.199 25.0281 33.8535 29.3346 33.8535 29.5171C33.392 29.9894 32.8477 30.3729 32.2476 30.6485C30.9285 31.3327 29.4442 31.6338 27.9628 31.5176C26.4813 31.4015 25.062 30.8729 23.8656 29.9916C23.6633 29.8673 23.4859 29.7064 23.3425 29.5171C23.3425 29.3225 25.0092 25.0159 25.1308 24.8821C25.6353 24.6375 26.1719 24.4655 26.7245 24.3711C27.2331 24.2769 27.7334 24.1427 28.2209 23.9697C28.2209 23.9697 28.014 23.4952 27.7586 22.9721L27.2963 22.0354V21.0135C27.2886 20.6057 27.3212 20.1982 27.3936 19.7969C27.5276 19.4699 27.7794 19.2051 28.0992 19.0548C28.3016 18.9731 28.5189 18.9352 28.737 18.9436C28.9551 18.952 29.1689 19.0065 29.3644 19.1035Z" fill="#FD9B28"/>
<path d="M11.2744 18.3857V20.1984H3.26952V26.8772H11.2744V30.5268L14.7537 27.0354L18.2452 23.556L14.7537 20.0767L11.2744 16.5609V18.3857ZM14.4617 25.393L12.6126 27.2422V25.539H4.59555V21.5366H12.6126V19.8213L14.4617 21.6826L16.323 23.5317L14.4617 25.393Z" fill="#FD9B28"/>
</svg>
