<svg width="41" height="41" viewBox="0 0 41 41" fill="none" xmlns="http://www.w3.org/2000/svg">
<path d="M19.9992 1.89294V3.55355H21.3326V0.220215H19.9992V1.89294Z" fill="#FD9B28"/>
<path d="M9.91438 2.87473C9.7619 3.01176 9.63111 3.17115 9.5265 3.34746C9.93056 3.82999 10.3637 4.2874 10.8235 4.71716L12.1083 6.01413L12.5811 5.52928L13.0659 5.05655L11.7811 3.75958C11.347 3.30357 10.8856 2.87449 10.3992 2.47473C10.2172 2.58117 10.0535 2.71623 9.91438 2.87473Z" fill="#FD9B28"/>
<path d="M29.4659 3.74741C29.0396 4.17531 28.635 4.62437 28.2538 5.09286C28.4883 5.4352 28.7842 5.73111 29.1265 5.96559C29.609 5.56154 30.0664 5.12841 30.4962 4.66862L31.7932 3.37165L31.3326 2.91105C31.1799 2.74409 31.0136 2.59003 30.8356 2.45044C30.8356 2.45044 30.1689 3.04438 29.4659 3.74741Z" fill="#FD9B28"/>
<path d="M18.7871 5.06863C16.4139 5.3837 14.1537 6.27397 12.2031 7.66196C10.2525 9.04995 8.67072 10.8936 7.59531 13.0325C6.5199 15.1713 5.98349 17.5406 6.03276 19.9341C6.08203 22.3276 6.71549 24.6728 7.87801 26.7656C9.21239 29.102 11.1509 31.0363 13.4901 32.3656C14.6174 32.9838 14.8598 33.1777 15.078 33.5777C15.2962 33.9777 15.2841 34.0626 15.3204 36.3535C15.3204 38.4504 15.3204 38.7777 15.5265 39.0444C15.801 39.5189 16.2283 39.8864 16.7386 40.0868C18.1449 40.2133 19.5574 40.2579 20.9689 40.2201C25.5144 40.2201 25.4538 40.2201 26.0598 39.5535C26.2595 39.3389 26.4159 39.0879 26.5204 38.8141C26.6196 37.9776 26.652 37.1345 26.6174 36.2929C26.5824 35.4472 26.6148 34.6001 26.7144 33.7595C26.8598 33.2868 27.4538 32.7292 28.581 32.002L29.5023 31.408L29.8538 31.7111C30.2444 32.0984 30.7728 32.3148 31.3229 32.3125C31.8731 32.3102 32.3997 32.0895 32.7871 31.6989C33.1745 31.3083 33.3908 30.7799 33.3886 30.2298C33.3863 29.6796 33.1656 29.153 32.775 28.7656L32.4477 28.3898L32.8598 27.7595C35.0194 24.417 35.7689 20.3558 34.9447 16.4626C34.323 13.6067 32.8676 10.9996 30.7629 8.97166C29.1868 7.46515 27.2923 6.3322 25.2194 5.65661C23.1464 4.98103 20.9482 4.78008 18.7871 5.06863ZM23.1629 6.51105C25.7868 7.02418 28.1979 8.30882 30.0874 10.2005C31.9769 12.0921 33.2588 14.5047 33.7689 17.1292C33.998 18.7373 33.998 20.3697 33.7689 21.9777C33.4699 23.6211 32.8788 25.1975 32.0235 26.6323L31.5023 27.4929L29.8053 25.7959C28.872 24.8626 28.1083 24.0747 28.1083 24.0504C28.1888 23.8703 28.282 23.6962 28.3871 23.5292L28.6538 23.0565H29.9992H31.3447V22.8504C31.5144 22.0868 31.9629 19.7474 31.9265 19.7111C31.5334 19.5199 31.1285 19.3539 30.7144 19.2141C29.381 18.7171 29.5023 18.8262 29.3689 17.9171V17.505L30.4235 16.8383L31.5507 16.1232C31.1525 15.0503 30.6911 14.002 30.1689 12.9838C29.7311 13.0646 29.2981 13.1698 28.872 13.2989L27.6598 13.6626L27.2113 13.202L26.7507 12.7535L27.2113 11.5414C27.4659 10.8868 27.6719 10.3292 27.6719 10.3292C26.6981 9.73003 25.6903 9.1877 24.6538 8.70499C24.3448 9.02082 24.0573 9.35692 23.7932 9.71105C23.5355 10.0739 23.2432 10.4108 22.9204 10.7171C22.5775 10.667 22.2377 10.5982 21.9023 10.5111C21.7568 10.5111 21.6719 10.2808 21.4053 9.29893C21.2356 8.66863 21.0538 8.08681 21.0174 8.08681C20.981 8.08681 20.5447 8.08681 19.3083 8.17166C18.7295 8.21117 18.1543 8.29219 17.5871 8.41408C17.5205 8.84712 17.4921 9.28517 17.5023 9.72317V10.9353L16.9568 11.202C16.7683 11.3023 16.574 11.3914 16.375 11.4686C16.0256 11.2374 15.6897 10.9865 15.3689 10.7171L14.3144 9.91711C13.4369 10.5133 12.6243 11.1998 11.8901 11.9656L11.6841 12.1717L12.4356 13.2747L13.1992 14.3777L12.8962 14.9111L12.5932 15.4323H11.2477C10.0356 15.4323 9.90225 15.4323 9.86589 15.5292C9.76892 15.8929 9.21134 18.7414 9.23559 18.7656L10.4477 19.2383C11.8174 19.7232 11.6598 19.5898 11.8053 20.5595V20.9111L10.7023 21.6262L9.56286 22.3656C9.56286 22.3656 10.9326 25.3959 10.9932 25.4686C11.4313 25.3891 11.8644 25.2839 12.2901 25.1535L13.5023 24.7898L13.9507 25.2504L14.3992 25.6989L13.9507 26.9111C13.6962 27.5535 13.4901 28.1232 13.4901 28.1232C14.4425 28.7521 15.4345 29.3189 16.4598 29.8201C16.7688 29.5043 17.0563 29.1682 17.3204 28.8141C17.5725 28.4469 17.8653 28.1095 18.1932 27.808C18.5359 27.859 18.8757 27.9278 19.2113 28.0141C19.3568 28.0141 19.4416 28.2444 19.7083 29.2262C19.878 29.8565 20.0477 30.4383 20.0841 30.4383C20.1204 30.4383 20.4962 30.5111 21.8053 30.3656C22.7144 30.2686 23.478 30.1595 23.5023 30.1353C23.5758 29.6861 23.6203 29.2326 23.6356 28.7777V27.505L24.2901 27.2141L24.9447 26.9111L26.7144 28.6929L28.5568 30.5232L27.478 31.2262C27.0569 31.4926 26.6521 31.784 26.2659 32.0989L26.1083 32.2808H15.6841L15.3932 32.0262C15.1329 31.8209 14.8527 31.6422 14.5568 31.4929C12.7428 30.5542 11.1661 29.2152 9.94602 27.5772C8.72593 25.9392 7.8944 24.0451 7.51437 22.0383C7.24781 20.3966 7.24781 18.7225 7.51437 17.0807C7.87197 15.2378 8.61096 13.4899 9.6839 11.9494C10.7568 10.4089 12.14 9.10972 13.7447 8.1353C15.3761 7.16649 17.1857 6.5358 19.0659 6.28075C20.4179 6.18835 21.7761 6.24934 23.1144 6.46257L23.1629 6.51105ZM20.3507 10.5111C20.5083 11.105 20.6538 11.602 20.6538 11.6141C20.6538 11.6262 21.2235 11.7474 21.8659 11.8929L23.2962 12.1838C23.4416 12.1838 23.5992 12.0747 24.1932 11.3111L24.9204 10.3898L25.4174 10.6565C25.6037 10.7413 25.7723 10.8606 25.9144 11.008C25.9144 11.008 25.7447 11.5535 25.5265 12.1111L25.1386 13.1292L25.975 14.0262C27.2598 15.408 27.0053 15.2383 28.1568 14.9717L29.2719 14.6686C29.3932 14.6686 29.478 14.7414 29.6356 15.105C29.7266 15.2838 29.788 15.4762 29.8174 15.6747C29.5199 15.9209 29.2038 16.1438 28.872 16.3414L27.9386 16.9353C27.9386 16.9353 28.2416 19.8444 28.278 19.8565L29.3689 20.2565L30.4719 20.6686C30.454 20.8607 30.4216 21.0511 30.375 21.2383L30.2538 21.7838H29.0416C28.6386 21.7442 28.2326 21.7442 27.8295 21.7838C27.8295 21.7838 27.6356 22.1353 27.4295 22.4989L27.0416 23.1535L26.472 22.5959L25.9023 22.0383L26.0962 21.5656C26.4056 20.8006 26.5555 19.9804 26.5367 19.1554C26.518 18.3304 26.3309 17.5179 25.9871 16.7678C25.6432 16.0176 25.1497 15.3456 24.537 14.7929C23.9242 14.2402 23.205 13.8184 22.4235 13.5535C21.8486 13.3505 21.2371 13.272 20.6295 13.3232C20.0311 13.2802 19.43 13.3544 18.8598 13.5414C17.9372 13.8346 17.1034 14.3557 16.4356 15.0565C15.7376 15.7266 15.2169 16.5597 14.9204 17.4807C14.7246 18.0489 14.6503 18.6518 14.7023 19.2504C14.6511 19.858 14.7296 20.4695 14.9326 21.0444C15.2065 21.8647 15.6529 22.6169 16.2416 23.2504C16.9975 24.0637 17.9645 24.6509 19.0347 24.9462C20.105 25.2416 21.2363 25.2336 22.3023 24.9232L22.9204 24.7535L23.4538 25.2747C23.6467 25.4461 23.8213 25.637 23.975 25.8444C23.737 25.9932 23.4853 26.119 23.2235 26.2201C22.4841 26.5232 22.472 26.5474 22.4598 26.8383C22.4477 27.1292 22.4598 27.5171 22.3871 28.0504V28.9232L21.8538 28.9959C21.6576 29.0336 21.456 29.0336 21.2598 28.9959C21.1227 28.636 21.0093 28.2676 20.9204 27.8929C20.7629 27.3232 20.6416 26.8383 20.6295 26.8383C20.6174 26.8383 20.0598 26.705 19.4174 26.5595L17.9871 26.2686C17.8416 26.2686 17.6841 26.3898 17.078 27.1414L16.3507 28.0626L15.8538 27.7959C15.5871 27.6504 15.3689 27.4929 15.3689 27.4323C15.3689 27.3717 15.5386 26.8868 15.7568 26.3292L16.1447 25.3111L15.2235 24.4626C13.9386 23.0929 14.1932 23.2504 13.0416 23.5171L11.9144 23.8201C11.7932 23.8201 11.7204 23.8201 11.5507 23.3838C11.4599 23.2058 11.4024 23.0127 11.381 22.8141C11.6763 22.5649 11.9926 22.3418 12.3265 22.1474L13.2598 21.5535C13.2598 21.5535 12.9447 18.6444 12.9204 18.6323L11.8295 18.2444L10.7265 17.8323C10.7539 17.5166 10.8107 17.2041 10.8962 16.8989C10.8962 16.7414 10.9689 16.7292 12.1083 16.7898C12.5121 16.8117 12.9167 16.8117 13.3204 16.7898C13.5023 16.5111 14.6901 14.3656 14.6901 14.2929C14.502 13.9442 14.2915 13.6082 14.0598 13.2868L13.4416 12.3414L13.8538 11.9292L14.2659 11.5171L15.1507 12.3414L16.0841 13.0808L17.4053 12.4868L18.7871 11.8444V10.802C18.7871 10.2323 18.7871 9.69893 18.8598 9.58984C18.9326 9.48075 19.0174 9.44439 19.2962 9.42014C20.0841 9.37166 19.9992 9.31105 20.3507 10.5111ZM22.1326 14.8262C22.7114 15.021 23.245 15.3308 23.7011 15.737C24.1573 16.1432 24.5267 16.6374 24.7871 17.1898C25.2646 18.1759 25.379 19.2987 25.1102 20.3608C24.8413 21.4229 24.2065 22.3561 23.3173 22.9962C22.4282 23.6362 21.3417 23.9422 20.2492 23.8601C19.1567 23.778 18.1282 23.3132 17.3447 22.5474C16.8975 22.123 16.5453 21.6087 16.3113 21.0384C16.0773 20.468 15.9668 19.8545 15.9871 19.2383C15.9666 18.6348 16.0712 18.0335 16.2944 17.4723C16.5176 16.9112 16.8546 16.4023 17.2841 15.9777C17.944 15.3028 18.7865 14.8352 19.7083 14.6323C20.517 14.5234 21.3396 14.5896 22.1204 14.8262H22.1326ZM28.6538 26.5474C31.7447 29.6504 32.0477 29.9656 32.0477 30.1838C32.0336 30.3817 31.9486 30.5678 31.8084 30.7081C31.6681 30.8484 31.4819 30.9333 31.2841 30.9474C31.0295 30.9474 30.7144 30.6444 27.575 27.5171L24.1447 24.0868L24.6659 23.602C24.8374 23.4254 25.0196 23.2594 25.2113 23.105C25.2113 23.105 26.775 24.6807 28.6416 26.5474H28.6538ZM25.3447 33.8201C25.3246 34.1552 25.3246 34.4911 25.3447 34.8262V35.5656H16.6174V34.8747C16.6223 34.5379 16.598 34.2012 16.5447 33.8686L16.4719 33.5656H25.4053L25.3447 33.8201ZM25.3447 37.6868C25.3447 38.4262 25.3447 38.4989 25.1386 38.6929L24.9326 38.8989H17.0174L16.8113 38.6929C16.6174 38.5111 16.6053 38.4262 16.6053 37.6868V36.8989H25.2719L25.3447 37.6868Z" fill="#FD9B28"/>
<path d="M3.25983 8.24436L2.85983 8.70496L4.53256 10.0383C5.45377 10.7777 6.20529 11.3595 6.22953 11.3474L6.66589 10.8625L7.05377 10.3656L5.36892 9.04436C4.45983 8.31708 3.6962 7.72314 3.68408 7.72314C3.53351 7.88923 3.3919 8.06321 3.25983 8.24436Z" fill="#FD9B28"/>
<path d="M35.8538 9.04455L34.2174 10.3658L34.6417 10.887C35.0174 11.3597 35.078 11.3961 35.1871 11.287L38.3629 8.70516C38.128 8.34239 37.8558 8.0052 37.5507 7.6991C37.5507 7.6991 36.7507 8.3294 35.8538 9.04455Z" fill="#FD9B28"/>
<path d="M0.605286 18.2325V18.8991H4.60529V17.5658H0.605286V18.2325Z" fill="#FD9B28"/>
<path d="M36.6174 18.2325V18.8991H40.6053V17.5658H36.6053L36.6174 18.2325Z" fill="#FD9B28"/>
<path d="M3.5265 25.8201L1.89013 26.8141L1.61134 26.9717L1.91437 27.4807C2.02524 27.675 2.15518 27.8577 2.30225 28.0262C3.44408 27.4456 4.55285 26.8022 5.62346 26.0989C5.43057 25.7246 5.21186 25.3641 4.96892 25.0201C4.47322 25.259 3.99162 25.5261 3.5265 25.8201Z" fill="#FD9B28"/>
<path d="M35.9265 25.5778C35.8094 25.7545 35.708 25.9411 35.6235 26.1354C35.6235 26.1354 36.8356 26.9233 38.5447 27.9172L38.9326 28.1475L39.2356 27.6263C39.3552 27.4342 39.4567 27.2313 39.5386 27.0202C38.4958 26.3119 37.4154 25.6605 36.3023 25.0687C36.146 25.2132 36.0185 25.3859 35.9265 25.5778Z" fill="#FD9B28"/>
</svg>
