<svg width="75" height="75" viewBox="0 0 75 75" fill="none" xmlns="http://www.w3.org/2000/svg">
<g filter="url(#filter0_d_8_307)">
<path fill-rule="evenodd" clip-rule="evenodd" d="M35.1646 12.4524C33.3398 12.7504 32.1794 13.1173 30.5339 13.9164C27.8476 15.2211 25.8121 17.0236 24.133 19.5844L23.4722 20.5923L22.1501 20.6576C19.456 20.7908 17.4239 21.6387 15.5715 23.4022C14.0859 24.8166 13.2515 26.244 12.6705 28.3643C12.5269 28.8882 12.4859 29.4219 12.4899 30.7116C12.4946 32.2194 12.5225 32.4714 12.7788 33.3196C13.3397 35.1752 14.1708 36.5602 15.4819 37.8239C16.7873 39.0822 17.9955 39.7833 19.7844 40.3209C20.6664 40.586 20.8774 40.606 23.2455 40.6493L25.7674 40.6955L25.8036 42.3279C25.8433 44.1202 25.8972 44.3128 26.5345 44.9408C26.9702 45.3702 27.3171 45.5529 27.8617 45.6399L28.2901 45.7085V47.3643V49.0201H23.6601H19.03L18.8495 48.5475C18.6192 47.9448 17.7927 47.0941 17.1511 46.7992C16.4503 46.4772 15.0859 46.4756 14.3892 46.7959C13.7616 47.0844 12.995 47.8507 12.7064 48.478C12.3876 49.1707 12.3876 50.5386 12.7064 51.2313C12.995 51.8586 13.7616 52.6249 14.3892 52.9134C15.0859 53.2338 16.4503 53.2321 17.1511 52.9102C17.7927 52.6152 18.6192 51.7645 18.8495 51.1618L19.03 50.6892H24.2388H29.4476L29.7037 50.4331C29.9599 50.1771 29.9599 50.1768 29.9599 47.9294V45.6818H30.7948H31.6297V49.0201V52.3584H28.1288H24.6278L24.3717 52.6145C24.1243 52.8617 24.1155 52.9201 24.1155 54.3216V55.7726L23.6427 55.9531C23.0398 56.1834 22.1887 57.0095 21.8937 57.6509C21.5716 58.3514 21.57 59.7152 21.8905 60.4116C22.179 61.0389 22.9457 61.8053 23.5732 62.0937C24.2662 62.4124 25.6346 62.4124 26.3276 62.0937C26.9552 61.8053 27.7218 61.0389 28.0104 60.4116C28.3309 59.7152 28.3292 58.3514 28.0071 57.6509C27.7121 57.0095 26.861 56.1834 26.2581 55.9531L25.7853 55.7726V54.9001V54.0275H29.2862H32.7872L33.0434 53.7714L33.2996 53.5154V49.5986V45.6818H34.9694H36.6392V49.8926V54.1035L36.1665 54.284C35.5635 54.5142 34.7124 55.3403 34.4174 55.9817C34.2389 56.3698 34.1887 56.6741 34.1887 57.3659C34.1887 58.445 34.4109 59.0039 35.1232 59.7158C35.8354 60.4278 36.3946 60.6499 37.4741 60.6499C38.5537 60.6499 39.1129 60.4278 39.825 59.7158C40.5373 59.0039 40.7595 58.445 40.7595 57.3659C40.7595 56.6741 40.7093 56.3698 40.5309 55.9817C40.2358 55.3403 39.3847 54.5142 38.7818 54.284L38.309 54.1035V49.8926V45.6818H39.9789H41.6487V49.5986V53.5154L41.9049 53.7714L42.161 54.0275H45.662H49.1629V54.9001V55.7726L48.6902 55.9531C48.0872 56.1834 47.2362 57.0095 46.9411 57.6509C46.7627 58.0389 46.7125 58.3432 46.7125 59.035C46.7125 60.1141 46.9346 60.6731 47.6469 61.385C48.3591 62.097 48.9183 62.3191 49.9978 62.3191C51.0774 62.3191 51.6366 62.097 52.3488 61.385C53.061 60.6731 53.2832 60.1141 53.2832 59.035C53.2832 58.3432 53.233 58.0389 53.0546 57.6509C52.7595 57.0095 51.9084 56.1834 51.3055 55.9531L50.8328 55.7726V54.3216C50.8328 52.9201 50.824 52.8617 50.5765 52.6145L50.3204 52.3584H46.8194H43.3185V49.0201V45.6818H44.1534H44.9884V47.9294C44.9884 50.1768 44.9884 50.1771 45.2446 50.4331L45.5007 50.6892H50.7095H55.9182L56.0988 51.1618C56.3291 51.7645 57.1556 52.6152 57.7972 52.9102C58.1854 53.0885 58.4899 53.1387 59.1819 53.1387C60.2614 53.1387 60.8206 52.9166 61.5328 52.2046C62.2451 51.4927 62.4673 50.9338 62.4673 49.8547C62.4673 48.7756 62.2451 48.2166 61.5328 47.5047C60.8206 46.7927 60.2614 46.5706 59.1819 46.5706C58.4899 46.5706 58.1854 46.6208 57.7972 46.7992C57.1556 47.0941 56.3291 47.9448 56.0988 48.5475L55.9182 49.0201H51.2882H46.6582V47.3628V45.7055L47.1199 45.6363C47.956 45.5109 48.8311 44.7332 49.0591 43.9126C49.1155 43.7095 49.162 42.9012 49.1623 42.1166L49.1629 40.6901L52.4243 40.6467C56.0608 40.5984 56.2595 40.5684 57.7811 39.8384C59.4849 39.0209 60.867 37.6395 61.6855 35.9358C62.3155 34.6244 62.4596 33.9535 62.4596 32.3286C62.4596 30.7036 62.3155 30.0327 61.6855 28.7213C60.867 27.0177 59.4854 25.6367 57.7811 24.8185C56.4783 24.1931 55.794 24.0441 54.2006 24.0392L52.82 24.0349L52.5508 23.2004C51.7369 20.6758 49.9623 17.9873 47.9627 16.2498C45.8661 14.4277 43.3868 13.1975 40.6131 12.603C39.2936 12.3202 36.4546 12.2416 35.1646 12.4524ZM35.7212 14.0829C31.1894 14.6946 27.1999 17.4034 25.0416 21.3343C24.8143 21.7482 24.5527 22.1495 24.46 22.2263C24.3362 22.3288 23.8735 22.3667 22.7163 22.3692C21.5245 22.3717 20.9761 22.4186 20.463 22.5613C17.363 23.4239 15.196 25.5909 14.3466 28.6775C14.0887 29.6145 14.0887 31.7043 14.3466 32.6413C15.19 35.7059 17.3483 37.8786 20.4106 38.7454C20.884 38.8795 21.6224 38.9356 23.4371 38.9755L25.8375 39.0284L26.1278 38.5853C26.3977 38.173 26.4061 38.1289 26.2483 37.9545C25.8677 37.5341 25.7945 37.0307 25.7945 34.8323C25.7945 32.6313 25.8676 32.1305 26.2502 31.7079C26.4104 31.531 26.4044 31.4928 26.1612 31.1345C25.8068 30.6126 25.7636 30.208 25.8033 27.7893C25.8408 25.5059 25.8721 25.3727 26.5239 24.7211C27.2637 23.9816 26.4128 24.0349 37.4741 24.0349C48.5355 24.0349 47.6846 23.9816 48.4243 24.7211C49.0762 25.3727 49.1075 25.5059 49.145 27.7893C49.1846 30.208 49.1414 30.6126 48.7871 31.1345C48.5438 31.4928 48.5379 31.531 48.6981 31.7079C49.0807 32.1305 49.1537 32.6313 49.1537 34.8323C49.1537 37.0307 49.0806 37.5341 48.7 37.9545C48.5422 38.1289 48.5504 38.1728 48.8181 38.5814L49.1059 39.0209L52.2393 38.9822C55.3253 38.944 55.3855 38.9391 56.23 38.658C58.2677 37.9795 59.8377 36.4046 60.5039 34.371C60.7374 33.6578 60.7799 33.3438 60.7799 32.3286C60.7799 31.3085 60.7379 31.0005 60.4994 30.2718C60.1834 29.3069 59.4153 28.0777 58.756 27.4824C57.1436 26.0261 54.9856 25.4025 52.92 25.7958C52.079 25.9558 52.0198 25.9549 51.7801 25.777C51.4473 25.5299 51.4126 25.4554 51.0966 24.3071C49.6761 19.1452 45.4361 15.2682 40.0755 14.2298C38.9948 14.0204 36.7462 13.9446 35.7212 14.0829ZM27.9106 25.774C27.5207 25.9627 27.4552 26.3055 27.4552 28.1557C27.4552 30.0383 27.5188 30.3512 27.9412 30.5436C28.3009 30.7074 46.6473 30.7074 47.0071 30.5436C47.4294 30.3512 47.4931 30.0383 47.4931 28.1557C47.4931 26.2731 47.4294 25.9601 47.0071 25.7677C46.6632 25.6111 28.2347 25.6171 27.9106 25.774ZM29.125 28.1557V28.9902H34.1345H39.144V28.1557V27.3211H34.1345H29.125V28.1557ZM40.8138 28.1557V28.9902H41.6487H42.4836V28.1557V27.3211H41.6487H40.8138V28.1557ZM44.1534 28.1557V28.9902H44.9884H45.8233V28.1557V27.3211H44.9884H44.1534V28.1557ZM27.9106 32.4506C27.5207 32.6393 27.4552 32.9821 27.4552 34.8323C27.4552 36.7149 27.5188 37.0278 27.9412 37.2202C28.3009 37.384 46.6473 37.384 47.0071 37.2202C47.4294 37.0278 47.4931 36.7149 47.4931 34.8323C47.4931 32.9497 47.4294 32.6367 47.0071 32.4443C46.6632 32.2878 28.2347 32.2937 27.9106 32.4506ZM29.125 34.8323V35.6669H34.1345H39.144V34.8323V33.9977H34.1345H29.125V34.8323ZM40.8138 34.8323V35.6669H41.6487H42.4836V34.8323V33.9977H41.6487H40.8138V34.8323ZM44.1534 34.8323V35.6669H44.9884H45.8233V34.8323V33.9977H44.9884H44.1534V34.8323ZM27.9106 39.1272C27.5207 39.3159 27.4552 39.6587 27.4552 41.5089C27.4552 43.3915 27.5188 43.7045 27.9412 43.8968C28.1215 43.9789 30.8964 44.0126 37.4741 44.0126C44.0519 44.0126 46.8267 43.9789 47.0071 43.8968C47.4294 43.7045 47.4931 43.3915 47.4931 41.5089C47.4931 39.6263 47.4294 39.3133 47.0071 39.121C46.6632 38.9644 28.2347 38.9703 27.9106 39.1272ZM29.125 41.5089V42.3435H34.1345H39.144V41.5089V40.6743H34.1345H29.125V41.5089ZM40.8138 41.5089V42.3435H41.6487H42.4836V41.5089V40.6743H41.6487H40.8138V41.5089ZM44.1534 41.5089V42.3435H44.9884H45.8233V41.5089V40.6743H44.9884H44.1534V41.5089ZM15.0319 48.4202C14.6916 48.5917 14.5029 48.7804 14.3314 49.1204C14.036 49.7058 14.036 50.0035 14.3314 50.5889C14.5841 51.0899 15.2501 51.5238 15.7664 51.5238C16.2827 51.5238 16.9486 51.0899 17.2014 50.5889C17.3305 50.3329 17.4362 50.0025 17.4362 49.8547C17.4362 49.3386 17.0021 48.6729 16.5009 48.4202C16.2448 48.2911 15.9143 48.1855 15.7664 48.1855C15.6185 48.1855 15.288 48.2911 15.0319 48.4202ZM58.4474 48.4202C57.9461 48.6729 57.5121 49.3386 57.5121 49.8547C57.5121 50.0025 57.6177 50.3329 57.7469 50.5889C57.9997 51.0899 58.6656 51.5238 59.1819 51.5238C59.3298 51.5238 59.6603 51.4182 59.9164 51.2891C60.4177 51.0364 60.8517 50.3707 60.8517 49.8547C60.8517 49.3386 60.4177 48.6729 59.9164 48.4202C59.6603 48.2911 59.3298 48.1855 59.1819 48.1855C59.034 48.1855 58.7035 48.2911 58.4474 48.4202ZM36.7396 55.9314C36.2384 56.1841 35.8043 56.8498 35.8043 57.3659C35.8043 57.8819 36.2384 58.5476 36.7396 58.8003C36.9957 58.9294 37.3263 59.035 37.4741 59.035C37.622 59.035 37.9525 58.9294 38.2086 58.8003C38.7099 58.5476 39.144 57.8819 39.144 57.3659C39.144 57.218 39.0383 56.8876 38.9091 56.6316C38.6564 56.1306 37.9904 55.6967 37.4741 55.6967C37.3263 55.6967 36.9957 55.8023 36.7396 55.9314ZM24.2159 57.6006C23.7146 57.8532 23.2806 58.5189 23.2806 59.035C23.2806 59.5511 23.7146 60.2168 24.2159 60.4694C24.472 60.5986 24.8025 60.7042 24.9504 60.7042C25.0983 60.7042 25.4288 60.5986 25.6849 60.4694C26.1862 60.2168 26.6203 59.5511 26.6203 59.035C26.6203 58.5189 26.1862 57.8532 25.6849 57.6006C25.4288 57.4714 25.0983 57.3659 24.9504 57.3659C24.8025 57.3659 24.472 57.4714 24.2159 57.6006ZM49.2633 57.6006C48.7621 57.8532 48.328 58.5189 48.328 59.035C48.328 59.1828 48.4336 59.5132 48.5628 59.7692C48.8156 60.2703 49.4816 60.7042 49.9978 60.7042C50.1457 60.7042 50.4762 60.5986 50.7324 60.4694C51.2336 60.2168 51.6677 59.5511 51.6677 59.035C51.6677 58.8872 51.5621 58.5568 51.4329 58.3008C51.1801 57.7997 50.5141 57.3659 49.9978 57.3659C49.85 57.3659 49.5194 57.4714 49.2633 57.6006Z" fill="#FD9B28"/>
</g>
<defs>
<filter id="filter0_d_8_307" x="0.467285" y="0.332764" width="74" height="74" filterUnits="userSpaceOnUse" color-interpolation-filters="sRGB">
<feFlood flood-opacity="0" result="BackgroundImageFix"/>
<feColorMatrix in="SourceAlpha" type="matrix" values="0 0 0 0 0 0 0 0 0 0 0 0 0 0 0 0 0 0 127 0" result="hardAlpha"/>
<feOffset/>
<feGaussianBlur stdDeviation="6"/>
<feComposite in2="hardAlpha" operator="out"/>
<feColorMatrix type="matrix" values="0 0 0 0 0.992157 0 0 0 0 0.607843 0 0 0 0 0.156863 0 0 0 0.31 0"/>
<feBlend mode="normal" in2="BackgroundImageFix" result="effect1_dropShadow_8_307"/>
<feBlend mode="normal" in="SourceGraphic" in2="effect1_dropShadow_8_307" result="shape"/>
</filter>
</defs>
</svg>
