<svg width="100%" height="100%" viewBox="0 0 375 571" fill="none" xmlns="http://www.w3.org/2000/svg">
<path d="M795.215 58.3204C907.293 254.073 651.764 460.384 463.845 535.796C445.938 543.171 427.597 550.087 408.972 556.149C285.322 601.075 177.521 528.795 71.01 483.806C-7.9704 450.505 -94.8699 455.335 -178.901 448.317C-278.437 440.088 -337.457 356.998 -301.792 264.138C-281.595 211.522 -252.15 165.548 -216.126 125.281C-197.985 105.088 -178.401 86.2941 -157.534 69.0534C-70.2525 0.622563 41.1493 -37.7287 152.358 -49.8731C180.165 -52.9032 207.918 -52.7861 235.356 -54.0978C355.603 -59.8472 566.089 -57.618 715.87 -2.50707C758.676 13.2094 774.842 28.0552 795.215 58.3204Z" fill="url(#paint0_radial_120_717)"/>
<defs>
<radialGradient id="paint0_radial_120_717" cx="0" cy="0" r="1" gradientUnits="userSpaceOnUse" gradientTransform="translate(51.5516 438.952) rotate(-5.46204) scale(980.783 1000.64)">
<stop stop-color="#FDC800"/>
<stop offset="0.14" stop-color="#FDBB0B"/>
<stop offset="0.4" stop-color="#FDA91B"/>
<stop offset="0.68" stop-color="#FD9E25"/>
<stop offset="1" stop-color="#FD9B28"/>
</radialGradient>
</defs>
</svg>
