<svg width="21" height="20" viewBox="0 0 21 20" fill="none" xmlns="http://www.w3.org/2000/svg">
<path d="M6.03041 0C2.96263 0 0.474854 2.48778 0.474854 5.55556V14.4444C0.474854 17.5122 2.96263 20 6.03041 20H14.9193C17.9871 20 20.4749 17.5122 20.4749 14.4444V5.55556C20.4749 2.48778 17.9871 0 14.9193 0H6.03041ZM17.1415 2.22222C17.7549 2.22222 18.2526 2.72 18.2526 3.33333C18.2526 3.94667 17.7549 4.44444 17.1415 4.44444C16.5282 4.44444 16.0304 3.94667 16.0304 3.33333C16.0304 2.72 16.5282 2.22222 17.1415 2.22222ZM10.4749 4.44444C13.5426 4.44444 16.0304 6.93222 16.0304 10C16.0304 13.0678 13.5426 15.5556 10.4749 15.5556C7.40708 15.5556 4.9193 13.0678 4.9193 10C4.9193 6.93222 7.40708 4.44444 10.4749 4.44444ZM10.4749 6.66667C9.5908 6.66667 8.74295 7.01786 8.11783 7.64298C7.49271 8.2681 7.14152 9.11595 7.14152 10C7.14152 10.8841 7.49271 11.7319 8.11783 12.357C8.74295 12.9821 9.5908 13.3333 10.4749 13.3333C11.3589 13.3333 12.2068 12.9821 12.8319 12.357C13.457 11.7319 13.8082 10.8841 13.8082 10C13.8082 9.11595 13.457 8.2681 12.8319 7.64298C12.2068 7.01786 11.3589 6.66667 10.4749 6.66667Z" fill="currentColor"/>
</svg>
