<svg width="21" height="17" viewBox="0 0 21 17" fill="none" xmlns="http://www.w3.org/2000/svg">
<path d="M17.1667 0.311279H3.16675C2.3711 0.311279 1.60804 0.638113 1.04543 1.21988C0.482819 1.80165 0.166748 2.5907 0.166748 3.41344V13.754C0.166748 14.5767 0.482819 15.3658 1.04543 15.9475C1.60804 16.5293 2.3711 16.8561 3.16675 16.8561H17.1667C17.9624 16.8561 18.7255 16.5293 19.2881 15.9475C19.8507 15.3658 20.1667 14.5767 20.1667 13.754V3.41344C20.1667 2.5907 19.8507 1.80165 19.2881 1.21988C18.7255 0.638113 17.9624 0.311279 17.1667 0.311279ZM17.1667 2.37939L10.6667 7.00161C10.5147 7.09237 10.3423 7.14015 10.1667 7.14015C9.99121 7.14015 9.81877 7.09237 9.66675 7.00161L3.16675 2.37939H17.1667Z" fill="black"/>
</svg>
