<svg width="41" height="42" viewBox="0 0 41 42" fill="none" xmlns="http://www.w3.org/2000/svg">
<path d="M1.94316 0.931758C1.39714 1.21074 0.962345 1.66728 0.710309 2.22625C0.574696 2.73172 0.574696 13.8397 0.685652 14.3945C0.950715 14.9551 1.41732 15.3953 1.99247 15.6273C3.78547 15.752 5.58366 15.7849 7.38002 15.7259C13.1497 15.7259 12.9525 15.7259 13.5443 15.0479C13.7473 14.8296 13.9064 14.5743 14.0127 14.2958C14.1607 13.815 14.1607 2.69473 14.0127 2.22625C13.9064 1.94778 13.7473 1.69243 13.5443 1.47421C12.9032 0.83313 13.1621 0.83313 7.3307 0.83313C3.8664 0.83313 2.14041 0.83313 1.94316 0.931758ZM3.97736 4.90153V7.6138H8.04576V2.18926H12.3731L12.5826 2.39885L12.7922 2.60843V13.9876L12.5826 14.1972L12.3731 14.3945H2.35L2.14041 14.1849L1.93083 13.9753V2.5961L2.14041 2.38652C2.32534 2.18926 2.41164 2.17693 3.16368 2.17693H3.96503L3.97736 4.90153ZM6.73894 4.22346V6.25766H5.33349V2.18926H6.73894V4.22346Z" fill="#FD9B28"/>
<path d="M32.5055 0.907146C32.1128 1.0119 31.747 1.19913 31.4324 1.45635C31.1177 1.71357 30.8615 2.03489 30.6808 2.39889C30.4836 2.7934 30.4713 2.90436 30.4713 4.17419C30.4713 5.44403 30.4713 5.56731 30.6685 5.96182C30.8077 6.23696 30.9863 6.49031 31.1986 6.71386L31.5192 6.99742L30.9891 7.34262C29.8572 8.1137 28.9542 9.1756 28.3749 10.4166C27.7957 11.6576 27.5616 13.0317 27.6974 14.3945V15.7506H29.0535V14.074C28.9986 13.2799 29.0863 12.4824 29.3124 11.7192C29.594 10.9034 30.0403 10.1541 30.6235 9.51788C31.2067 8.88165 31.9144 8.37205 32.7027 8.02068L33.0972 7.84808L33.5041 8.02068C34.951 8.67222 36.0966 9.8487 36.7095 11.3124C37.0856 12.2948 37.2576 13.3435 37.2149 14.3945V15.7506H38.5711V14.3945C38.7002 12.7121 38.29 11.0322 37.3999 9.59873C36.839 8.74651 36.1241 8.00646 35.2917 7.41659L34.7739 6.99742L35.0944 6.72619C35.3068 6.50264 35.4854 6.24929 35.6246 5.97415C35.7972 5.57964 35.8218 5.41937 35.8218 4.18652V2.81806L35.5383 2.28794C35.3384 1.86444 35.0254 1.50443 34.6338 1.24769C34.2422 0.990962 33.7872 0.847504 33.3191 0.833175C33.0459 0.823945 32.7726 0.848794 32.5055 0.907146ZM33.8616 2.41122C34.3671 2.7934 34.4287 2.95367 34.4534 4.11255C34.4534 5.45636 34.3671 5.72758 33.6027 6.10977L33.1219 6.35634L32.6657 6.14675C31.9507 5.81388 31.8151 5.56731 31.7781 4.44542C31.7524 4.03487 31.7524 3.62312 31.7781 3.21257C31.8464 3.0085 31.9576 2.82146 32.1044 2.66408C32.2511 2.50669 32.4299 2.38263 32.6287 2.30026C32.831 2.234 33.0446 2.20966 33.2566 2.22874C33.4686 2.24781 33.6744 2.30991 33.8616 2.41122Z" fill="#FD9B28"/>
<path d="M18.9441 5.64138C17.7107 5.6865 16.4972 5.96687 15.3689 6.46739C15.4452 6.87169 15.5912 7.25965 15.8004 7.61394L16.6017 7.40436C19.5442 6.64028 22.6538 6.83463 25.4782 7.95914C25.9591 8.14407 26.5755 8.43995 26.859 8.58789L27.3892 8.88378L27.7837 8.23037L28.1289 7.6386L27.1919 7.15779C25.5166 6.33296 23.71 5.80725 21.8537 5.6044C20.8843 5.5413 19.9116 5.55366 18.9441 5.64138Z" fill="#FD9B28"/>
<path d="M18.5866 14.6657L18.34 15.6027L17.9948 15.7506L17.6373 15.8986L16.8113 15.3931L15.9853 14.8876L14.9744 15.9109L13.9511 16.9218L14.4566 17.7478L14.962 18.5739L14.8264 18.9191C14.6785 19.3136 14.6292 19.3382 13.5936 19.5848L12.8046 19.7697V22.6176L13.5936 22.8025C14.6662 23.0491 14.7031 23.0738 14.8264 23.4683L14.962 23.8135L14.4566 24.6395L13.9511 25.4655L14.9744 26.4764L15.9853 27.4997L16.8113 26.9942L17.6373 26.4887L17.9948 26.6367L18.34 26.7846L18.5866 27.7216L18.8332 28.6709H21.6687L21.8537 27.8819C22.1002 26.8093 22.1249 26.7723 22.5194 26.649L22.8646 26.5134L23.6906 27.0189L24.5166 27.5243L25.5275 26.5011L26.5508 25.4901L26.0453 24.6641L25.5399 23.8381L25.6878 23.4929L25.8358 23.1354L26.7727 22.8888L27.722 22.6423V19.8067L26.7727 19.5601L25.8358 19.3136L25.6878 18.956L25.5399 18.6108L26.0453 17.7848L26.5508 16.9588L25.5275 15.9479L24.5166 14.9246L23.6906 15.4301L22.8646 15.9356L22.5194 15.7999C22.1249 15.652 22.1002 15.6027 21.8537 14.5671L21.6687 13.7904H18.8332L18.5866 14.6657ZM20.7934 15.8986L20.9537 16.626L21.9769 17.0451L23.0002 17.4643L23.6413 17.0575L24.2947 16.6506L24.5536 16.9095L24.8125 17.1684L24.418 17.8218L24.0111 18.4752L24.4303 19.4985L24.8495 20.5218L25.5892 20.682L26.3289 20.8423V21.6067L25.5892 21.7669L24.8495 21.9272L24.4303 22.9505L24.0111 23.9737L24.418 24.6271L24.8125 25.2806L24.5536 25.5395L24.2947 25.7983L23.6413 25.3915L23.0002 24.9847L21.9769 25.4038L20.9537 25.823L20.7934 26.5504L20.6331 27.2901H19.8688L19.7085 26.5504L19.5482 25.8107L18.525 25.3915L17.514 24.9723L16.8483 25.3792L16.1949 25.786L15.9483 25.4901L15.6894 25.2312L16.0839 24.5778L16.4908 23.9244L16.0716 22.9012L15.6524 21.8779L14.925 21.7053L14.136 21.545V20.8176L14.8757 20.645L15.6031 20.4724L16.0223 19.4492L16.4415 18.4259L16.0346 17.7725L15.6401 17.1191L15.899 16.8602L16.1579 16.6013L16.8113 17.0081L17.477 17.415L18.488 16.9958L19.5112 16.5766L19.6592 15.8862C19.7455 15.5041 19.8318 15.1589 19.8441 15.1219C19.9728 15.0835 20.1099 15.0835 20.2386 15.1219H20.5962L20.7934 15.8986Z" fill="#FD9B28"/>
<path d="M19.4003 18.5986C19.0207 18.7179 18.6722 18.9197 18.3797 19.1895C18.0871 19.4592 17.8579 19.7903 17.7083 20.1591C17.5587 20.5278 17.4924 20.925 17.5142 21.3223C17.5361 21.7197 17.6455 22.1073 17.8346 22.4574C18.096 22.977 18.5327 23.3875 19.0674 23.6162C19.423 23.8046 19.8255 23.8859 20.2263 23.8505C20.6605 23.8924 21.0958 23.7836 21.4592 23.5423C21.9035 23.3091 22.2738 22.9561 22.5279 22.5234C22.782 22.0906 22.9099 21.5954 22.8971 21.0937C22.8842 20.592 22.7312 20.1039 22.4553 19.6848C22.1794 19.2656 21.7916 18.932 21.3359 18.7218C20.7222 18.4673 20.0413 18.4239 19.4003 18.5986ZM20.7934 19.9424C20.9948 20.0278 21.1718 20.1619 21.3084 20.3327C21.445 20.5035 21.5371 20.7056 21.5762 20.9208C21.6153 21.136 21.6003 21.3576 21.5325 21.5655C21.4648 21.7735 21.3463 21.9613 21.1879 22.1122C21.0722 22.2475 20.9285 22.3562 20.7668 22.4307C20.605 22.5052 20.429 22.5438 20.251 22.5438C20.0729 22.5438 19.8969 22.5052 19.7352 22.4307C19.5734 22.3562 19.4297 22.2475 19.314 22.1122C19.1031 21.8894 18.9747 21.6012 18.9502 21.2954C18.9258 20.9896 19.0066 20.6847 19.1795 20.4312C19.3523 20.1777 19.6066 19.991 19.9002 19.9021C20.1938 19.8132 20.509 19.8274 20.7934 19.9424Z" fill="#FD9B28"/>
<path d="M5.19788 17.0452C4.85281 18.4081 4.66664 19.8064 4.6431 21.2122C4.65246 22.6125 4.8473 24.0054 5.22254 25.3546C5.64606 25.327 6.06236 25.2312 6.45538 25.071C6.448 24.8582 6.41488 24.6471 6.35676 24.4423C5.88119 22.2985 5.88119 20.0766 6.35676 17.9328C6.43073 17.6123 6.49237 17.3411 6.49237 17.3164C6.34133 17.2358 6.17936 17.1777 6.01156 17.1438L5.37048 16.9712C5.33759 16.9617 5.30241 16.9638 5.27094 16.9773C5.23946 16.9908 5.21364 17.0148 5.19788 17.0452Z" fill="#FD9B28"/>
<path d="M34.589 17.1068L34.0219 17.3041C34.0255 17.5132 34.0587 17.7207 34.1205 17.9205C34.5949 20.0644 34.5949 22.286 34.1205 24.4299C34.0618 24.6309 34.0246 24.8375 34.0095 25.0463C34.4035 25.2058 34.819 25.3056 35.2424 25.3422C35.4925 24.4636 35.6617 23.564 35.7479 22.6546C35.8929 20.9117 35.7682 19.1569 35.378 17.452C35.3573 17.2788 35.2938 17.1136 35.1931 16.9712C34.9878 16.9967 34.7855 17.0421 34.589 17.1068Z" fill="#FD9B28"/>
<path d="M2.62122 26.723C2.07605 26.9819 1.63332 27.416 1.36372 27.9559C1.21578 28.4614 1.21578 39.5693 1.36372 40.0625C1.61949 40.6626 2.10271 41.137 2.70752 41.3816C3.65968 41.5057 4.62045 41.5511 5.58006 41.5172C7.82384 41.5172 8.11973 41.5172 8.37863 41.3323C10.0778 39.8467 11.6874 38.2618 13.1991 36.5858L13.4333 36.2036V32.3448C13.4961 30.9351 13.4714 29.5228 13.3593 28.1162C13.254 27.827 13.0904 27.5627 12.8785 27.3395C12.2621 26.6491 12.3731 26.6614 7.30605 26.6737C4.37187 26.6244 2.80615 26.6614 2.62122 26.723ZM11.9046 28.1778L12.1142 28.3874V35.4393H10.6224C8.81012 35.4393 8.57588 35.4393 7.99644 36.0804C7.417 36.7214 7.35536 36.8817 7.35536 38.7063V40.1981H3.04039L2.83081 39.9885L2.62122 39.7789V28.3751L2.83081 28.1655L3.04039 27.9559H11.6703L11.9046 28.1778ZM11.1032 36.8077L9.87037 38.0406L8.63752 39.2734V38.2748C8.63752 37.3255 8.63752 37.2639 8.84711 37.042C9.05669 36.8201 9.10601 36.8324 10.08 36.8324C10.4162 36.8042 10.7537 36.796 11.0909 36.8077H11.1032Z" fill="#FD9B28"/>
<path d="M3.97736 30.6804V31.3585H10.758V30.0023H3.97736V30.6804Z" fill="#FD9B28"/>
<path d="M3.97736 33.3927V34.12H10.758V32.7639H3.97736V33.3927Z" fill="#FD9B28"/>
<path d="M3.97736 36.1049V36.783H6.01156V35.4269H3.97736V36.1049Z" fill="#FD9B28"/>
<path d="M32.4685 27.7462V28.8927L29.7562 30.2488L27.0316 31.6543V40.2226H25.6755V41.5171H40.6053V40.1609H39.2492V26.5996H32.4685V27.7462ZM37.893 34.12V40.2842H33.8616V27.9557H37.93L37.893 34.12ZM32.4685 35.3528V40.2842H28.4001V32.4556L30.422 31.4447L32.4438 30.4214C32.4438 30.4214 32.4685 32.6159 32.4685 35.3528Z" fill="#FD9B28"/>
<path d="M35.1808 30.0024V30.6805H36.5369V29.3243H35.1808V30.0024Z" fill="#FD9B28"/>
<path d="M35.1808 32.7147V33.3928H36.5369V32.0366H35.1808V32.7147Z" fill="#FD9B28"/>
<path d="M35.1808 35.4268V36.1049H36.5369V34.7488H35.1808V35.4268Z" fill="#FD9B28"/>
<path d="M35.1808 38.1392V38.8173H36.5369V37.4612H35.1808V38.1392Z" fill="#FD9B28"/>
<path d="M29.7562 34.1201V34.7981H31.1123V33.442H29.7562V34.1201Z" fill="#FD9B28"/>
<path d="M29.7562 36.783V37.4611H31.1123V36.105H29.7562V36.783Z" fill="#FD9B28"/>
<path d="M14.9497 34.7736C14.8757 34.9462 14.7648 35.2174 14.6908 35.39C14.6428 35.4927 14.6057 35.6001 14.5798 35.7105C14.5798 35.7105 16.0223 36.1913 16.5154 36.3146C19.3459 36.9982 22.3097 36.8916 25.0837 36.0064L25.9097 35.7229C25.8468 35.5176 25.7727 35.3159 25.6878 35.1188C25.4043 34.4407 25.4659 34.453 24.3194 34.8105C23.021 35.222 21.6612 35.4055 20.3003 35.353C18.5841 35.4014 16.8751 35.1123 15.2702 34.5023C15.11 34.4777 15.0483 34.5516 14.9497 34.7736Z" fill="#FD9B28"/>
</svg>
