<svg width="11" height="9" viewBox="0 0 11 9" fill="none" xmlns="http://www.w3.org/2000/svg">
<path fill-rule="evenodd" clip-rule="evenodd" d="M0.958832 4.41132C0.958832 4.25267 1.02186 4.10051 1.13405 3.98832C1.24623 3.87613 1.39839 3.8131 1.55705 3.8131L8.48801 3.8131L5.91926 1.24555C5.86364 1.18993 5.81952 1.1239 5.78942 1.05123C5.75932 0.978557 5.74383 0.900669 5.74383 0.82201C5.74383 0.743351 5.75932 0.665463 5.78942 0.592792C5.81952 0.520121 5.86364 0.454091 5.91926 0.398471C5.97488 0.342851 6.04091 0.29873 6.11358 0.268629C6.18625 0.238528 6.26414 0.223035 6.3428 0.223035C6.42146 0.223035 6.49935 0.238528 6.57202 0.268629C6.64469 0.29873 6.71072 0.342851 6.76634 0.398471L10.3557 3.98778C10.4114 4.04335 10.4556 4.10937 10.4857 4.18204C10.5159 4.25472 10.5314 4.33264 10.5314 4.41132C10.5314 4.49001 10.5159 4.56792 10.4857 4.6406C10.4556 4.71328 10.4114 4.77929 10.3557 4.83486L6.76634 8.42417C6.65401 8.5365 6.50166 8.59961 6.3428 8.59961C6.18394 8.59961 6.03159 8.5365 5.91926 8.42417C5.80693 8.31184 5.74383 8.15949 5.74383 8.00064C5.74383 7.84178 5.80693 7.68943 5.91926 7.5771L8.48801 5.00954L1.55705 5.00954C1.39839 5.00954 1.24623 4.94651 1.13405 4.83433C1.02186 4.72214 0.958832 4.56998 0.958832 4.41132Z" fill="#FD9B28"/>
</svg>
