<svg width="60" height="75" viewBox="0 0 60 75" fill="none" xmlns="http://www.w3.org/2000/svg">
<g filter="url(#filter0_d_8_416)">
<path fill-rule="evenodd" clip-rule="evenodd" d="M41.3648 12.6367C40.9131 13.2109 41.0206 13.3715 42.8039 14.7867L44.1676 15.869L30.0722 15.9231C14.3026 15.9836 15.5924 15.914 14.4615 16.766C13.3959 17.5688 12.8922 18.6729 12.8922 20.2059C12.8922 21.2587 13.0698 21.5872 13.639 21.5872C14.2474 21.5872 14.4384 21.2721 14.4942 20.1761C14.5258 19.5542 14.6108 19.0893 14.7392 18.8351C14.9983 18.3223 15.6036 17.8014 16.1102 17.6551C16.3969 17.5725 20.6218 17.5469 30.3412 17.5691L44.1643 17.6007L42.7359 18.7371C41.144 20.0036 40.9543 20.2753 41.3197 20.7667C41.4728 20.9727 41.6538 21.073 41.9088 21.0929C42.2366 21.1184 42.4956 20.9488 44.2791 19.5404C47.3662 17.1027 47.3096 17.1549 47.3096 16.7473C47.3096 16.3126 47.3809 16.38 44.5527 14.1451C42.0558 12.1721 41.8186 12.0597 41.3648 12.6367ZM28.5606 23.8215C25.3984 24.2228 22.7626 25.514 20.5124 27.7643C17.833 30.4436 16.5322 33.5774 16.5322 37.3528C16.5322 41.1283 17.833 44.2621 20.5124 46.9413C22.4945 48.9235 24.6296 50.0864 27.3951 50.6899C28.7513 50.9859 31.2389 51.0079 32.62 50.736C35.3519 50.1981 37.6848 48.9459 39.6894 46.9413C41.6715 44.9592 42.8345 42.8241 43.438 40.0586C43.734 38.7024 43.7559 36.2148 43.4841 34.8338C42.9462 32.1018 41.6939 29.7689 39.6894 27.7643C37.14 25.215 34.1352 23.9049 30.5375 23.7743C29.8509 23.7494 28.9613 23.7706 28.5606 23.8215ZM28.3243 25.4514C25.8207 25.8459 23.4198 27.0743 21.6167 28.8833C20.11 30.3948 18.9965 32.3303 18.4425 34.4006C18.1883 35.3506 18.1593 35.6524 18.159 37.3528C18.1587 39.0793 18.1848 39.3426 18.4541 40.3292C19.7298 45.005 23.5084 48.4455 28.2044 49.2073C34.7137 50.2629 40.8949 45.7867 41.9553 39.2494C42.9417 33.1672 39.0936 27.3012 33.0772 25.7161C32.2214 25.4906 31.6777 25.4225 30.4797 25.3908C29.6463 25.3688 28.6763 25.396 28.3243 25.4514ZM29.6285 29.3517C29.3842 29.5438 29.3433 29.6586 29.3433 30.1516V30.7273L28.5899 30.8974C27.557 31.1306 26.8653 31.5059 26.2913 32.1444C25.1533 33.41 25.1772 35.2432 26.347 36.413C26.9438 37.0097 27.826 37.3839 29.993 37.9593C31.0345 38.2359 32.1138 38.5765 32.3913 38.7162C33.352 39.2 33.6844 40.1294 33.2194 41.0318C32.7418 41.959 31.6668 42.392 30.0519 42.3074C28.4693 42.2246 27.4622 41.6671 26.9883 40.6113C26.6227 39.7969 26.3538 39.5166 25.9422 39.5209C24.9373 39.5313 24.8165 40.5788 25.6674 41.9048C26.2981 42.8875 27.2759 43.5095 28.62 43.7828L29.2891 43.9189L29.3215 44.5285C29.3484 45.0341 29.4016 45.1757 29.6338 45.3582C29.9882 45.637 30.2148 45.6361 30.5733 45.354C30.8167 45.1626 30.8585 45.0465 30.8585 44.561V43.9924L31.5891 43.8578C32.6638 43.66 33.5555 43.1933 34.1943 42.4945C35.4609 41.1086 35.4547 39.0326 34.1803 37.8195C33.3756 37.0536 32.7943 36.8129 30.0753 36.1198C29.2577 35.9114 28.3702 35.6442 28.103 35.526C26.9799 35.0292 26.8495 33.6363 27.855 32.8775C28.3415 32.5104 28.9159 32.3754 29.9926 32.3754C31.5586 32.3754 32.2345 32.696 32.7289 33.6731C33.1237 34.4531 33.3657 34.6831 33.7919 34.6831C34.2062 34.6831 34.6466 34.2397 34.6466 33.8225C34.6466 33.3568 34.0854 32.3763 33.5365 31.8827C33.009 31.4086 32.1464 31.0114 31.3455 30.874L30.9126 30.7998L30.8802 30.1836C30.8533 29.671 30.8009 29.5307 30.568 29.3474C30.2135 29.0686 29.9869 29.0696 29.6285 29.3517ZM46.2776 53.1503C45.8623 53.3168 45.7561 53.5758 45.7069 54.5424C45.6758 55.1528 45.5903 55.6177 45.4625 55.8706C45.2034 56.3834 44.5982 56.9043 44.0916 57.0505C43.8049 57.1332 39.5802 57.1588 29.8615 57.1366L16.039 57.105L17.468 55.9685C19.0599 54.7025 19.2486 54.4318 18.8821 53.939C18.7294 53.7335 18.5472 53.6324 18.293 53.6119C17.9612 53.5852 17.6772 53.7795 15.4085 55.5852C13.0267 57.4811 12.8922 57.6075 12.8922 57.95C12.8922 58.3905 12.7902 58.2941 15.6521 60.5607C17.6936 62.1775 17.9624 62.3576 18.293 62.3303C18.5467 62.3095 18.7297 62.2077 18.8821 62.0026C19.2475 61.5113 19.0578 61.2396 17.4659 59.9731L16.0374 58.8367L30.1312 58.7825C43.2533 58.7321 44.2586 58.7153 44.712 58.5378C45.8199 58.1045 46.8201 57.0365 47.1461 55.9388C47.3805 55.1493 47.3655 53.6761 47.1202 53.3924C46.8884 53.1242 46.5705 53.0329 46.2776 53.1503Z" fill="#FD9B28"/>
</g>
<defs>
<filter id="filter0_d_8_416" x="0.891724" y="0.332764" width="58.4216" height="74" filterUnits="userSpaceOnUse" color-interpolation-filters="sRGB">
<feFlood flood-opacity="0" result="BackgroundImageFix"/>
<feColorMatrix in="SourceAlpha" type="matrix" values="0 0 0 0 0 0 0 0 0 0 0 0 0 0 0 0 0 0 127 0" result="hardAlpha"/>
<feOffset/>
<feGaussianBlur stdDeviation="6"/>
<feComposite in2="hardAlpha" operator="out"/>
<feColorMatrix type="matrix" values="0 0 0 0 0.992157 0 0 0 0 0.607843 0 0 0 0 0.156863 0 0 0 0.31 0"/>
<feBlend mode="normal" in2="BackgroundImageFix" result="effect1_dropShadow_8_416"/>
<feBlend mode="normal" in="SourceGraphic" in2="effect1_dropShadow_8_416" result="shape"/>
</filter>
</defs>
</svg>
