<svg width="41" height="41" viewBox="0 0 41 41" fill="none" xmlns="http://www.w3.org/2000/svg">
<path d="M1.92317 0.626233C1.38645 0.900467 0.959064 1.34922 0.711322 1.89867C0.578019 2.39553 0.578019 19.3735 0.687085 19.7855C0.751634 19.9646 0.837052 20.1354 0.941573 20.2945C1.09911 20.5247 1.09911 20.5247 0.941573 20.755C0.838216 20.919 0.752891 21.0937 0.687085 21.2761C0.578019 21.6881 0.578019 38.6661 0.687085 39.1508C0.932539 39.7293 1.39311 40.1899 1.97164 40.4354C2.45638 40.5808 19.4343 40.5808 19.8464 40.4354C20.0287 40.3696 20.2034 40.2842 20.3675 40.1809C20.5977 40.0233 20.5977 40.0233 20.828 40.1809C21.2763 40.496 21.5672 40.5323 23.7727 40.5323H25.9298V39.1993H21.6641L21.4581 38.9933L21.2521 38.7873V27.8806H21.9913L22.1731 27.1172C22.4155 26.0629 22.4397 26.0144 22.8275 25.9053L23.1668 25.772L23.9788 26.2689L24.7907 26.7657L25.7844 25.7599L26.7902 24.7662L26.2934 23.9543L25.7965 23.1423L25.942 22.803L26.0874 22.4516L27.0084 22.2092L27.9415 21.9668V21.2397H38.8481L39.0541 21.4457C39.2238 21.6154 39.2601 21.7245 39.2601 22.1244V22.6091H34.1583C32.3282 22.5356 30.4955 22.5639 28.6686 22.6939C28.0942 22.9168 27.6262 23.3502 27.3598 23.9058C27.2144 24.4026 27.2144 38.654 27.3598 39.1387C27.6053 39.7172 28.0658 40.1778 28.6444 40.4232C29.1412 40.5687 38.7269 40.5687 39.2117 40.4232C39.7902 40.1778 40.2508 39.7172 40.4962 39.1387C40.6416 38.654 40.6416 21.676 40.4962 21.264C40.4304 21.0816 40.3451 20.9069 40.2417 20.7429C40.0842 20.5126 40.0842 20.5126 40.2417 20.2824C40.3463 20.1233 40.4317 19.9525 40.4962 19.7734C40.6416 19.3614 40.6416 2.38341 40.4962 1.89867C40.2482 1.32471 39.7879 0.868807 39.2117 0.626233C38.7269 0.517167 21.749 0.517167 21.3248 0.626233C21.1458 0.690782 20.9749 0.7762 20.8158 0.880721C20.5856 1.03826 20.5856 1.03826 20.3553 0.880721C20.1952 0.778137 20.0245 0.69283 19.8464 0.626233C19.4586 0.517167 2.34731 0.517167 1.92317 0.626233ZM3.92271 5.19489V8.52747H9.25483V1.86232H19.5192L19.7252 2.06833L19.9312 2.27434V13.181H19.2041L18.9617 14.1141L18.7557 15.0593L18.4164 15.2047L18.065 15.3502L17.253 14.8533L16.4411 14.3564L15.4474 15.3623L14.4415 16.356L14.9384 17.1679L15.4352 17.9799L15.3019 18.3192C15.1565 18.707 15.108 18.7312 14.0901 18.9736L13.3145 19.1554V19.9067H2.40791L2.20189 19.7007L1.99588 19.4947V2.26223L2.20189 2.05621C2.38367 1.86232 2.4685 1.8502 3.20772 1.8502H3.99542L3.92271 5.19489ZM7.9218 4.52838V7.19444H5.25574V1.86232H7.9218V4.52838ZM23.2638 5.19489V8.52747H28.5959V1.86232H38.8602L39.0662 2.06833L39.2723 2.27434V19.4583L39.0662 19.6643L38.8602 19.8703H27.9536V19.1432L27.0205 18.9009L26.0268 18.6949L25.8814 18.3434L25.7359 18.0041L26.2328 17.1922L26.7297 16.3802L25.7238 15.3865L24.8149 14.3443L24.003 14.8412L23.1911 15.338L22.8517 15.2047C22.464 15.0593 22.4397 15.0108 22.1973 13.9929L22.0156 13.2294H21.2763V2.32282L21.4824 2.1168C21.6641 1.92291 21.749 1.91079 22.4882 1.91079H23.2759L23.2638 5.19489ZM27.2386 4.52838V7.19444H24.5726V1.86232H27.2386V4.52838ZM21.1794 15.2896L21.3369 16.0046L22.3428 16.4166L23.3486 16.8286L23.9788 16.4287L24.621 16.0288L24.8149 16.2712L25.0694 16.5256L24.6816 17.1679L24.2817 17.8102L24.6938 18.816L25.1058 19.8219L25.8329 19.9794L26.56 20.137V20.8883L25.8329 21.0458L25.1058 21.2034L24.6938 22.2092L24.2817 23.215L24.6816 23.8573L25.0694 24.4996L24.8149 24.7541L24.5604 25.0086L23.9182 24.6087L23.288 24.2088L22.2822 24.6208L21.2763 25.0328L21.1188 25.7478L20.9613 26.4749H20.2099L20.0524 25.7478L19.8948 25.0207L18.889 24.6087L17.8953 24.1966L17.2409 24.5965L16.5986 24.9965L16.332 24.7541L16.0775 24.4996L16.4653 23.8573L16.8652 23.215L16.4532 22.2092L16.0412 21.2034L15.3504 21.1185L14.6233 20.961V20.1491L15.3504 19.9915L16.0654 19.834L16.4774 18.8282L16.8895 17.8223L16.4896 17.18L16.1018 16.5378L16.332 16.2712L16.5865 16.0167L17.2288 16.4166L17.8832 16.8165L18.8769 16.4045L19.8827 15.9924L20.0281 15.3138C20.113 14.9381 20.1978 14.5988 20.2099 14.5625C20.3364 14.5247 20.4712 14.5247 20.5977 14.5625H20.9491L21.1794 15.2896ZM3.92271 24.5238V27.8564H9.25483V21.1913H13.2539V21.9305L14.0295 22.1123C15.0838 22.3546 15.1202 22.3789 15.2414 22.7667L15.3747 23.106L14.8778 23.9179L14.3809 24.7298L15.3868 25.7357L16.3805 26.7294L17.0712 26.2931C18.0771 25.6751 17.9922 25.6993 18.38 25.8811L18.7557 25.9659L18.986 26.8869L19.2162 27.8079H19.9676V38.7145L19.7615 38.9206L19.5555 39.1266H2.32308L2.11706 38.9206L1.91105 38.7145V21.6033L2.11706 21.3973C2.29884 21.2034 2.38367 21.1913 3.1229 21.1913H3.91059L3.92271 24.5238ZM7.9218 23.8573V26.5234H5.25574V21.1913H7.9218V23.8573ZM39.0541 24.0633L39.2601 24.2693V35.8667H28.5959V24.2693L28.8019 24.0633L29.0079 23.8573H38.8602L39.0541 24.0633ZM39.2601 37.9874C39.2601 38.7267 39.2601 38.7994 39.0541 38.9933L38.8481 39.1993H28.9958L28.7898 38.9933C28.5959 38.8115 28.5838 38.7267 28.5838 37.9874V37.1997H39.248L39.2601 37.9874Z" fill="#FD9B28"/>
<path d="M17.459 11.0361C14.9917 11.8522 12.9343 13.5885 11.7149 15.8834C11.3123 16.6443 11.0264 17.4613 10.8666 18.3071C11.2455 18.4871 11.659 18.5822 12.0784 18.5859C12.1998 18.3639 12.2934 18.1278 12.3572 17.883C12.7797 16.5507 13.5248 15.3435 14.5264 14.3686C15.6645 13.2377 17.0887 12.4376 18.6466 12.054C18.7921 12.054 18.5012 10.8422 18.3437 10.8422C18.0423 10.8726 17.7455 10.9376 17.459 11.0361Z" fill="#FD9B28"/>
<path d="M22.7184 10.8785C22.5642 11.2626 22.5059 11.6786 22.5488 12.0903C24.1237 12.4801 25.564 13.2882 26.7175 14.4292C27.6947 15.4052 28.4221 16.6024 28.8383 17.9193C28.902 18.1641 28.9957 18.4002 29.117 18.6222C29.5364 18.6185 29.95 18.5234 30.3288 18.3434C30.1631 17.4958 29.8688 16.6785 29.4563 15.9197C28.2389 13.6232 26.1807 11.8863 23.7122 11.0724C22.8517 10.7452 22.7669 10.733 22.7184 10.8785Z" fill="#FD9B28"/>
<path d="M19.7494 17.9919C19.1884 18.1828 18.7062 18.5535 18.3775 19.0465C18.0488 19.5396 17.8921 20.1273 17.9317 20.7186C17.9764 21.2897 18.2048 21.831 18.5826 22.2616C18.9604 22.6922 19.4674 22.989 20.0279 23.1076C20.5883 23.2262 21.1721 23.1603 21.692 22.9198C22.2119 22.6792 22.64 22.2769 22.9123 21.7729C23.1495 21.4157 23.2565 20.9878 23.2153 20.561C23.2502 20.167 23.1702 19.7714 22.9851 19.4219C22.7571 18.8942 22.3491 18.4647 21.8338 18.21C21.195 17.8652 20.4458 17.7867 19.7494 17.9919ZM21.1067 19.3128C21.3056 19.3972 21.4806 19.5294 21.616 19.6978C21.7513 19.8662 21.8429 20.0655 21.8825 20.2779C21.9221 20.4904 21.9085 20.7093 21.8429 20.9151C21.7773 21.121 21.6618 21.3074 21.5066 21.4578C21.3928 21.5929 21.2509 21.7015 21.0908 21.776C20.9307 21.8506 20.7562 21.8892 20.5795 21.8892C20.4029 21.8892 20.2284 21.8506 20.0683 21.776C19.9081 21.7015 19.7662 21.5929 19.6525 21.4578C19.4332 21.2402 19.2971 20.9527 19.2679 20.6452C19.2386 20.3377 19.318 20.0297 19.4924 19.7747C19.6667 19.5196 19.9249 19.3338 20.222 19.2494C20.5192 19.1651 20.8365 19.1875 21.1188 19.3128H21.1067Z" fill="#FD9B28"/>
<path d="M11.4846 22.5244C11.2674 22.5524 11.0598 22.6313 10.8787 22.7546C11.0515 23.5986 11.3411 24.4143 11.7391 25.1783C12.6835 27.0016 14.1694 28.4875 15.9927 29.4319C16.7515 29.8444 17.5688 30.1386 18.4164 30.3044C18.5341 30.1315 18.6051 29.9311 18.6224 29.7227L18.7436 29.1168C18.5212 28.9962 18.2853 28.9026 18.0407 28.8381C16.9409 28.4918 15.9211 27.9298 15.0409 27.1849C14.1608 26.44 13.4379 25.5271 12.9146 24.4997C12.7062 24.0667 12.5241 23.6215 12.3693 23.1666C12.3102 22.9348 12.2332 22.7079 12.139 22.488C11.9204 22.4622 11.699 22.4745 11.4846 22.5244Z" fill="#FD9B28"/>
<path d="M29.9289 26.5234V27.1778H35.261V25.8447H29.9289V26.5234Z" fill="#FD9B28"/>
<path d="M36.5941 26.5234V27.1778H37.9271V25.8447H36.5941V26.5234Z" fill="#FD9B28"/>
<path d="M29.9289 29.8681V30.5346H35.261V29.2015H29.9289V29.8681Z" fill="#FD9B28"/>
<path d="M36.5941 29.8681V30.5346H37.9271V29.2015H36.5941V29.8681Z" fill="#FD9B28"/>
<path d="M29.9289 33.2369V33.9035H35.261V32.5704H29.9289V33.2369Z" fill="#FD9B28"/>
<path d="M36.5941 33.2369V33.9035H37.9271V32.5704H36.5941V33.2369Z" fill="#FD9B28"/>
<path d="M25.0452 27.9534C24.4643 28.3051 23.8414 28.5819 23.1911 28.7774C22.9457 28.8396 22.7095 28.9333 22.4882 29.0561C22.5141 29.4752 22.6168 29.886 22.7912 30.268C23.9915 29.9876 25.135 29.504 26.1722 28.838C26.2449 28.7532 26.1722 28.5956 25.9177 28.2321C25.8147 28.0442 25.6793 27.876 25.5178 27.7352C25.355 27.7959 25.197 27.8688 25.0452 27.9534Z" fill="#FD9B28"/>
</svg>
