<svg width="336" height="347" viewBox="0 0 336 347" fill="none" xmlns="http://www.w3.org/2000/svg">
<path fill-rule="evenodd" clip-rule="evenodd" d="M323.648 51.0959L329.037 60.4289L334.425 51.0959L323.648 51.0959ZM328.078 60.9828C328.504 61.7212 329.57 61.7212 329.996 60.9828L335.384 51.6498C335.811 50.9113 335.278 49.9883 334.425 49.9883L323.648 49.9883C322.796 49.9883 322.263 50.9113 322.689 51.6498L328.078 60.9828Z" fill="#FD9B28"/>
<path fill-rule="evenodd" clip-rule="evenodd" d="M323.648 34.5447L329.037 43.8777L334.425 34.5447L323.648 34.5447ZM328.078 44.4315C328.504 45.17 329.57 45.17 329.996 44.4315L335.384 35.0985C335.811 34.3601 335.278 33.437 334.425 33.437L323.648 33.437C322.796 33.437 322.263 34.3601 322.689 35.0985L328.078 44.4315Z" fill="#FD9B28"/>
<path fill-rule="evenodd" clip-rule="evenodd" d="M323.648 17.9933L329.037 27.3263L334.425 17.9933L323.648 17.9933ZM328.078 27.8801C328.504 28.6186 329.57 28.6186 329.996 27.8801L335.384 18.5471C335.811 17.8087 335.278 16.8856 334.425 16.8856L323.648 16.8856C322.796 16.8856 322.263 17.8087 322.689 18.5471L328.078 27.8801Z" fill="#FD9B28"/>
<path fill-rule="evenodd" clip-rule="evenodd" d="M323.648 1.44201L329.037 10.775L334.425 1.44201L323.648 1.44201ZM328.078 11.3289C328.504 12.0673 329.57 12.0673 329.996 11.3288L335.384 1.99585C335.811 1.25739 335.278 0.334325 334.425 0.334325L323.648 0.334326C322.796 0.334326 322.263 1.2574 322.689 1.99585L328.078 11.3289Z" fill="#FD9B28"/>
<path fill-rule="evenodd" clip-rule="evenodd" d="M81.5945 282.406L68.0167 278.768L58.077 288.708L61.7152 302.285L75.293 305.923L85.2327 295.984L81.5945 282.406ZM86.4681 296.315L82.4989 281.502L67.6856 277.532L56.8416 288.376L60.8108 303.19L75.624 307.159L86.4681 296.315Z" fill="#FD9B28"/>
<path fill-rule="evenodd" clip-rule="evenodd" d="M99.6497 300.371L86.0718 296.733L76.1322 306.673L79.7704 320.251L93.3482 323.889L103.288 313.949L99.6497 300.371ZM104.523 314.28L100.554 299.467L85.7408 295.498L74.8967 306.342L78.8659 321.155L93.6792 325.124L104.523 314.28Z" fill="#FD9B28"/>
<path fill-rule="evenodd" clip-rule="evenodd" d="M75.0905 307.059L61.5126 303.421L51.573 313.361L55.2111 326.939L68.789 330.577L78.7286 320.637L75.0905 307.059ZM79.9641 320.968L75.9949 306.155L61.1816 302.186L50.3375 313.03L54.3067 327.843L69.12 331.812L79.9641 320.968Z" fill="#FD9B28"/>
<path fill-rule="evenodd" clip-rule="evenodd" d="M102.655 33.835L108.044 43.168L113.432 33.835L102.655 33.835ZM107.084 43.7218C107.511 44.4602 108.576 44.4602 109.003 43.7218L114.391 34.3888C114.818 33.6503 114.285 32.7273 113.432 32.7273L102.655 32.7273C101.802 32.7273 101.269 33.6503 101.696 34.3888L107.084 43.7218Z" fill="#FD9B28"/>
<path fill-rule="evenodd" clip-rule="evenodd" d="M102.655 17.2836L108.044 26.6166L113.432 17.2836L102.655 17.2836ZM107.084 27.1704C107.511 27.9089 108.576 27.9089 109.003 27.1704L114.391 17.8374C114.818 17.0989 114.285 16.1759 113.432 16.1759L102.655 16.1759C101.802 16.1759 101.269 17.0989 101.696 17.8374L107.084 27.1704Z" fill="#FD9B28"/>
<path fill-rule="evenodd" clip-rule="evenodd" d="M150.61 58.0852C148.73 58.4637 146.9 57.2468 146.521 55.3672C146.143 53.4876 147.36 51.657 149.239 51.2785C151.119 50.9 152.949 52.1169 153.328 53.9965C153.706 55.8761 152.489 57.7067 150.61 58.0852ZM150.833 59.1952C148.341 59.6972 145.913 58.0834 145.411 55.5907C144.909 53.0981 146.523 50.6705 149.016 50.1685C151.508 49.6666 153.936 51.2803 154.438 53.773C154.94 56.2656 153.326 58.6933 150.833 59.1952Z" fill="#FD9B28"/>
<path d="M260.104 9.32848L267.945 21.7626L261.098 34.7704L246.409 35.3442L238.568 22.9102L245.415 9.90229L260.104 9.32848Z" fill="#FD9B28" fill-opacity="0.17"/>
<path d="M12.454 260.34L15.9071 265.816L12.8916 271.544L6.42309 271.797L2.96999 266.321L5.98543 260.593L12.454 260.34Z" fill="#FD9B28" fill-opacity="0.17"/>
</svg>
