<svg width="20" height="20" viewBox="0 0 20 20" fill="none" xmlns="http://www.w3.org/2000/svg">
<path d="M12.4622 10.2806L19.1296 3.62874C19.4216 3.33677 19.5856 2.94076 19.5856 2.52785C19.5856 2.11493 19.4216 1.71893 19.1296 1.42695C18.8376 1.13498 18.4416 0.970947 18.0287 0.970947C17.6158 0.970947 17.2198 1.13498 16.9278 1.42695L10.2759 8.09434L3.62406 1.42695C3.33209 1.13498 2.93608 0.970947 2.52317 0.970947C2.11025 0.970947 1.71425 1.13498 1.42227 1.42695C1.1303 1.71893 0.966269 2.11493 0.966269 2.52785C0.966269 2.94076 1.1303 3.33677 1.42227 3.62874L8.08966 10.2806L1.42227 16.9325C1.27694 17.0767 1.16159 17.2481 1.08287 17.4371C1.00415 17.626 0.963623 17.8287 0.963623 18.0334C0.963623 18.2381 1.00415 18.4408 1.08287 18.6297C1.16159 18.8187 1.27694 18.9902 1.42227 19.1343C1.56642 19.2796 1.73791 19.395 1.92686 19.4737C2.11581 19.5524 2.31848 19.5929 2.52317 19.5929C2.72786 19.5929 2.93053 19.5524 3.11948 19.4737C3.30843 19.395 3.47992 19.2796 3.62406 19.1343L10.2759 12.4669L16.9278 19.1343C17.072 19.2796 17.2435 19.395 17.4324 19.4737C17.6214 19.5524 17.824 19.5929 18.0287 19.5929C18.2334 19.5929 18.4361 19.5524 18.625 19.4737C18.814 19.395 18.9855 19.2796 19.1296 19.1343C19.2749 18.9902 19.3903 18.8187 19.469 18.6297C19.5477 18.4408 19.5883 18.2381 19.5883 18.0334C19.5883 17.8287 19.5477 17.626 19.469 17.4371C19.3903 17.2481 19.2749 17.0767 19.1296 16.9325L12.4622 10.2806Z" fill="black"/>
</svg>
