<svg width="71" height="75" viewBox="0 0 71 75" fill="none" xmlns="http://www.w3.org/2000/svg">
<g filter="url(#filter0_d_8_414)">
<path fill-rule="evenodd" clip-rule="evenodd" d="M30.6007 12.3872C28.8082 12.671 27.5483 13.0622 26.1134 13.7802C24.3047 14.6854 22.6674 16.0697 21.4269 17.7429C20.8531 18.5168 19.8756 20.3227 19.5786 21.1575L19.458 21.4965H17.9996C16.8376 21.4965 16.4065 21.5386 15.8783 21.7034C14.6372 22.0908 13.5591 23.1739 13.1766 24.4178C12.9715 25.085 12.9684 25.3462 12.9977 39.9595L13.0276 54.8227L13.2635 55.5868C14.289 58.9079 16.5453 61.1461 19.8269 62.0972L20.6394 62.3328H32.9998H45.3602L46.1726 62.0972C49.4566 61.1454 51.7595 58.8576 52.7258 55.5868C52.921 54.9265 52.9582 54.4888 52.9997 52.3667L53.0478 49.9109L53.7591 49.7989C55.7891 49.4793 57.5138 47.8529 57.9255 45.87C58.0035 45.4937 58.0316 43.7312 58.0114 40.4708L57.9813 35.6301L57.726 35.1113C57.3986 34.4458 56.6958 33.7447 56.0721 33.461C55.6807 33.2829 55.3272 33.23 54.3133 33.198L53.0442 33.158L53.0026 30.3782C52.9647 27.8309 52.9413 27.5375 52.7229 26.8683C52.289 25.5386 51.8042 24.753 50.7841 23.7264C49.9753 22.9124 49.6961 22.7062 48.8511 22.2986C47.7577 21.771 46.6329 21.4965 45.5641 21.4965C44.8783 21.4965 44.8717 21.4938 44.7521 21.1575C44.455 20.3227 43.4775 18.5168 42.9037 17.7429C40.7462 14.8331 37.6298 12.9796 33.9707 12.4302C33.2627 12.3239 31.1694 12.2972 30.6007 12.3872ZM30.3697 14.1482C24.2962 15.0938 19.9284 20.7355 20.564 26.8138C20.6306 27.4514 20.7128 28.0179 20.7466 28.0727C20.7805 28.1274 21.1841 28.1722 21.6434 28.1722C22.4172 28.1722 22.4741 28.1576 22.4158 27.9737C22.2658 27.5012 22.1531 26.4869 22.1538 25.6167C22.1554 23.7534 22.758 21.7774 23.811 20.183C27.3607 14.8086 34.9383 14.1125 39.3723 18.7536C41.1633 20.6282 42.1805 23.1308 42.178 25.6564C42.1773 26.3837 42.043 27.5404 41.9071 27.9896C41.8576 28.1529 41.9401 28.1722 42.6872 28.1722C43.1466 28.1722 43.5468 28.1329 43.5765 28.0847C43.6063 28.0366 43.6889 27.4733 43.7601 26.833C44.1314 23.4935 42.8744 19.9238 40.4705 17.491C37.835 14.8241 34.0577 13.5739 30.3697 14.1482ZM30.9634 17.4273C30.1446 17.5477 29.2581 17.8324 28.4626 18.2307C26.2724 19.3273 24.7549 21.212 24.0694 23.6872C23.8367 24.5274 23.8269 26.7967 24.0526 27.5985L24.1994 28.12L26.9307 28.1479L29.6619 28.1756V25.2534V22.331H29.0836C28.3875 22.331 27.993 22.0291 27.993 21.4965C27.993 21.2933 28.0876 21.0795 28.2491 20.9181C28.4724 20.6947 28.5988 20.6621 29.24 20.6621H29.9749V20.3541C29.9749 19.4592 30.8143 18.9887 31.3877 19.5622C31.5752 19.7496 31.6438 19.9312 31.6438 20.2402V20.6621H32.1653H32.6868V20.2402C32.6868 19.7669 33.0423 19.3061 33.4073 19.3061C34.0024 19.3061 34.3558 19.7312 34.3558 20.4471C34.3558 20.7925 34.3936 20.8575 34.6283 20.9165C35.0688 21.027 35.9632 21.9997 36.1628 22.5852C36.4857 23.5328 36.3321 24.5682 35.7565 25.3226L35.4925 25.6688L35.7565 26.015C36.1057 26.4727 36.3376 27.1526 36.3376 27.7182V28.1769L38.2344 28.1485L40.1314 28.12L40.2786 27.5985C40.3674 27.2839 40.4303 26.5388 40.437 25.721C40.4498 24.1627 40.2474 23.2476 39.6088 21.975C39.1146 20.9903 38.6758 20.4095 37.8069 19.5898C35.9802 17.8666 33.4385 17.0635 30.9634 17.4273ZM31.3309 23.5827V24.8344L32.5043 24.8339C33.4841 24.8336 33.7328 24.7999 34.0117 24.6299C34.371 24.4109 34.6687 23.9364 34.6687 23.5827C34.6687 23.229 34.371 22.7545 34.0117 22.5354C33.7328 22.3654 33.4841 22.3317 32.5043 22.3314L31.3309 22.331V23.5827ZM16.5186 23.2629C14.3812 23.9131 13.9923 26.7265 15.8861 27.8398C16.3239 28.0971 16.4719 28.1231 17.6977 28.1567L19.0326 28.1934L18.9494 27.6352C18.8426 26.9186 18.8416 24.4246 18.9479 23.7131L19.0298 23.1654L17.9049 23.1744C17.2862 23.1793 16.6624 23.2192 16.5186 23.2629ZM45.3836 23.7505C45.4891 24.5522 45.4875 26.9166 45.3809 27.6595L45.2973 28.2421L46.1763 28.4743C48.0591 28.9717 49.8068 30.097 50.9682 31.5598L51.3805 32.0789L51.3335 29.9952C51.2801 27.6177 51.146 27.0098 50.4354 25.9221C49.3955 24.3302 47.8682 23.399 45.981 23.2056L45.3027 23.1361L45.3836 23.7505ZM31.3309 27.3319V28.1775L32.9737 28.1487L34.6165 28.12L34.6069 27.6692C34.5993 27.3089 34.5308 27.1516 34.2663 26.8869L33.9351 26.5554L32.633 26.5208L31.3309 26.4863V27.3319ZM14.6417 34.8913V40.689H18.3968H22.1518V38.4417C22.1518 36.1947 22.1518 36.1943 22.4079 35.9384L22.6639 35.6823H26.2009H29.7379L29.9183 35.2098C30.1472 34.6105 30.9172 33.8177 31.5916 33.4869C32.3055 33.1367 33.647 33.123 34.3762 33.4585C35.0034 33.7469 35.7696 34.5131 36.0581 35.1403C36.3767 35.8329 36.3767 37.2006 36.0581 37.8932C35.7696 38.5204 35.0034 39.2866 34.3762 39.575C33.6799 39.8954 32.3162 39.8937 31.6158 39.5718C30.9745 39.2769 30.1485 38.4263 29.9183 37.8237L29.7379 37.3512H26.7793H23.8207V39.5985C23.8207 41.8456 23.8207 41.8459 23.5647 42.1019L23.3087 42.358H18.9752H14.6417V43.1924V44.0269H22.1898H29.7379L29.9183 43.5544C30.1485 42.9518 30.9745 42.1011 31.6158 41.8063C32.0038 41.6279 32.3081 41.5777 32.9998 41.5777C34.0787 41.5777 34.6376 41.7998 35.3494 42.5117C36.0613 43.2235 36.2834 43.7824 36.2834 44.8613C36.2834 45.9403 36.0613 46.4992 35.3494 47.2109C34.6376 47.9228 34.0787 48.1449 32.9998 48.1449C32.3081 48.1449 32.0038 48.0947 31.6158 47.9164C30.9745 47.6215 30.1485 46.7709 29.9183 46.1683L29.7379 45.6958H22.1898H14.6417V46.5302V47.3647H18.9752H23.3087L23.5647 47.6208C23.8171 47.8731 23.8207 47.9028 23.8207 49.7069V51.537H26.7793H29.7379L29.9183 51.0645C30.1485 50.4619 30.9745 49.6113 31.6158 49.3164C32.3162 48.9945 33.6799 48.9928 34.3762 49.3132C35.0034 49.6016 35.7696 50.3678 36.0581 50.995C36.3767 51.6876 36.3767 53.0553 36.0581 53.7479C35.7696 54.3751 35.0034 55.1413 34.3762 55.4297C33.6799 55.75 32.3162 55.7484 31.6158 55.4265C30.9745 55.1316 30.1485 54.281 29.9183 53.6784L29.7379 53.2059H26.2009H22.6639L22.4079 52.9498C22.1555 52.6975 22.1518 52.6678 22.1518 50.8637V49.0336H18.3968H14.6417L14.6426 51.3544C14.6436 54.531 14.828 55.509 15.7096 57.0131C16.8052 58.8822 18.8249 60.2508 21.0112 60.6055C21.9335 60.7552 44.066 60.7552 44.9883 60.6055C47.1747 60.2508 49.1944 58.8822 50.2899 57.0131C51.1407 55.5616 51.3559 54.5045 51.357 51.7717L51.3578 49.8681L48.0982 49.8665C44.4203 49.8648 43.9974 49.8089 42.7632 49.162C40.9124 48.1918 39.6786 46.1377 39.6786 44.0269C39.6786 41.916 40.9124 39.8619 42.7632 38.8917C43.9974 38.2448 44.4203 38.1889 48.0982 38.1872L51.3578 38.1857L51.357 37.5338C51.3528 34.0031 49.1887 31.1222 45.7621 30.0858C45.1945 29.9141 44.1265 29.8972 30.6007 29.8451L16.0499 29.7889L15.424 29.481C15.0798 29.3116 14.7629 29.1552 14.72 29.1334C14.677 29.1115 14.6417 31.7026 14.6417 34.8913ZM32.2657 35.0825C31.7647 35.3352 31.3309 36.0007 31.3309 36.5168C31.3309 37.0328 31.7647 37.6983 32.2657 37.951C32.5216 38.0801 32.852 38.1857 32.9998 38.1857C33.1476 38.1857 33.4779 38.0801 33.7339 37.951C34.2349 37.6983 34.6687 37.0328 34.6687 36.5168C34.6687 36.0007 34.2349 35.3352 33.7339 35.0825C33.4779 34.9534 33.1476 34.8478 32.9998 34.8478C32.852 34.8478 32.5216 34.9534 32.2657 35.0825ZM53.0267 36.5168V38.1857H53.9955C55.2387 38.1857 55.7775 37.9497 56.1299 37.2509C56.259 36.9949 56.3646 36.6646 56.3646 36.5168C56.3646 36.369 56.259 36.0386 56.1299 35.7826C55.7775 35.0838 55.2387 34.8478 53.9955 34.8478H53.0267V36.5168ZM55.9473 39.6378C55.635 39.7786 54.7911 39.8101 50.1061 39.8555C44.6858 39.9081 44.6239 39.9111 44.03 40.15C42.3647 40.8197 41.3889 42.2812 41.4064 44.079C41.424 45.8884 42.4835 47.3616 44.1972 47.9596C44.6823 48.1288 45.174 48.147 49.2717 48.147H53.809L54.3827 47.8744C55.1125 47.5278 55.6932 46.947 56.0399 46.2173C56.3061 45.6569 56.3131 45.587 56.3446 43.1924C56.3624 41.8442 56.3624 40.4559 56.3446 40.1072L56.3124 39.4733L55.9473 39.6378ZM44.4764 41.2874C43.8332 41.5144 42.9955 42.3699 42.7708 43.0294C42.3875 44.1543 42.6368 45.2286 43.4759 46.0676C44.6618 47.2536 46.3714 47.2536 47.5574 46.0676C48.7434 44.8817 48.7434 43.1721 47.5574 41.9861C46.7224 41.1511 45.5901 40.8943 44.4764 41.2874ZM45.0472 42.8747C44.2792 43.1923 44.0506 44.2566 44.6222 44.8532C45.1444 45.3982 45.9169 45.3824 46.4492 44.8157C47.2853 43.9259 46.1859 42.4037 45.0472 42.8747ZM32.2657 43.4271C31.7647 43.6797 31.3309 44.3453 31.3309 44.8613C31.3309 45.3773 31.7647 46.0429 32.2657 46.2955C32.5216 46.4247 32.852 46.5302 32.9998 46.5302C33.1476 46.5302 33.4779 46.4247 33.7339 46.2955C34.2349 46.0429 34.6687 45.3773 34.6687 44.8613C34.6687 44.3453 34.2349 43.6797 33.7339 43.4271C33.4779 43.298 33.1476 43.1924 32.9998 43.1924C32.852 43.1924 32.5216 43.298 32.2657 43.4271ZM32.2657 50.9372C31.7647 51.1898 31.3309 51.8554 31.3309 52.3714C31.3309 52.8874 31.7647 53.553 32.2657 53.8057C32.5216 53.9348 32.852 54.0403 32.9998 54.0403C33.1476 54.0403 33.4779 53.9348 33.7339 53.8057C34.2349 53.553 34.6687 52.8874 34.6687 52.3714C34.6687 51.8554 34.2349 51.1898 33.7339 50.9372C33.4779 50.8081 33.1476 50.7025 32.9998 50.7025C32.852 50.7025 32.5216 50.8081 32.2657 50.9372Z" fill="#FD9B28"/>
</g>
<defs>
<filter id="filter0_d_8_414" x="0.984406" y="0.332764" width="69.0333" height="74" filterUnits="userSpaceOnUse" color-interpolation-filters="sRGB">
<feFlood flood-opacity="0" result="BackgroundImageFix"/>
<feColorMatrix in="SourceAlpha" type="matrix" values="0 0 0 0 0 0 0 0 0 0 0 0 0 0 0 0 0 0 127 0" result="hardAlpha"/>
<feOffset/>
<feGaussianBlur stdDeviation="6"/>
<feComposite in2="hardAlpha" operator="out"/>
<feColorMatrix type="matrix" values="0 0 0 0 0.992157 0 0 0 0 0.607843 0 0 0 0 0.156863 0 0 0 0.31 0"/>
<feBlend mode="normal" in2="BackgroundImageFix" result="effect1_dropShadow_8_414"/>
<feBlend mode="normal" in="SourceGraphic" in2="effect1_dropShadow_8_414" result="shape"/>
</filter>
</defs>
</svg>
