<svg width="100%" height="100%" viewBox="0 0 385 252" fill="none" xmlns="http://www.w3.org/2000/svg">
<g clip-path="url(#clip0_118_9664)">
<path d="M204.27 109.957C183.995 82.7987 208.403 46.0751 228.905 30.6026C230.852 29.0997 232.868 27.6568 234.947 26.3367C248.594 16.8656 264.217 25.4537 278.77 29.9447C289.559 33.266 300.044 30.6519 310.574 29.8911C323.043 28.9771 333.051 40.2566 331.786 55.0656C331.071 63.4564 329 71.0437 325.933 77.9111C324.386 81.3566 322.615 84.6218 320.635 87.6801C312.229 99.9156 299.863 108.127 286.645 112.374C283.339 113.435 279.935 114.019 276.618 114.812C262.078 118.288 236.216 122.514 216.024 117.431C210.254 115.983 207.778 114.09 204.27 109.957Z" fill="#E44E1B"/>
<path d="M318.835 6.27716L322.288 11.7527L319.273 17.481L312.804 17.7337L309.351 12.2581L312.366 6.52985L318.835 6.27716Z" fill="#FD9B28" fill-opacity="0.17"/>
</g>
<g clip-path="url(#clip1_118_9664)">
<path d="M332.086 96.9329C353.811 164.877 289.758 224.729 244.351 243.633C240.02 245.496 235.598 247.195 231.129 248.604C201.356 259.497 177.879 232.319 154.095 214.163C136.457 200.719 116.128 199.574 96.7298 194.62C73.7507 188.78 61.8655 159.58 72.2309 130.144C78.1016 113.465 85.9766 99.2621 95.2552 87.1446C99.9261 81.0703 104.902 75.502 110.141 70.4851C131.974 50.7125 158.751 41.5974 184.9 41.1003C191.438 40.9781 197.893 41.8899 204.307 42.3217C232.417 44.2134 281.348 51.5703 314.976 74.4192C324.587 80.9381 328.019 86.3322 332.086 96.9329Z" fill="url(#paint0_radial_118_9664)"/>
<path fill-rule="evenodd" clip-rule="evenodd" d="M104.786 222.045L110.175 231.378L115.563 222.045L104.786 222.045ZM109.216 231.932C109.642 232.67 110.708 232.67 111.134 231.932L116.523 222.599C116.949 221.86 116.416 220.937 115.563 220.937L104.786 220.937C103.934 220.937 103.401 221.86 103.827 222.599L109.216 231.932Z" fill="#FD9B28"/>
<path fill-rule="evenodd" clip-rule="evenodd" d="M104.786 205.493L110.175 214.826L115.563 205.493L104.786 205.493ZM109.216 215.38C109.642 216.119 110.708 216.119 111.134 215.38L116.523 206.047C116.949 205.309 116.416 204.386 115.563 204.386L104.786 204.386C103.934 204.386 103.401 205.309 103.827 206.047L109.216 215.38Z" fill="#FD9B28"/>
<path fill-rule="evenodd" clip-rule="evenodd" d="M192.604 65.0959L191.888 65.8117V81.8799V97.9481L192.604 98.6638L193.32 99.3799H212.888H232.456L233.172 98.6638L233.888 97.9481V81.8799V65.8117L233.172 65.0959L232.456 64.3799H212.888H193.32L192.604 65.0959ZM196.554 81.8799V94.7132H198.888H201.221V92.286C201.221 90.8422 201.407 89.3124 201.681 88.5106C202.221 86.924 203.953 84.8534 205.384 84.0826C206.36 83.5573 206.387 83.4969 206.111 82.4965C205.695 80.9885 205.97 76.3811 206.541 75.2996C207.126 74.1915 208.667 72.6518 209.825 72.0169C211.04 71.351 214.75 71.3609 215.992 72.0335C217.175 72.6734 218.608 74.1116 219.222 75.2754C219.806 76.3808 220.086 80.9681 219.664 82.4965C219.388 83.4969 219.416 83.5573 220.392 84.0826C221.822 84.8534 223.554 86.924 224.095 88.5106C224.368 89.3124 224.554 90.8422 224.554 92.286V94.7132H226.888H229.221V81.8799V69.0465H212.888H196.554V81.8799ZM143.604 74.4293C142.914 75.1188 142.888 75.29 142.888 79.0959V83.0465H145.221H147.554V80.7132V78.3799H163.888H180.221V91.2132V104.047H177.888H175.554V101.619C175.554 100.176 175.368 98.6458 175.095 97.844C174.554 96.2573 172.822 94.1868 171.392 93.4159C170.416 92.8906 170.388 92.8302 170.664 91.8298C171.086 90.3015 170.806 85.7141 170.222 84.6087C169.608 83.445 168.175 82.0068 166.992 81.3668C165.75 80.6943 162.04 80.6843 160.825 81.3502C159.667 81.9852 158.126 83.5249 157.541 84.6329C156.97 85.7144 156.695 90.3219 157.111 91.8298C157.387 92.8302 157.36 92.8906 156.384 93.4159C154.953 94.1868 153.221 96.2573 152.681 97.844C152.407 98.6458 152.221 100.176 152.221 101.619V104.047H149.888H147.554V95.734V87.4215H145.221H142.888V97.3513V107.281L143.604 107.997L144.32 108.713H163.888H183.456L184.172 107.997L184.888 107.281V91.2132V75.145L184.172 74.4293L183.456 73.7132H163.888H144.32L143.604 74.4293ZM241.604 74.4293L240.888 75.145V91.2132V107.281L241.604 107.997L242.32 108.713H261.888H281.456L282.172 107.997L282.888 107.281V91.2132V75.145L282.172 74.4293L281.456 73.7132H261.888H242.32L241.604 74.4293ZM211.827 76.3878C210.975 76.8002 210.554 77.8447 210.554 79.5465C210.554 81.3768 210.999 82.3352 212.051 82.7706C213.126 83.216 214.424 82.7272 214.892 81.7005C215.314 80.7748 215.317 78.3256 214.897 77.4048C214.582 76.7127 213.508 76.0264 212.801 76.0664C212.608 76.0772 212.17 76.2218 211.827 76.3878ZM245.554 91.2132V104.047H247.888H250.221V101.619C250.221 100.176 250.407 98.6458 250.681 97.844C251.221 96.2573 252.953 94.1868 254.384 93.4159C255.36 92.8906 255.387 92.8302 255.111 91.8298C254.695 90.3219 254.97 85.7144 255.541 84.6329C256.126 83.5249 257.667 81.9852 258.825 81.3502C260.04 80.6843 263.75 80.6943 264.992 81.3668C266.175 82.0068 267.608 83.445 268.222 84.6087C268.806 85.7141 269.086 90.3015 268.664 91.8298C268.388 92.8302 268.416 92.8906 269.392 93.4159C270.822 94.1868 272.554 96.2573 273.095 97.844C273.368 98.6458 273.554 100.176 273.554 101.619V104.047H275.888H278.221V91.2132V78.3799H261.888H245.554V91.2132ZM162.827 85.7211C161.975 86.1335 161.554 87.178 161.554 88.8799C161.554 90.7101 161.999 91.6685 163.051 92.104C164.126 92.5493 165.424 92.0605 165.892 91.0338C166.314 90.1081 166.317 87.659 165.897 86.7382C165.582 86.046 164.508 85.3598 163.801 85.3997C163.608 85.4105 163.17 85.5552 162.827 85.7211ZM260.827 85.7211C259.975 86.1335 259.554 87.178 259.554 88.8799C259.554 90.7101 259.999 91.6685 261.051 92.104C262.126 92.5493 263.424 92.0605 263.892 91.0338C264.314 90.1081 264.317 87.659 263.897 86.7382C263.582 86.046 262.508 85.3598 261.801 85.3997C261.608 85.4105 261.17 85.5552 260.827 85.7211ZM207.725 88.2849C206.37 89.1109 205.888 90.2583 205.888 92.657V94.7132H212.888H219.888L219.887 92.5986C219.886 91.016 219.742 90.249 219.316 89.5504C218.341 87.9515 217.499 87.7132 212.829 87.7144C209.207 87.7153 208.536 87.7902 207.725 88.2849ZM158.725 97.6182C157.37 98.4442 156.888 99.5916 156.888 101.99V104.047H163.888H170.888L170.887 101.932C170.886 100.349 170.742 99.5823 170.316 98.8838C169.341 97.2848 168.499 97.0465 163.829 97.0477C160.207 97.0486 159.536 97.1236 158.725 97.6182ZM256.725 97.6182C255.37 98.4442 254.888 99.5916 254.888 101.99V104.047H261.888H268.888L268.887 101.932C268.886 100.349 268.742 99.5823 268.316 98.8838C267.341 97.2848 266.499 97.0465 261.829 97.0477C258.207 97.0486 257.536 97.1236 256.725 97.6182ZM199.846 104.462C196.839 105.42 194.181 107.777 192.809 110.704C192.05 112.325 192.032 112.501 191.941 119.134L191.849 125.909L192.605 126.665L193.361 127.422L201.302 127.328C209.226 127.234 209.245 127.232 210.92 126.448C211.843 126.015 213.299 124.998 214.156 124.187L215.715 122.713H218.968H222.221L222.22 129.64C222.219 135.967 222.17 136.647 221.656 137.49C221.283 138.102 219.908 139.122 217.571 140.519C212.948 143.284 212.908 143.283 208.222 140.482C203.879 137.885 203.557 137.459 203.556 134.307L203.554 132.047H201.221H198.888L198.89 134.453C198.892 138.736 199.986 140.884 203.22 142.957L205.236 144.249L204.537 147.689C204.153 149.581 203.742 151.212 203.624 151.313C203.505 151.414 200.456 152.589 196.846 153.924C188.803 156.9 188.456 157.069 186.987 158.738C185.312 160.64 184.888 162.125 184.888 166.078V169.38H179.054H173.221V171.713V174.047H212.888H252.554V171.713V169.38H246.721H240.888V166.078C240.888 162.126 240.463 160.64 238.791 158.74C237.298 157.044 237.193 156.993 229.025 153.933C225.275 152.528 222.145 151.317 222.069 151.242C221.994 151.166 221.62 149.569 221.239 147.691L220.545 144.277L222.554 142.977C224.661 141.614 226.048 139.869 226.598 137.89C226.756 137.323 226.885 133.69 226.886 129.818L226.888 122.777L227.613 122.595C229.066 122.23 229.285 121.4 229.175 116.664C229.078 112.476 229.046 112.286 228.13 110.425C226.991 108.114 224.904 106.065 222.576 104.974L220.909 104.192L210.992 104.132C203.364 104.085 200.792 104.161 199.846 104.462ZM200.784 109.152C199.292 109.68 197.282 111.794 196.874 113.262C196.7 113.889 196.557 116.271 196.556 118.557L196.554 122.713L201.877 122.711C204.868 122.711 207.712 122.569 208.367 122.387C209.915 121.958 212.133 119.74 212.562 118.192C212.739 117.551 212.885 115.156 212.886 112.869L212.888 108.713L207.419 108.726C203.475 108.735 201.625 108.854 200.784 109.152ZM217.554 113.38V118.047H221.054H224.554L224.553 116.224C224.55 113.51 224.096 112.258 222.553 110.715C221.246 109.407 219.75 108.719 218.211 108.715C217.557 108.713 217.554 108.734 217.554 113.38ZM159.937 116.429L159.221 117.145V149.547V181.948L159.937 182.664L160.653 183.38H212.888H265.123L265.838 182.664L266.554 181.948V167.497V153.047H264.221H261.888V165.88V178.713H212.888H163.888V149.547V120.38H175.554H187.221V118.047V115.713H173.937H160.653L159.937 116.429ZM233.888 118.047V120.38H247.888H261.888V134.38V148.38H264.221H266.554V132.763V117.145L265.838 116.429L265.123 115.713H249.505H233.888V118.047ZM150.617 123.199C149.331 123.878 148.725 124.48 148.107 125.691C147.575 126.733 147.554 127.923 147.554 157.41V188.047H145.937C144.609 188.047 144.192 188.175 143.604 188.763C142.912 189.454 142.888 189.617 142.888 193.523C142.888 198.573 143.255 199.827 145.348 201.92C148.054 204.626 141.305 204.38 212.888 204.38C284.47 204.38 277.722 204.626 280.428 201.92C282.52 199.827 282.888 198.573 282.888 193.523C282.888 189.617 282.863 189.454 282.172 188.763C281.584 188.175 281.167 188.047 279.838 188.047H278.221V157.407C278.221 129.737 278.175 126.677 277.748 125.834C276.699 123.761 275.001 122.713 272.691 122.713H271.221V125.029V127.345L272.315 127.435L273.409 127.526L273.483 157.786L273.557 188.047H254.591H235.625L233.304 189.213L230.984 190.38H212.888H194.792L192.471 189.213L190.151 188.047H171.185H152.219L152.293 157.786L152.367 127.526L153.461 127.435L154.554 127.345V125.029V122.713L153.023 122.725C152.181 122.731 151.098 122.945 150.617 123.199ZM234.604 125.763L233.888 126.478V136.713V146.948L234.604 147.664L235.32 148.38H245.554H255.789L256.505 147.664L257.221 146.948V136.713V126.478L256.505 125.763L255.789 125.047H245.554H235.32L234.604 125.763ZM168.554 129.713V132.047L176.065 132.054L183.575 132.061L186.605 137.166C188.272 139.973 189.725 142.325 189.834 142.393C189.942 142.46 190.916 141.986 191.997 141.338C193.866 140.219 193.943 140.13 193.56 139.531C193.338 139.184 191.683 136.441 189.881 133.434C188.08 130.427 186.359 127.835 186.057 127.673C185.726 127.496 182.157 127.38 177.032 127.38H168.554V129.713ZM238.554 136.713V143.713H245.554H252.554V136.713V129.713H245.554H238.554V136.713ZM168.554 139.047V141.38H175.554H182.554V139.047V136.713H175.554H168.554V139.047ZM209.134 148.868C208.934 149.963 208.71 151.122 208.636 151.442C208.528 151.907 208.947 152.315 210.694 153.446L212.888 154.867L215.081 153.446C216.829 152.315 217.248 151.907 217.14 151.442C217.066 151.122 216.841 149.963 216.642 148.868L216.279 146.877L215.24 147.11C214.668 147.238 213.61 147.342 212.888 147.342C212.166 147.342 211.108 147.238 210.536 147.11L209.497 146.877L209.134 148.868ZM198.45 158.328C193.259 160.278 191.224 161.18 190.575 161.819C189.719 162.663 189.698 162.751 189.602 166.031L189.504 169.38H212.888H236.271L236.173 166.031C236.04 161.469 236.3 161.694 227.246 158.315L220.167 155.672L216.894 157.859C214.988 159.133 213.315 160.047 212.888 160.047C212.461 160.047 210.787 159.133 208.881 157.859C207.081 156.656 205.572 155.678 205.529 155.686C205.486 155.693 202.3 156.883 198.45 158.328ZM147.554 194.769C147.554 197.168 148.037 198.316 149.392 199.142C150.31 199.702 151.351 199.711 212.888 199.711C274.425 199.711 275.465 199.702 276.384 199.142C277.739 198.316 278.221 197.168 278.221 194.769V192.713H257.506H236.792L234.471 193.88L232.151 195.047H212.888H193.625L191.304 193.88L188.984 192.713H168.269H147.554V194.769Z" fill="white"/>
</g>
<path fill-rule="evenodd" clip-rule="evenodd" d="M91.7907 34.4351L97.1791 43.7681L102.568 34.435L91.7907 34.4351ZM96.2199 44.3219C96.6462 45.0603 97.7121 45.0603 98.1384 44.3219L103.527 34.9889C103.953 34.2504 103.42 33.3274 102.568 33.3274L91.7907 33.3274C90.938 33.3274 90.4051 34.2504 90.8314 34.9889L96.2199 44.3219Z" fill="#FD9B28"/>
<path fill-rule="evenodd" clip-rule="evenodd" d="M91.7907 17.8838L97.1791 27.2168L102.568 17.8838L91.7907 17.8838ZM96.2199 27.7706C96.6462 28.5091 97.7121 28.5091 98.1384 27.7706L103.527 18.4376C103.953 17.6992 103.42 16.7761 102.568 16.7761L91.7907 16.7761C90.938 16.7761 90.4051 17.6992 90.8314 18.4376L96.2199 27.7706Z" fill="#FD9B28"/>
<path d="M355.243 151.129L372.915 179.151L357.483 208.465L324.381 209.758L306.709 181.737L322.141 152.423L355.243 151.129Z" fill="#FD9B28" fill-opacity="0.17"/>
<path fill-rule="evenodd" clip-rule="evenodd" d="M345.658 224.044C343.779 224.422 341.948 223.205 341.57 221.326C341.191 219.446 342.408 217.616 344.288 217.237C346.167 216.859 347.998 218.076 348.376 219.955C348.755 221.835 347.538 223.665 345.658 224.044ZM345.882 225.154C343.389 225.656 340.962 224.042 340.46 221.549C339.958 219.057 341.572 216.629 344.064 216.127C346.557 215.625 348.984 217.239 349.486 219.732C349.988 222.224 348.375 224.652 345.882 225.154Z" fill="#FD9B28"/>
<path fill-rule="evenodd" clip-rule="evenodd" d="M6.47404 35.6693C4.59444 36.0478 2.7639 34.8309 2.3854 32.9513C2.0069 31.0717 3.22378 29.2412 5.10337 28.8627C6.98297 28.4842 8.81351 29.701 9.19201 31.5806C9.57051 33.4602 8.35363 35.2908 6.47404 35.6693ZM6.69757 36.7793C4.20492 37.2813 1.77731 35.6675 1.27536 33.1748C0.773406 30.6822 2.38719 28.2546 4.87984 27.7526C7.37249 27.2507 9.8001 28.8644 10.3021 31.3571C10.804 33.8498 9.19022 36.2774 6.69757 36.7793Z" fill="#FD9B28"/>
<path d="M59.6774 60.3761L67.5188 72.8102L60.6713 85.818L45.9824 86.3918L38.141 73.9578L44.9885 60.9499L59.6774 60.3761Z" fill="#FD9B28" fill-opacity="0.17"/>
<path fill-rule="evenodd" clip-rule="evenodd" d="M367.935 101.982L373.324 111.315L378.712 101.982L367.935 101.982ZM372.365 111.869C372.791 112.608 373.857 112.608 374.283 111.869L379.672 102.536C380.098 101.798 379.565 100.875 378.712 100.875L367.935 100.875C367.083 100.875 366.55 101.798 366.976 102.536L372.365 111.869Z" fill="#FD9B28"/>
<path fill-rule="evenodd" clip-rule="evenodd" d="M367.935 85.4311L373.324 94.7641L378.712 85.4311L367.935 85.4311ZM372.365 95.318C372.791 96.0564 373.857 96.0564 374.283 95.318L379.672 85.985C380.098 85.2465 379.565 84.3235 378.712 84.3235L367.935 84.3235C367.083 84.3235 366.55 85.2465 366.976 85.985L372.365 95.318Z" fill="#FD9B28"/>
<path fill-rule="evenodd" clip-rule="evenodd" d="M367.935 68.8799L373.324 78.2129L378.712 68.8799L367.935 68.8799ZM372.365 78.7667C372.791 79.5052 373.857 79.5052 374.283 78.7667L379.672 69.4337C380.098 68.6953 379.565 67.7722 378.712 67.7722L367.935 67.7722C367.083 67.7722 366.55 68.6953 366.976 69.4337L372.365 78.7667Z" fill="#FD9B28"/>
<path fill-rule="evenodd" clip-rule="evenodd" d="M367.935 52.3284L373.324 61.6614L378.712 52.3284L367.935 52.3284ZM372.365 62.2152C372.791 62.9537 373.857 62.9537 374.283 62.2152L379.672 52.8822C380.098 52.1437 379.565 51.2207 378.712 51.2207L367.935 51.2207C367.083 51.2207 366.55 52.1437 366.976 52.8822L372.365 62.2152Z" fill="#FD9B28"/>
<path fill-rule="evenodd" clip-rule="evenodd" d="M48.7865 122.103L31.2265 122.191L22.5228 137.443L31.379 152.606L48.9389 152.518L57.6427 137.267L48.7865 122.103ZM59.2405 137.259L49.5785 120.715L30.4207 120.812L20.925 137.451L30.587 153.994L49.7448 153.898L59.2405 137.259Z" fill="#FD9B28"/>
<path fill-rule="evenodd" clip-rule="evenodd" d="M76.4608 137.805L58.9009 137.893L50.1971 153.145L59.0533 168.308L76.6133 168.22L85.317 152.969L76.4608 137.805ZM86.9148 152.961L77.2528 136.418L58.095 136.514L48.5993 153.153L58.2613 169.696L77.4191 169.6L86.9148 152.961Z" fill="#FD9B28"/>
<path fill-rule="evenodd" clip-rule="evenodd" d="M49.0691 153.954L31.5091 154.042L22.8054 169.293L31.6616 184.457L49.2215 184.369L57.9253 169.117L49.0691 153.954ZM59.5231 169.109L49.8611 152.566L30.7033 152.662L21.2076 169.301L30.8696 185.844L50.0274 185.748L59.5231 169.109Z" fill="#FD9B28"/>
<defs>
<radialGradient id="paint0_radial_118_9664" cx="0" cy="0" r="1" gradientUnits="userSpaceOnUse" gradientTransform="translate(150.565 198.79) scale(229.271 330.792)">
<stop stop-color="#FDC800"/>
<stop offset="0.14" stop-color="#FDBB0B"/>
<stop offset="0.4" stop-color="#FDA91B"/>
<stop offset="0.68" stop-color="#FD9E25"/>
<stop offset="1" stop-color="#FD9B28"/>
</radialGradient>
<clipPath id="clip0_118_9664">
<rect width="142.276" height="98.499" fill="white" transform="translate(345.81 94.4573) rotate(163.152)"/>
</clipPath>
<clipPath id="clip1_118_9664">
<rect width="268" height="210" fill="white" transform="translate(68.4548 41.1003)"/>
</clipPath>
</defs>
</svg>
