<svg width="21" height="20" viewBox="0 0 21 20" fill="none" xmlns="http://www.w3.org/2000/svg">
<path d="M18.0153 0H2.45977C1.23199 0 0.237549 0.994444 0.237549 2.22222V17.7778C0.237549 19.0056 1.23199 20 2.45977 20H10.9275V12.2656H8.32422V9.23778H10.9275V7.01C10.9275 4.42778 12.5064 3.02 14.8109 3.02C15.5875 3.01778 16.3631 3.05778 17.1353 3.13667V5.83667H15.5487C14.2931 5.83667 14.0487 6.43 14.0487 7.30556V9.23333H17.0487L16.6587 12.2611H14.0309V20H18.0153C19.2431 20 20.2375 19.0056 20.2375 17.7778V2.22222C20.2375 0.994444 19.2431 0 18.0153 0Z" fill="currentColor"/>
</svg>
