<svg width="41" height="41" viewBox="0 0 41 41" fill="none" xmlns="http://www.w3.org/2000/svg">
<path d="M3.95635 0.612956C3.41983 0.887091 2.9926 1.33569 2.74495 1.88494C2.60366 2.68636 2.60366 3.50633 2.74495 4.30775C2.82455 4.50433 2.92614 4.69127 3.0478 4.865L3.26585 5.15574L2.75706 5.6403C2.06159 6.33809 1.50281 7.15983 1.10954 8.06312C0.709888 9.16358 0.544832 10.3355 0.62498 11.5035V12.9088L1.31548 13.2479L2.00599 13.5871L2.32095 16.5188C2.49055 18.1299 2.66015 19.523 2.68438 19.6321V19.8259H6.52454V19.6321C6.52454 19.5352 6.70625 18.1299 6.88796 16.5188L7.20293 13.5871L7.89343 13.2601L8.58394 12.9209V11.5035C8.60177 10.8024 8.55717 10.101 8.45068 9.40778C8.20477 8.03502 7.55035 6.76841 6.573 5.77356L5.94306 5.1194L6.149 4.84077C6.53517 4.34464 6.72493 3.72358 6.68202 3.09634C6.68202 2.01819 6.52454 1.71534 6.06421 1.1702C5.8083 0.877977 5.47096 0.668821 5.09542 0.56954C4.71988 0.47026 4.32325 0.485378 3.95635 0.612956ZM5.08296 2.04242C5.27679 2.22413 5.2889 2.29681 5.2889 3.04789C5.2889 3.79896 5.2889 3.85953 5.04662 4.10181C4.93402 4.22481 4.78577 4.30953 4.62263 4.34409C4.48538 4.30887 4.35996 4.23779 4.25921 4.13816C4.02904 3.90799 4.01692 3.85953 4.01692 3.08423C4.01692 2.30893 4.01692 2.27259 4.22286 2.07876C4.27973 2.01227 4.35032 1.95888 4.42979 1.92228C4.50925 1.88567 4.59571 1.86672 4.6832 1.86672C4.77069 1.86672 4.85714 1.88567 4.93661 1.92228C5.01608 1.95888 5.08667 2.01227 5.14353 2.07876L5.08296 2.04242ZM5.53119 6.64577C6.22787 7.27571 6.73895 8.08423 7.0091 8.98379C7.21091 9.59256 7.30119 10.2328 7.27561 10.8736V12.085L6.68202 12.4L6.02786 12.7392L5.74924 15.2589C5.59176 16.652 5.44639 17.9482 5.42216 18.142V18.5055H3.89578V18.142C3.89578 17.9482 3.72619 16.652 3.5687 15.2589L3.29008 12.7392L2.63592 12.4L1.98176 12.0729V10.8615C1.95373 10.2254 2.03989 9.58947 2.23615 8.98379C2.36495 8.56766 2.527 8.16255 2.72072 7.77238C3.23019 7.03851 3.87585 6.40929 4.62263 5.91893C4.9703 6.09916 5.27903 6.34615 5.53119 6.64577Z" fill="#FD9B28"/>
<path d="M35.9497 0.613006C35.4131 0.887141 34.9859 1.33574 34.7382 1.88498C34.597 2.68641 34.597 3.50638 34.7382 4.3078C34.8267 4.51873 34.9406 4.71807 35.0774 4.90139L35.2955 5.19213L34.7867 5.67669C34.0912 6.37448 33.5324 7.19622 33.1392 8.09951C32.733 9.19444 32.5597 10.3621 32.6304 11.5278V12.933L33.3209 13.2722L34.0114 13.6114L34.3264 16.543C34.496 18.1542 34.6656 19.5473 34.6898 19.6564V19.8502H38.4936V19.6564C38.4936 19.5594 38.6753 18.1542 38.857 16.543L39.172 13.6114L39.8625 13.2722L40.553 12.933V11.5036C40.5708 10.8024 40.5262 10.1011 40.4197 9.40783C40.1738 8.03507 39.5194 6.76846 38.5421 5.77361L37.9121 5.11945L38.1786 4.85294C38.5363 4.33695 38.6915 3.70738 38.6148 3.08428C38.6148 2.01824 38.5178 1.66693 38.0575 1.15814C37.8002 0.868008 37.4622 0.66118 37.0867 0.564079C36.7113 0.466977 36.3154 0.484012 35.9497 0.613006ZM37.0763 2.04247C37.2701 2.22418 37.2822 2.29686 37.2822 3.04794C37.2822 3.79901 37.2822 3.85958 37.0399 4.10186C36.9956 4.17455 36.9333 4.23461 36.859 4.27629C36.7848 4.31797 36.7011 4.33985 36.6159 4.33985C36.5308 4.33985 36.4471 4.31797 36.3728 4.27629C36.2986 4.23461 36.2363 4.17455 36.1919 4.10186C35.9618 3.8717 35.9497 3.82324 35.9497 3.04794C35.9497 2.27264 35.9497 2.23629 36.1556 2.04247C36.2125 1.97597 36.283 1.92259 36.3625 1.88598C36.442 1.84938 36.5284 1.83042 36.6159 1.83042C36.7034 1.83042 36.7899 1.84938 36.8693 1.88598C36.9488 1.92259 37.0194 1.97597 37.0763 2.04247ZM37.5245 6.64582C38.2212 7.27576 38.7322 8.08428 39.0024 8.98384C39.2042 9.59261 39.2945 10.2328 39.2689 10.8736V12.085L38.6148 12.4121L37.9606 12.7513L37.682 15.2711C37.5245 16.6642 37.3791 17.9604 37.3549 18.1542V18.5176H35.9012V18.1542C35.9012 17.9604 35.7316 16.6642 35.5741 15.2711L35.2955 12.7513L34.5444 12.4L33.8903 12.0729V10.8615C33.8933 10.2196 34.0123 9.58347 34.2416 8.98384C34.3745 8.59664 34.5365 8.22003 34.7261 7.85723C35.2295 7.10155 35.8756 6.45139 36.628 5.9432C36.9692 6.1176 37.2736 6.35616 37.5245 6.64582Z" fill="#FD9B28"/>
<path d="M18.8809 4.58639C15.8831 4.94756 13.042 6.12506 10.6676 7.99045L9.96494 8.54769C9.86803 8.63249 9.96494 8.71729 10.2799 9.1534L10.716 9.66219L11.3217 9.17763C13.3062 7.55558 15.6766 6.47469 18.2025 6.04008C19.8661 5.80701 21.5541 5.80701 23.2178 6.04008C25.6767 6.49909 27.9805 7.56976 29.9168 9.1534L30.5225 9.63796L30.9102 9.1534C31.2736 8.72941 31.3221 8.63249 31.2252 8.54769L30.5225 7.99045C27.2312 5.38728 23.0562 4.16652 18.8809 4.58639Z" fill="#FD9B28"/>
<path d="M18.5781 8.59624C18.5781 8.59624 18.3963 9.3352 18.2146 10.1105C18.0329 10.8858 17.8633 11.5279 17.8512 11.54C17.8391 11.5521 16.3248 12.1699 16.24 12.1699C15.7645 11.9441 15.3033 11.6892 14.859 11.4067L13.587 10.5951L12.1455 12.0124C11.6386 12.4727 11.1762 12.9797 10.7645 13.5267L11.5277 14.8108C11.8018 15.2264 12.0486 15.6594 12.2666 16.107C12.0865 16.6592 11.8762 17.2011 11.6367 17.7303C11.6367 17.7303 10.9462 17.9241 10.1345 18.1179L8.65662 18.4813V22.5274L10.1345 22.8909C10.9462 23.0847 11.6367 23.2543 11.6367 23.2785C11.8762 23.8077 12.0865 24.3496 12.2666 24.9018C12.0477 25.3411 11.8009 25.766 11.5277 26.1738L10.7402 27.4579C11.152 28.0049 11.6144 28.5119 12.1212 28.9721L13.5507 30.4016L14.859 29.5778C15.3026 29.287 15.7638 29.0241 16.24 28.7904C16.7876 28.9726 17.3253 29.1828 17.8512 29.4204C17.8512 29.4204 18.0329 30.1109 18.2389 30.9225L18.6023 32.4125H22.6605L23.0118 30.9346C23.2056 30.123 23.3752 29.4446 23.3873 29.4325C23.9212 29.1942 24.467 28.9839 25.0227 28.8025C25.4672 29.0327 25.8961 29.2917 26.3068 29.5778L27.5909 30.3653C28.1361 29.9513 28.6429 29.4891 29.1052 28.9843L30.5347 27.5548L29.6988 26.2586C29.4091 25.8185 29.1462 25.3614 28.9114 24.8897C28.9114 24.817 29.4686 23.3754 29.5413 23.2664C29.614 23.1574 30.2197 23.0847 31.0434 22.8788L32.5335 22.5274V18.4692L31.0434 18.1179C30.2318 17.912 29.5534 17.7545 29.5413 17.7303C29.5292 17.706 28.9114 16.1797 28.9114 16.107C29.1457 15.6312 29.4087 15.17 29.6988 14.726L30.4862 13.454L29.1052 12.0245C28.6429 11.5197 28.1361 11.0575 27.5909 10.6435L26.3068 11.4067C25.8912 11.6808 25.4582 11.9277 25.0106 12.1457C24.4549 11.9643 23.909 11.754 23.3752 11.5157C23.3752 11.5157 23.1935 10.8252 22.9997 10.0136L22.6484 8.53567H20.6374C19.0626 8.49933 18.6144 8.51145 18.5781 8.59624ZM21.8973 11.1523C21.9817 11.6229 22.1199 12.0822 22.3092 12.5212C23.6781 13.1027 25.0712 13.6599 25.1318 13.6599C25.1923 13.6599 26.6824 12.7756 27.3244 12.3637C27.4819 12.2547 27.5546 12.3637 28.1845 12.9331L28.8629 13.6115L28.1603 14.7381C27.9044 15.1289 27.6698 15.5333 27.4577 15.9495C27.4577 15.9495 27.7121 16.6885 28.027 17.4516L28.5964 18.8569L29.9411 19.184L31.2857 19.5232V21.4614L29.9411 21.8006L28.5964 22.1277L28.027 23.5208C27.7121 24.284 27.4577 24.9624 27.4577 25.0229C27.6698 25.4391 27.9044 25.8435 28.1603 26.2344L28.8629 27.361L28.1845 28.0394C27.5546 28.6693 27.4819 28.7177 27.3244 28.6087C26.646 28.1605 25.1923 27.3125 25.1197 27.3125C25.047 27.3125 24.4413 27.5669 23.7144 27.8576L22.3092 28.4512C22.1199 28.8902 21.9817 29.3496 21.8973 29.8201L21.5823 31.1406H19.6441L19.3049 29.7959L18.9778 28.4512L17.5847 27.9061C16.8215 27.5911 16.1552 27.3367 16.1068 27.3367C15.6904 27.5486 15.286 27.7831 14.8954 28.0394L13.7566 28.742L13.0783 28.0636C12.8393 27.8409 12.6204 27.5977 12.4241 27.3367L13.1267 26.1859C13.3791 25.7974 13.6057 25.3927 13.8051 24.9745C13.8051 24.9745 13.5507 24.2719 13.2357 23.4966L12.6664 22.0913L11.3217 21.7521L9.95282 21.4614V19.5232L11.2975 19.1961L12.6422 18.8569L13.2115 17.4638C13.5265 16.7006 13.7809 16.0343 13.7809 15.9858C13.569 15.5695 13.3345 15.1651 13.0783 14.7744L12.3756 13.6357L13.054 12.9573C13.2767 12.7184 13.5199 12.4995 13.7809 12.3032L14.9317 13.0058C15.3203 13.2581 15.7249 13.4847 16.1431 13.6842C16.1431 13.6842 16.8457 13.4298 17.621 13.1148L19.0263 12.5454L19.3534 11.2008L19.6925 9.85611H21.6308L21.8973 11.1523Z" fill="#FD9B28"/>
<path d="M19.4503 15.2833C18.6771 15.4605 17.9516 15.8036 17.3241 16.2889C16.6966 16.7742 16.1821 17.39 15.816 18.0937C15.4224 18.8407 15.2167 19.6722 15.2167 20.5165C15.2167 21.3608 15.4224 22.1924 15.816 22.9394C16.2554 23.8196 16.9313 24.5599 17.7679 25.0774C18.6046 25.5949 19.5689 25.869 20.5526 25.869C21.5364 25.869 22.5007 25.5949 23.3373 25.0774C24.174 24.5599 24.8499 23.8196 25.2893 22.9394C25.6981 22.1494 25.9014 21.2691 25.8802 20.3799C25.859 19.4906 25.6141 18.621 25.1681 17.8514C24.599 16.8833 23.743 16.1161 22.7186 15.6559C21.6941 15.1958 20.552 15.0656 19.4503 15.2833ZM21.5702 16.6158C22.3332 16.8075 23.0223 17.2206 23.5509 17.8032C24.0795 18.3858 24.4238 19.1117 24.5406 19.8896C24.6573 20.6676 24.5413 21.4626 24.207 22.1747C23.8728 22.8868 23.3353 23.4841 22.6622 23.8913C21.9892 24.2984 21.2107 24.4974 20.4248 24.463C19.639 24.4285 18.8808 24.1623 18.246 23.6979C17.6111 23.2334 17.1279 22.5915 16.8571 21.8529C16.5864 21.1143 16.5403 20.3121 16.7246 19.5474C16.9821 18.5164 17.6384 17.6298 18.5493 17.0824C19.4601 16.535 20.551 16.3715 21.5823 16.6279L21.5702 16.6158Z" fill="#FD9B28"/>
<path d="M3.95636 21.2675C3.41983 21.5416 2.9926 21.9902 2.74495 22.5394C2.60367 23.3409 2.60367 24.1608 2.74495 24.9623C2.83344 25.1732 2.94734 25.3725 3.08414 25.5559L3.3022 25.8466L2.7934 26.3312C2.09794 27.0289 1.53915 27.8507 1.14589 28.754C0.73723 29.8442 0.559837 31.0076 0.624983 32.1701V33.5754L1.31549 33.9146L2.00599 34.2538L2.32095 37.1854C2.49055 38.7965 2.66015 40.1897 2.68438 40.2987V40.4925H6.52454V40.2987C6.52454 40.2018 6.70625 38.7965 6.88797 37.1854L7.20293 34.2538L7.89344 33.9146L8.58394 33.5754V32.1701C8.60177 31.469 8.55717 30.7676 8.45068 30.0744C8.20477 28.7016 7.55035 27.435 6.573 26.4402L5.94307 25.786L6.14901 25.5074C6.53805 25.0081 6.72798 24.3822 6.68203 23.7509C6.68203 22.6848 6.58511 22.3335 6.12478 21.8247C5.86431 21.5204 5.51645 21.3037 5.12849 21.204C4.74053 21.1043 4.33128 21.1264 3.95636 21.2675ZM5.08297 22.6969C5.27679 22.8786 5.28891 22.9513 5.28891 23.7024C5.28891 24.4535 5.28891 24.514 5.04662 24.7563C4.93402 24.8793 4.78577 24.964 4.62263 24.9986C4.47844 24.9465 4.35229 24.8539 4.25921 24.7321C4.02904 24.5019 4.01693 24.4535 4.01693 23.6782C4.01693 22.9029 4.01693 22.8665 4.22287 22.6727C4.27973 22.6062 4.35032 22.5528 4.42979 22.5162C4.50926 22.4796 4.59571 22.4607 4.6832 22.4607C4.77069 22.4607 4.85715 22.4796 4.93661 22.5162C5.01608 22.5528 5.08667 22.6062 5.14354 22.6727L5.08297 22.6969ZM5.53119 27.3003C6.21872 27.9135 6.72911 28.7 7.00911 29.5777C7.21091 30.1865 7.3012 30.8267 7.27562 31.4675V32.6789L6.68203 33.0666L6.02787 33.4058L5.74924 35.9255C5.59176 37.3186 5.44639 38.6148 5.42216 38.8087V39.1721H3.89579V38.8087C3.89579 38.6148 3.72619 37.3186 3.56871 35.9255L3.29008 33.4058L2.63592 33.0666L1.98176 32.7395V31.5281C1.94484 30.8678 2.0311 30.2064 2.23616 29.5777C2.36908 29.1905 2.53106 28.8139 2.72072 28.4511C3.22778 27.7085 3.8736 27.0709 4.62263 26.5734C4.9703 26.7537 5.27904 27.0007 5.53119 27.3003Z" fill="#FD9B28"/>
<path d="M35.9497 21.2675C35.4131 21.5416 34.9859 21.9902 34.7382 22.5395C34.597 23.3409 34.597 24.1609 34.7382 24.9623C34.8267 25.1732 34.9406 25.3726 35.0774 25.5559L35.2955 25.8466L34.7867 26.3312C34.0912 27.029 33.5324 27.8507 33.1392 28.754C32.733 29.8489 32.5597 31.0166 32.6304 32.1823V33.5754L33.3209 33.9146L34.0114 34.2538L34.3264 37.1854C34.496 38.7966 34.6656 40.1897 34.6898 40.2987V40.4925H38.4936V40.2987C38.4936 40.2018 38.6753 38.7966 38.857 37.1854L39.172 34.2538L39.8625 33.9146L40.6015 33.5754V32.1702C40.6193 31.469 40.5747 30.7677 40.4682 30.0744C40.2223 28.7017 39.5679 27.4351 38.5905 26.4402L37.9606 25.786L38.1665 25.5074C38.5242 24.9914 38.6794 24.3619 38.6026 23.7388C38.6026 22.6727 38.5057 22.3214 38.0454 21.8126C37.789 21.5249 37.4531 21.3195 37.0801 21.2225C36.7071 21.1255 36.3138 21.1411 35.9497 21.2675ZM37.0763 22.6969C37.2701 22.8787 37.2822 22.9513 37.2822 23.7024C37.2822 24.4535 37.2822 24.5141 37.0399 24.7563C36.9956 24.829 36.9333 24.8891 36.859 24.9308C36.7848 24.9724 36.7011 24.9943 36.6159 24.9943C36.5308 24.9943 36.4471 24.9724 36.3728 24.9308C36.2986 24.8891 36.2363 24.829 36.1919 24.7563C35.9618 24.5262 35.9497 24.4777 35.9497 23.7024C35.9497 22.9271 35.9497 22.8908 36.1556 22.6969C36.2125 22.6305 36.283 22.5771 36.3625 22.5405C36.442 22.5039 36.5284 22.4849 36.6159 22.4849C36.7034 22.4849 36.7899 22.5039 36.8693 22.5405C36.9488 22.5771 37.0194 22.6305 37.0763 22.6969ZM37.5245 27.3003C38.212 27.9135 38.7224 28.7 39.0024 29.5778C39.2042 30.1865 39.2945 30.8267 39.2689 31.4675V32.679L38.6148 33.006L37.9606 33.3452L37.682 35.865C37.5245 37.2581 37.3791 38.5543 37.3549 38.7481V39.1115H35.9012V38.7481C35.9012 38.5543 35.7316 37.2581 35.5741 35.865L35.2955 33.3452L34.5444 33.0666L33.8903 32.7395V31.5281C33.8844 30.8618 34.0036 30.2002 34.2416 29.5778C34.3745 29.1905 34.5365 28.8139 34.7261 28.4511C35.2295 27.6955 35.8756 27.0453 36.628 26.5371C36.9746 26.7294 37.2794 26.9888 37.5245 27.3003Z" fill="#FD9B28"/>
<path d="M10.3163 31.831C10.1582 31.9872 10.0199 32.1622 9.90437 32.3519L10.5101 32.8607C12.3532 34.3544 14.5026 35.4239 16.8056 35.9934C19.1086 36.5629 21.5087 36.6183 23.8356 36.1558C26.6054 35.5586 29.1776 34.2662 31.31 32.4004C31.31 32.4004 31.1888 32.1097 30.9465 31.831L30.5104 31.3344L29.9047 31.8189C28.0728 33.323 25.9027 34.3592 23.5813 34.8383C21.26 35.3173 18.8569 35.2249 16.5792 34.5688C14.6687 34.0109 12.8892 33.0759 11.346 31.8189L10.7402 31.3344L10.3163 31.831Z" fill="#FD9B28"/>
</svg>
