<svg width="170" height="46" viewBox="0 0 170 46" fill="none" xmlns="http://www.w3.org/2000/svg">
<path d="M31.3989 45.2707C30.5314 44.8167 29.8095 44.1273 29.316 43.2816C28.8299 42.411 28.5747 41.4304 28.5747 40.4333C28.5747 39.4362 28.8299 38.4556 29.316 37.585C29.8095 36.7393 30.5314 36.0499 31.3989 35.5959C32.3089 35.1011 33.3313 34.85 34.367 34.8669C35.1357 34.8589 35.899 34.9967 36.6164 35.273C37.2706 35.5308 37.858 35.9331 38.3348 36.4499L37.5954 37.1893C37.1749 36.7637 36.6712 36.4294 36.1157 36.2072C35.5602 35.9851 34.9649 35.8798 34.367 35.8979C33.5407 35.8867 32.7259 36.0913 32.0029 36.4915C31.3097 36.8709 30.7335 37.4328 30.3366 38.1161C29.9427 38.823 29.7359 39.6188 29.7359 40.4281C29.7359 41.2373 29.9427 42.0332 30.3366 42.7401C30.7335 43.4234 31.3097 43.9852 32.0029 44.3647C32.7259 44.7648 33.5407 44.9695 34.367 44.9583C34.9669 44.9776 35.5643 44.8707 36.1204 44.6447C36.6765 44.4187 37.179 44.0785 37.5954 43.6461L38.3348 44.3855C37.8468 44.9133 37.2449 45.3229 36.5748 45.5831C35.8551 45.8653 35.0879 46.0067 34.3149 45.9997C33.2966 46.0095 32.2928 45.7585 31.3989 45.2707Z" fill="#1D1D1B"/>
<path d="M49.4885 45.8956L46.9891 42.386C46.6977 42.4021 46.4057 42.4021 46.1143 42.386H43.1775V45.854H42.0215V34.9607H46.1143C47.2973 34.903 48.4616 35.2727 49.3948 36.0021C49.7891 36.3396 50.1011 36.7628 50.3068 37.2393C50.5126 37.7158 50.6067 38.233 50.582 38.7515C50.6186 39.5232 50.3909 40.2844 49.9365 40.9092C49.482 41.5341 48.8281 41.9852 48.0826 42.1882L50.759 45.9373L49.4885 45.8956ZM48.572 40.6885C48.8432 40.4254 49.0588 40.1106 49.206 39.7627C49.3532 39.4147 49.4291 39.0408 49.4291 38.663C49.4291 38.2852 49.3532 37.9112 49.206 37.5633C49.0588 37.2153 48.8432 36.9005 48.572 36.6374C47.8503 36.1183 46.9699 35.8678 46.083 35.9292H43.1775V41.4488H46.083C46.9714 41.5099 47.8529 41.2554 48.572 40.7302V40.6885Z" fill="#1D1D1B"/>
<path d="M65.8908 34.9607V45.8957H64.7869V37.1477L60.4963 44.5001H59.9547L55.664 37.2102V45.9061H54.5393V34.9607H55.4974L60.2463 43.0734L64.9536 34.9607H65.8908Z" fill="#1D1D1B"/>
<path d="M76.6697 45.6041C76.0187 45.3997 75.4259 45.0427 74.9409 44.5627L75.3991 43.6775C75.8486 44.1059 76.3849 44.4326 76.9717 44.6356C77.6376 44.8844 78.3437 45.0079 79.0546 45.0001C79.8175 45.0518 80.5777 44.8662 81.2311 44.469C81.4589 44.3151 81.6448 44.107 81.7721 43.8634C81.8994 43.6198 81.964 43.3483 81.9601 43.0735C81.9686 42.8821 81.9379 42.691 81.8698 42.5119C81.8018 42.3328 81.6978 42.1695 81.5644 42.032C81.2853 41.7626 80.9514 41.5566 80.5854 41.428C80.0593 41.247 79.524 41.0941 78.9816 40.9698C78.3139 40.8087 77.6565 40.607 77.0134 40.3658C76.5281 40.1767 76.0957 39.8729 75.7532 39.4805C75.3867 39.0291 75.2011 38.4574 75.2325 37.8767C75.227 37.3414 75.3791 36.8162 75.6699 36.3667C76.0079 35.8973 76.4745 35.5356 77.0134 35.3253C77.7264 35.0338 78.4928 34.8954 79.2628 34.9191C79.883 34.9195 80.5 35.0072 81.0957 35.1795C81.648 35.3297 82.1721 35.5689 82.6475 35.8876L82.2725 36.7624C81.8199 36.4643 81.3248 36.2361 80.8041 36.0855C80.3072 35.9373 79.7918 35.8602 79.2732 35.8564C78.4918 35.8039 77.7152 36.0127 77.0654 36.45C76.8372 36.6107 76.6515 36.8246 76.5245 37.0732C76.3974 37.3218 76.3329 37.5976 76.3364 37.8767C76.3292 38.068 76.3605 38.2588 76.4284 38.4377C76.4964 38.6166 76.5997 38.78 76.7322 38.9182C77.0274 39.1981 77.384 39.405 77.7736 39.5222C78.1763 39.6611 78.7144 39.8138 79.3878 39.9804C80.0484 40.1345 80.6987 40.3293 81.3353 40.5636C81.8201 40.7486 82.2526 41.0489 82.5954 41.4384C82.9597 41.883 83.1453 42.4474 83.1161 43.0214C83.121 43.5582 82.9651 44.0841 82.6683 44.5315C82.3251 45.0045 81.8508 45.3666 81.304 45.5729C80.5853 45.8564 79.8165 45.991 79.0441 45.9686C78.2376 45.9843 77.4344 45.861 76.6697 45.6041Z" fill="#1D1D1B"/>
<path d="M90.3228 42.1153V45.8957H89.1772V42.1153L84.8032 34.9607H86.0425L89.7916 41.1051L93.5408 34.9607H94.6968L90.3228 42.1153Z" fill="#1D1D1B"/>
<path d="M98.1648 45.604C97.5138 45.3997 96.921 45.0426 96.436 44.5626L96.8943 43.6774C97.3437 44.1058 97.88 44.4325 98.4668 44.6355C99.1327 44.8843 99.8389 45.0079 100.55 45C101.324 45.0551 102.096 44.8657 102.757 44.4585C102.985 44.3046 103.171 44.0965 103.298 43.8529C103.426 43.6093 103.49 43.3378 103.486 43.063C103.495 42.8716 103.464 42.6805 103.396 42.5014C103.328 42.3223 103.224 42.159 103.091 42.0215C102.812 41.7521 102.478 41.5461 102.112 41.4175C101.586 41.2365 101.05 41.0836 100.508 40.9593C99.8402 40.7982 99.1829 40.5965 98.5397 40.3553C98.0544 40.1662 97.6221 39.8624 97.2796 39.47C96.913 39.0186 96.7274 38.4469 96.7589 37.8663C96.7534 37.3309 96.9055 36.8057 97.1963 36.3562C97.5343 35.8868 98.0008 35.5251 98.5397 35.3148C99.2528 35.0233 100.019 34.8849 100.789 34.9086C101.409 34.909 102.026 34.9967 102.622 35.169C103.174 35.3192 103.698 35.5584 104.174 35.8771L103.788 36.804C103.336 36.5059 102.841 36.2777 102.32 36.1271C101.823 35.9789 101.308 35.9018 100.789 35.898C100.026 35.8425 99.2662 36.0362 98.623 36.4499C98.3948 36.6106 98.2091 36.8245 98.0821 37.0731C97.955 37.3217 97.8905 37.5975 97.894 37.8767C97.8868 38.0679 97.9181 38.2587 97.9861 38.4376C98.054 38.6165 98.1573 38.7799 98.2898 38.9181C98.585 39.198 98.9416 39.4049 99.3312 39.5221C99.7339 39.661 100.272 39.8137 100.945 39.9803C101.606 40.1344 102.256 40.3292 102.893 40.5635C103.378 40.7486 103.81 41.0488 104.153 41.4383C104.517 41.8829 104.703 42.4473 104.674 43.0213C104.679 43.5581 104.523 44.084 104.226 44.5314C103.883 45.0044 103.408 45.3665 102.862 45.5728C102.143 45.8563 101.374 45.991 100.602 45.9685C99.7743 45.9915 98.9493 45.8681 98.1648 45.604Z" fill="#1D1D1B"/>
<path d="M110.276 35.9604H106.434V34.9189H115.275V35.9604H111.432V45.8956H110.276V35.9604Z" fill="#1D1D1B"/>
<path d="M126.065 44.8959V45.9373H118.337V34.9607H125.835V36.0021H119.493V39.8866H125.148V40.876H119.493V44.9375L126.065 44.8959Z" fill="#1D1D1B"/>
<path d="M141.363 34.9607V45.8957H140.249V37.1477L135.958 44.5001H135.385L131.095 37.2102V45.9061H129.991V34.9607H130.949L135.698 43.0734L140.405 34.9607H141.363Z" fill="#1D1D1B"/>
<path d="M0 0H2.93682V26.8583H0V0Z" fill="white"/>
<path d="M30.0763 23.9528V7.48787L21.8699 21.2139H20.3911L12.2263 7.59202V23.9528H9.10205V1.35388H11.7681L21.193 17.2356L30.4929 1.35388H33.1381V23.9528H30.0763Z" fill="#1D1D1B"/>
<path d="M54.9039 16.4335H41.0217C41.0963 17.1409 41.3105 17.8263 41.6519 18.4502C41.9934 19.0742 42.4553 19.6241 43.0109 20.0681C44.1973 20.9969 45.6704 21.483 47.1766 21.4428C48.1015 21.4769 49.0227 21.308 49.8755 20.9482C50.7282 20.5884 51.4919 20.0463 52.1129 19.36L53.8209 21.3595C53.0406 22.2755 52.0511 22.9899 50.9361 23.4423C49.541 23.9717 48.0521 24.2088 46.5616 24.1389C45.0711 24.069 43.6109 23.6937 42.2715 23.0362C40.9091 22.3307 39.7805 21.2455 39.0222 19.9119C38.2466 18.5334 37.8512 16.9736 37.8766 15.3921C37.854 13.8248 38.2379 12.2783 38.991 10.9036C39.7005 9.59721 40.761 8.51509 42.0528 7.77931C43.3972 7.02586 44.917 6.64142 46.458 6.66498C47.9894 6.63844 49.4999 7.02325 50.832 7.77931C52.1059 8.51764 53.1455 9.60059 53.8313 10.9036C54.5572 12.3195 54.9153 13.8953 54.8727 15.4859C54.9001 15.801 54.9105 16.1173 54.9039 16.4335ZM42.7818 10.6536C41.7716 11.5756 41.1436 12.8427 41.0217 14.2049H51.9984C51.8685 12.8509 51.2415 11.5931 50.2384 10.6745C49.1955 9.79415 47.8748 9.31124 46.51 9.31124C45.1453 9.31124 43.8246 9.79415 42.7818 10.6745V10.6536Z" fill="#1D1D1B"/>
<path d="M75.3679 12.4972H78.4922V21.3076C77.3306 22.2377 76.0064 22.9439 74.5869 23.3905C73.0888 23.8867 71.5202 24.1364 69.9421 24.1299C67.7929 24.1626 65.6709 23.6465 63.7769 22.6302C61.9855 21.6624 60.4942 20.2215 59.4654 18.4645C58.4113 16.6698 57.8708 14.6199 57.9032 12.5388C57.8743 10.4548 58.4144 8.40245 59.4654 6.60269C60.4901 4.83884 61.9869 3.39612 63.7873 2.43699C65.7115 1.4222 67.8608 0.909942 70.0358 0.947752C71.7194 0.923795 73.3919 1.22434 74.9618 1.83296C76.3982 2.4007 77.6846 3.29157 78.7213 4.43652L76.6593 6.58186C75.7962 5.73227 74.7723 5.06347 73.6475 4.61461C72.5227 4.16576 71.3196 3.94589 70.1087 3.96788C68.4946 3.94165 66.9002 4.32503 65.4744 5.08221C64.1349 5.80437 63.024 6.8865 62.2668 8.20648C61.482 9.5632 61.079 11.107 61.1004 12.6742C61.0815 14.2312 61.4846 15.7643 62.2668 17.1107C63.0309 18.4253 64.1401 19.5057 65.4744 20.2349C66.8871 20.9979 68.4721 21.3852 70.0775 21.3597C71.9444 21.403 73.7832 20.8999 75.3679 19.9121V12.4972Z" fill="#1D1D1B"/>
<path d="M95.811 8.42511C96.4767 9.10958 96.9891 9.92792 97.3141 10.8257C97.6391 11.7235 97.7693 12.6802 97.696 13.6322V23.9527H94.7696V21.6929C94.2317 22.5068 93.4629 23.1415 92.5617 23.5153C91.4819 23.9566 90.3224 24.1693 89.1563 24.1402C87.5078 24.2258 85.8807 23.7362 84.5532 22.7551C83.9981 22.3268 83.5521 21.7734 83.2517 21.1399C82.9512 20.5065 82.8048 19.8109 82.8244 19.1101C82.8007 18.4186 82.9368 17.7308 83.2222 17.1005C83.5076 16.4701 83.9346 15.914 84.4699 15.4755C85.5668 14.5591 87.3025 14.1009 89.677 14.1009H94.5821V13.5385C94.6355 12.9688 94.5645 12.3944 94.3739 11.8549C94.1833 11.3154 93.8777 10.8239 93.4782 10.4142C92.5082 9.64769 91.2844 9.27574 90.0519 9.3728C89.0416 9.37298 88.0385 9.54193 87.0839 9.87268C86.189 10.1657 85.3559 10.6212 84.6261 11.2161L83.3139 8.87292C84.2425 8.13515 85.3027 7.58032 86.4382 7.23788C87.7046 6.85652 89.021 6.66696 90.3435 6.67551C92.3229 6.53608 94.2803 7.16243 95.811 8.42511ZM92.6867 20.9222C93.5627 20.434 94.2515 19.6683 94.6446 18.7456V16.3399H89.8645C87.2401 16.3399 85.9279 17.2217 85.9279 18.9852C85.91 19.3922 85.9962 19.7972 86.1784 20.1617C86.3607 20.5261 86.6329 20.8381 86.9693 21.068C87.7924 21.6073 88.7676 21.8666 89.7499 21.8074C90.8153 21.8115 91.8609 21.5195 92.77 20.9639L92.6867 20.9222Z" fill="#1D1D1B"/>
<path d="M123.378 1.35388V23.9528H120.149V13.8822H107.173V23.9528H103.945V1.35388H107.173V11.0704H120.149V1.35388H123.378Z" fill="white"/>
<path d="M145.654 6.84229V23.9529H142.675V21.3702C142.049 22.2687 141.198 22.987 140.207 23.453C139.161 23.9434 138.019 24.1926 136.864 24.182C134.887 24.2938 132.947 23.6158 131.469 22.297C130.774 21.5438 130.243 20.6536 129.911 19.6834C129.579 18.7132 129.454 17.6844 129.543 16.6629V6.84229H132.667V16.3297C132.569 17.6901 132.998 19.0363 133.865 20.0892C134.314 20.5311 134.851 20.8727 135.442 21.0917C136.032 21.3107 136.663 21.4021 137.291 21.3597C138.005 21.3968 138.719 21.2833 139.386 21.0268C140.054 20.7702 140.66 20.3763 141.165 19.8705C142.163 18.7201 142.671 17.225 142.581 15.7048V6.84229H145.654Z" fill="#1D1D1B"/>
<path d="M165.087 7.77944C166.396 8.48535 167.479 9.5467 168.211 10.8412C168.974 12.2348 169.358 13.8039 169.325 15.3923C169.358 16.9872 168.974 18.5629 168.211 19.9641C167.49 21.2828 166.405 22.367 165.087 23.0884C163.721 23.8325 162.185 24.2093 160.629 24.1819C159.426 24.1979 158.234 23.9453 157.141 23.4425C156.098 22.9565 155.198 22.2106 154.527 21.2763V23.9528H151.559V0H154.683V9.42489C155.352 8.52177 156.241 7.80478 157.266 7.34204C158.335 6.8701 159.492 6.63219 160.661 6.64429C162.209 6.63553 163.734 7.02652 165.087 7.77944ZM163.327 20.6723C164.198 20.1816 164.919 19.4612 165.41 18.5894C165.925 17.6296 166.186 16.5543 166.17 15.4652C166.186 14.376 165.925 13.3007 165.41 12.3409C164.924 11.4655 164.202 10.7439 163.327 10.258C162.42 9.77305 161.408 9.51931 160.379 9.51931C159.351 9.51931 158.339 9.77305 157.432 10.258C156.552 10.7374 155.829 11.4606 155.349 12.3409C154.846 13.3042 154.592 14.3783 154.61 15.4652C154.592 16.552 154.846 17.6261 155.349 18.5894C155.833 19.4662 156.555 20.1883 157.432 20.6723C158.335 21.1701 159.349 21.4311 160.379 21.4311C161.41 21.4311 162.424 21.1701 163.327 20.6723Z" fill="#1D1D1B"/>
</svg>
