<svg width="100%" height="100%" viewBox="0 0 386 252" fill="none" xmlns="http://www.w3.org/2000/svg">
<g clip-path="url(#clip0_20_2534)">
<path d="M204.827 110.234C184.552 83.0758 208.96 46.3522 229.462 30.8797C231.409 29.3768 233.425 27.9339 235.504 26.6138C249.151 17.1427 264.774 25.7308 279.327 30.2218C290.116 33.5431 300.601 30.929 311.13 30.1682C323.6 29.2542 333.608 40.5337 332.343 55.3427C331.628 63.7335 329.557 71.3208 326.49 78.1882C324.942 81.6337 323.171 84.8989 321.191 87.9572C312.786 100.193 300.42 108.405 287.201 112.651C283.896 113.712 280.492 114.296 277.174 115.089C262.635 118.565 236.773 122.791 216.581 117.708C210.811 116.261 208.334 114.367 204.827 110.234Z" fill="#E44E1B"/>
<path d="M319.392 6.55426L322.845 12.0298L319.829 17.7581L313.361 18.0108L309.908 12.5352L312.923 6.80695L319.392 6.55426Z" fill="#FD9B28" fill-opacity="0.17"/>
</g>
<g clip-path="url(#clip1_20_2534)">
<path d="M332.643 97.21C354.368 165.154 290.315 225.006 244.908 243.91C240.577 245.773 236.155 247.472 231.686 248.881C201.913 259.774 178.436 232.596 154.652 214.44C137.014 200.996 116.684 199.851 97.2865 194.897C74.3074 189.057 62.4222 159.857 72.7876 130.421C78.6583 113.742 86.5333 99.5392 95.8119 87.4217C100.483 81.3474 105.458 75.7791 110.698 70.7622C132.531 50.9896 159.308 41.8745 185.456 41.3774C191.994 41.2552 198.45 42.167 204.864 42.5988C232.974 44.4905 281.905 51.8474 315.533 74.6963C325.144 81.2152 328.575 86.6093 332.643 97.21Z" fill="url(#paint0_radial_20_2534)"/>
<path fill-rule="evenodd" clip-rule="evenodd" d="M105.343 222.322L110.732 231.655L116.12 222.322L105.343 222.322ZM109.772 232.209C110.199 232.947 111.264 232.947 111.691 232.209L117.079 222.876C117.506 222.137 116.973 221.214 116.12 221.214L105.343 221.214C104.49 221.214 103.958 222.137 104.384 222.876L109.772 232.209Z" fill="#FD9B28"/>
<path fill-rule="evenodd" clip-rule="evenodd" d="M105.343 205.77L110.732 215.104L116.12 205.77L105.343 205.77ZM109.772 215.657C110.199 216.396 111.264 216.396 111.691 215.657L117.079 206.324C117.506 205.586 116.973 204.663 116.12 204.663L105.343 204.663C104.49 204.663 103.958 205.586 104.384 206.324L109.772 215.657Z" fill="#FD9B28"/>
</g>
<path fill-rule="evenodd" clip-rule="evenodd" d="M92.3475 34.7121L97.736 44.0452L103.124 34.7121L92.3475 34.7121ZM96.7767 44.599C97.203 45.3374 98.2689 45.3374 98.6952 44.599L104.084 35.266C104.51 34.5275 103.977 33.6045 103.124 33.6045L92.3475 33.6045C91.4949 33.6045 90.9619 34.5275 91.3883 35.266L96.7767 44.599Z" fill="#FD9B28"/>
<path fill-rule="evenodd" clip-rule="evenodd" d="M92.3475 18.1609L97.736 27.4939L103.124 18.1609L92.3475 18.1609ZM96.7767 28.0477C97.203 28.7862 98.2689 28.7862 98.6952 28.0477L104.084 18.7147C104.51 17.9763 103.977 17.0532 103.124 17.0532L92.3475 17.0532C91.4949 17.0532 90.9619 17.9763 91.3883 18.7147L96.7767 28.0477Z" fill="#FD9B28"/>
<path fill-rule="evenodd" clip-rule="evenodd" d="M188.29 58.3253C187.166 58.5723 185.002 59.3755 183.482 60.1101C181.119 61.2516 180.334 61.8317 178.072 64.1084C174.062 68.1436 172.199 72.243 171.879 77.7309C171.658 81.5121 172.298 84.6209 174.038 88.2213C175.175 90.5762 175.769 91.3814 178.045 93.6581C180.322 95.9348 181.127 96.5281 183.482 97.6659C189.846 100.74 196.522 100.627 202.888 97.3348C205.695 95.8832 209.808 91.7712 211.264 88.9605C213.135 85.3502 213.69 83.0422 213.69 78.888C213.69 75.8787 213.57 74.8543 213.007 73.0488C211.821 69.2516 210.469 67.035 207.569 64.1347C204.702 61.268 202.465 59.8923 198.801 58.7437C196.089 57.8935 191.15 57.697 188.29 58.3253ZM237.145 60.6052C235.154 61.3258 233.376 63.206 232.806 65.1936C232.65 65.7384 232.522 67.6689 232.522 69.4837C232.522 72.5977 232.562 72.8237 233.239 73.4999C234.187 74.4481 235.528 74.4481 236.476 73.4999C237.142 72.8348 237.193 72.5744 237.193 69.8644C237.193 66.6625 237.477 65.6882 238.553 65.198C239.549 64.7443 267.537 64.7443 268.533 65.198C268.924 65.3764 269.39 65.8424 269.568 66.2336C269.792 66.7241 269.892 71.3811 269.892 81.2236C269.892 91.0661 269.792 95.7232 269.568 96.2136C269.39 96.6049 268.924 97.0708 268.533 97.2492C267.537 97.7029 239.549 97.7029 238.553 97.2492C237.298 96.6773 237.193 95.9573 237.193 87.9115V80.3212L236.476 79.6047C235.522 78.6497 234.187 78.6564 233.222 79.6208L232.489 80.3536L232.579 88.8905C232.677 98.2979 232.668 98.2489 234.617 100.171C236.684 102.208 235.611 102.099 253.543 102.099C271.477 102.099 270.476 102.2 272.498 100.178C274.519 98.1569 274.418 99.1581 274.418 81.2236C274.418 63.2892 274.519 64.2903 272.498 62.2688C270.485 60.2566 271.408 60.3556 253.981 60.2835C241.49 60.2318 237.993 60.2987 237.145 60.6052ZM189.312 62.9762C176.822 65.8088 172.304 81.2563 181.295 90.3888C186.502 95.6776 195.3 96.6706 201.44 92.6626C206.424 89.4101 209.008 84.7064 209.008 78.888C209.008 73.0838 206.391 68.3021 201.477 65.1259C198.114 62.9523 193.226 62.0887 189.312 62.9762ZM186.525 70.262L185.808 70.9785V78.888V86.7974L186.525 87.5139C186.957 87.9454 187.566 88.2251 188.058 88.2166C188.507 88.2087 192.29 86.4678 196.465 84.3482C204.659 80.1872 204.968 79.9416 204.331 78.0851C204.097 77.4033 202.91 76.7003 196.465 73.4277C192.29 71.3081 188.507 69.5672 188.058 69.5593C187.566 69.5508 186.957 69.8305 186.525 70.262ZM253.5 69.9514C251.493 70.6682 249.705 72.5422 249.162 74.4966C249.004 75.0651 248.874 76.286 248.873 77.2092L248.871 78.888H247.253C245.304 78.888 244.2 79.7329 244.2 81.2236C244.2 82.7144 245.304 83.5593 247.253 83.5593H248.871V87.5139C248.871 91.3236 248.898 91.495 249.588 92.1852C250.04 92.6372 250.638 92.902 251.207 92.902C251.776 92.902 252.374 92.6372 252.826 92.1852C253.517 91.495 253.543 91.3236 253.543 87.5139V83.5593H255.162C257.11 83.5593 258.214 82.7144 258.214 81.2236C258.214 79.7329 257.11 78.888 255.162 78.888H253.543V77.5879C253.543 75.9555 253.988 74.9573 254.902 74.5407C255.294 74.3626 256.927 74.2166 258.533 74.2166C261.243 74.2166 261.504 74.1652 262.169 73.4999C262.621 73.0482 262.885 72.4497 262.885 71.881C262.885 71.3122 262.621 70.7137 262.169 70.262C261.487 69.5803 261.284 69.5459 258.008 69.5581C255.951 69.5657 254.136 69.724 253.5 69.9514ZM190.48 78.888V82.096L193.545 80.5714C195.231 79.7329 196.611 78.9753 196.611 78.888C196.611 78.8007 195.231 78.043 193.545 77.2045L190.48 75.6799V78.888ZM135.141 81.9404L134.424 82.6568V102.245V121.832L135.141 122.549L135.857 123.266H150.773H165.69L166.406 122.549L167.123 121.832V102.245V82.6568L166.406 81.9404L165.69 81.2236H150.773H135.857L135.141 81.9404ZM139.095 102.245V118.594H150.773H162.452V102.245V85.895H150.773H139.095V102.245ZM149.155 91.2831C148.703 91.7347 148.438 92.3332 148.438 92.902C148.438 93.4707 148.703 94.0692 149.155 94.5209C149.829 95.1956 150.06 95.2376 153.109 95.2376C156.158 95.2376 156.389 95.1956 157.064 94.5209C157.516 94.0692 157.78 93.4707 157.78 92.902C157.78 92.3332 157.516 91.7347 157.064 91.2831C156.389 90.6083 156.158 90.5663 153.109 90.5663C150.06 90.5663 149.829 90.6083 149.155 91.2831ZM221.931 95.6026C221.664 95.8034 219.734 98.2562 217.641 101.053C213.502 106.587 213.24 107.222 214.553 108.535C215.338 109.32 216.635 109.479 217.421 108.887C217.687 108.686 219.617 106.233 221.71 103.436C225.849 97.9026 226.112 97.2676 224.798 95.9544C224.013 95.169 222.717 95.0102 221.931 95.6026ZM144.483 100.626C144.031 101.077 143.766 101.676 143.766 102.245C143.766 102.813 144.031 103.412 144.483 103.864C145.194 104.574 145.245 104.58 150.773 104.58C156.302 104.58 156.353 104.574 157.064 103.864C157.516 103.412 157.78 102.813 157.78 102.245C157.78 101.676 157.516 101.077 157.064 100.626C156.353 99.9148 156.302 99.909 150.773 99.909C145.245 99.909 145.194 99.9148 144.483 100.626ZM226.659 110.721C223.862 112.814 221.409 114.744 221.208 115.01C220.616 115.796 220.775 117.092 221.56 117.878C222.872 119.19 223.495 118.931 229.21 114.695C232.103 112.551 234.557 110.57 234.664 110.292C235.04 109.312 234.849 108.341 234.141 107.633C232.827 106.319 232.192 106.581 226.659 110.721ZM144.483 109.968C144.031 110.42 143.766 111.019 143.766 111.587C143.766 112.156 144.031 112.755 144.483 113.206C145.194 113.917 145.245 113.923 150.773 113.923C156.302 113.923 156.353 113.917 157.064 113.206C157.516 112.755 157.78 112.156 157.78 111.587C157.78 111.019 157.516 110.42 157.064 109.968C156.353 109.257 156.302 109.252 150.773 109.252C145.245 109.252 145.194 109.257 144.483 109.968ZM187.52 123.047C171.009 136.646 170.699 136.883 165.663 139.76C159.864 143.072 158.423 144.244 157.275 146.581C156.595 147.966 156.463 148.62 156.443 150.694L156.419 153.159L154.704 154.197C151.706 156.012 150.346 158.851 151.024 161.88C151.763 165.184 154.511 167.41 157.848 167.41C159.312 167.41 159.985 167.226 161.647 166.374L163.666 165.337L164.832 166.182C167.778 168.317 171.507 168.495 174.993 166.669L176.999 165.618L178.676 168.602C181.84 174.231 182.637 175.3 184.364 176.238C189.055 178.786 194.609 175.472 194.609 170.125C194.609 168.291 194.21 167.323 191.549 162.693C190.491 160.854 189.666 159.31 189.713 159.261C189.762 159.214 197.672 156.218 207.293 152.604C225.39 145.806 226.099 145.479 226.099 143.927C226.099 143.208 214.377 122.705 213.525 121.934C212.651 121.143 211.243 121.269 210.433 122.211C210.057 122.648 209.749 123.331 209.749 123.728C209.749 124.133 212.058 128.441 215.008 133.538C217.9 138.536 220.232 142.66 220.19 142.702C220.148 142.743 211.574 145.978 201.136 149.889C182.627 156.826 182.04 157.069 177.351 159.768C171.418 163.181 170.723 163.449 169.023 162.973C168.327 162.778 167.427 162.271 167.025 161.846C165.819 160.575 161.226 152.407 161.069 151.255C160.879 149.864 161.396 148.361 162.386 147.425C163.238 146.619 170.636 142.243 171.147 142.243C171.315 142.243 172.676 144.378 174.171 146.987C177.402 152.625 178.131 153.483 179.47 153.225C180.64 152.999 181.429 152.079 181.429 150.941C181.429 150.366 180.373 148.235 178.328 144.683C176.623 141.721 175.276 139.255 175.335 139.204C178.07 136.849 204.301 115.383 204.444 115.383C204.559 115.383 204.892 115.827 205.185 116.37C205.731 117.384 206.703 118.01 207.732 118.01C208.629 118.01 209.749 116.717 209.749 115.681C209.749 114.654 207.351 110.321 206.422 109.671C204.982 108.662 204.992 108.655 187.52 123.047ZM234.582 122.235C229.65 123.271 228.521 123.601 228.085 124.139C226.86 125.652 227.997 127.937 229.974 127.937C231.82 127.937 242.563 125.622 243.324 125.06C244.313 124.33 244.445 122.78 243.609 121.717C242.768 120.648 241.902 120.698 234.582 122.235ZM142.148 130.989L141.431 131.706V156.682V181.657H138.644C136.074 181.657 135.801 181.713 135.141 182.374C134.456 183.058 134.424 183.256 134.424 186.723C134.424 189.526 134.556 190.778 135.003 192.21C136.08 195.661 139.105 198.686 142.556 199.764C144.359 200.326 145.319 200.343 176.466 200.343C207.612 200.343 208.572 200.326 210.375 199.764C213.826 198.686 216.852 195.661 217.929 192.21C218.376 190.778 218.508 189.526 218.508 186.723C218.508 183.256 218.475 183.058 217.791 182.374C217.13 181.713 216.857 181.657 214.288 181.657H211.501V169.872C211.501 158.392 211.485 158.068 210.896 157.318C210.041 156.232 208.289 156.232 207.435 157.318C206.845 158.068 206.829 158.392 206.829 169.872V181.657H176.466H146.102V158.301V134.944H156.295H166.487L167.243 134.046C167.659 133.552 167.999 132.905 167.999 132.608C167.999 132.312 167.659 131.665 167.243 131.171L166.487 130.273H154.676H142.864L142.148 130.989ZM237.145 133.011C234.929 133.813 232.978 136.102 232.663 138.269C232.568 138.929 232.53 146.301 232.579 154.651C232.677 171.444 232.577 170.565 234.617 172.577C236.684 174.614 235.611 174.504 253.543 174.504C271.477 174.504 270.476 174.606 272.498 172.584C274.172 170.91 274.393 170.185 274.512 165.979C274.619 162.172 274.612 162.117 273.875 161.381C272.899 160.405 271.569 160.393 270.609 161.353C269.944 162.018 269.892 162.279 269.892 164.989C269.892 168.19 269.609 169.165 268.533 169.655C268.042 169.878 263.385 169.979 253.543 169.979C243.7 169.979 239.043 169.878 238.553 169.655C238.162 169.477 237.696 169.011 237.517 168.619C237.294 168.129 237.193 163.472 237.193 153.629C237.193 143.787 237.294 139.13 237.517 138.639C237.696 138.248 238.162 137.782 238.553 137.604C239.549 137.15 267.537 137.15 268.533 137.604C269.788 138.176 269.892 138.896 269.892 146.941V154.532L270.609 155.248C271.564 156.203 272.899 156.197 273.863 155.232L274.596 154.499L274.507 145.962C274.409 136.579 274.411 136.587 272.498 134.674C270.485 132.662 271.408 132.761 253.981 132.689C241.49 132.638 237.993 132.704 237.145 133.011ZM250.674 144.702C245.465 146.4 242.785 152.46 245.015 157.5C245.777 159.223 247.925 161.378 249.69 162.19C251.629 163.081 255.457 163.081 257.396 162.19C259.151 161.382 261.296 159.238 262.103 157.482C262.995 155.543 262.995 151.715 262.103 149.777C261.288 148.006 259.136 145.864 257.396 145.092C255.665 144.325 252.411 144.136 250.674 144.702ZM251.488 149.615C250.086 150.322 248.871 152.185 248.871 153.629C248.871 155.074 250.086 156.937 251.488 157.644C252.204 158.005 253.129 158.301 253.543 158.301C253.957 158.301 254.881 158.005 255.598 157.644C257 156.937 258.214 155.074 258.214 153.629C258.214 152.185 257 150.322 255.598 149.615C254.881 149.253 253.957 148.958 253.543 148.958C253.129 148.958 252.204 149.253 251.488 149.615ZM157.136 158.17C155.296 159.373 154.943 160.745 156.162 161.963C156.556 162.357 157.218 162.68 157.633 162.68C158.59 162.68 160.704 161.616 160.689 161.141C160.673 160.639 158.848 157.631 158.502 157.538C158.346 157.496 157.731 157.78 157.136 158.17ZM182.82 162.18C181.899 162.696 181.143 163.203 181.141 163.307C181.136 163.553 185.606 171.281 186.092 171.867C186.641 172.528 188.597 172.445 189.312 171.731C190.333 170.71 190.043 169.685 187.499 165.327C186.181 163.068 184.966 161.225 184.799 161.232C184.632 161.238 183.741 161.665 182.82 162.18ZM139.156 188.445C139.309 190.787 139.991 192.424 141.331 193.667C142.949 195.168 143.975 195.493 147.489 195.618L150.773 195.734V194.084C150.773 192.721 150.898 192.309 151.49 191.717C151.942 191.265 152.54 191 153.109 191C154.6 191 155.445 192.104 155.445 194.052V195.671H176.466H197.487V194.052C197.487 192.104 198.332 191 199.822 191C200.391 191 200.99 191.265 201.441 191.717C202.033 192.309 202.158 192.721 202.158 194.084V195.734L205.443 195.618C208.956 195.493 209.983 195.168 211.601 193.667C212.94 192.424 213.622 190.787 213.775 188.445L213.913 186.329H176.466H139.018L139.156 188.445Z" fill="white"/>
<path d="M355.8 151.407L373.471 179.428L358.04 208.742L324.937 210.035L307.266 182.014L322.698 152.7L355.8 151.407Z" fill="#FD9B28" fill-opacity="0.17"/>
<path fill-rule="evenodd" clip-rule="evenodd" d="M346.215 224.321C344.336 224.699 342.505 223.483 342.126 221.603C341.748 219.723 342.965 217.893 344.844 217.514C346.724 217.136 348.555 218.353 348.933 220.232C349.312 222.112 348.095 223.942 346.215 224.321ZM346.439 225.431C343.946 225.933 341.518 224.319 341.016 221.826C340.514 219.334 342.128 216.906 344.621 216.404C347.114 215.902 349.541 217.516 350.043 220.009C350.545 222.501 348.931 224.929 346.439 225.431Z" fill="#FD9B28"/>
<path fill-rule="evenodd" clip-rule="evenodd" d="M7.03077 35.9464C5.15118 36.3249 3.32063 35.108 2.94213 33.2284C2.56363 31.3488 3.78051 29.5183 5.6601 29.1398C7.5397 28.7613 9.37025 29.9781 9.74875 31.8577C10.1272 33.7373 8.91037 35.5679 7.03077 35.9464ZM7.2543 37.0564C4.76165 37.5584 2.33404 35.9446 1.83209 33.4519C1.33014 30.9593 2.94392 28.5317 5.43657 28.0297C7.92923 27.5278 10.3568 29.1415 10.8588 31.6342C11.3607 34.1268 9.74696 36.5545 7.2543 37.0564Z" fill="#FD9B28"/>
<path d="M60.2342 60.6532L68.0756 73.0873L61.228 86.0951L46.5391 86.6689L38.6978 74.2349L45.5453 61.227L60.2342 60.6532Z" fill="#FD9B28" fill-opacity="0.17"/>
<path fill-rule="evenodd" clip-rule="evenodd" d="M368.492 102.26L373.881 111.593L379.269 102.26L368.492 102.26ZM372.921 112.146C373.348 112.885 374.414 112.885 374.84 112.146L380.228 102.813C380.655 102.075 380.122 101.152 379.269 101.152L368.492 101.152C367.64 101.152 367.107 102.075 367.533 102.813L372.921 112.146Z" fill="#FD9B28"/>
<path fill-rule="evenodd" clip-rule="evenodd" d="M368.492 85.7082L373.881 95.0412L379.269 85.7082L368.492 85.7082ZM372.921 95.5951C373.348 96.3335 374.414 96.3335 374.84 95.5951L380.228 86.2621C380.655 85.5236 380.122 84.6006 379.269 84.6006L368.492 84.6006C367.64 84.6006 367.107 85.5236 367.533 86.2621L372.921 95.5951Z" fill="#FD9B28"/>
<path fill-rule="evenodd" clip-rule="evenodd" d="M368.492 69.157L373.881 78.49L379.269 69.157L368.492 69.157ZM372.921 79.0438C373.348 79.7823 374.414 79.7823 374.84 79.0438L380.228 69.7108C380.655 68.9724 380.122 68.0493 379.269 68.0493L368.492 68.0493C367.64 68.0493 367.107 68.9724 367.533 69.7108L372.921 79.0438Z" fill="#FD9B28"/>
<path fill-rule="evenodd" clip-rule="evenodd" d="M368.492 52.6055L373.881 61.9385L379.269 52.6055L368.492 52.6055ZM372.921 62.4923C373.348 63.2308 374.414 63.2308 374.84 62.4923L380.228 53.1593C380.655 52.4208 380.122 51.4978 379.269 51.4978L368.492 51.4978C367.64 51.4978 367.107 52.4208 367.533 53.1593L372.921 62.4923Z" fill="#FD9B28"/>
<path fill-rule="evenodd" clip-rule="evenodd" d="M49.3433 122.38L31.7833 122.468L23.0796 137.72L31.9358 152.883L49.4957 152.795L58.1995 137.544L49.3433 122.38ZM59.7973 137.536L50.1353 120.993L30.9775 121.089L21.4818 137.728L31.1438 154.271L50.3016 154.175L59.7973 137.536Z" fill="#FD9B28"/>
<path fill-rule="evenodd" clip-rule="evenodd" d="M77.0175 138.082L59.4576 138.17L50.7538 153.422L59.61 168.585L77.17 168.497L85.8737 153.246L77.0175 138.082ZM87.4715 153.238L77.8095 136.695L58.6517 136.791L49.156 153.43L58.818 169.973L77.9758 169.877L87.4715 153.238Z" fill="#FD9B28"/>
<path fill-rule="evenodd" clip-rule="evenodd" d="M49.6259 154.231L32.0659 154.319L23.3622 169.57L32.2184 184.734L49.7783 184.646L58.4821 169.394L49.6259 154.231ZM60.0799 169.386L50.4179 152.843L31.2601 152.939L21.7644 169.578L31.4264 186.121L50.5842 186.025L60.0799 169.386Z" fill="#FD9B28"/>
<defs>
<radialGradient id="paint0_radial_20_2534" cx="0" cy="0" r="1" gradientUnits="userSpaceOnUse" gradientTransform="translate(151.122 199.067) scale(229.271 330.792)">
<stop stop-color="#FDC800"/>
<stop offset="0.14" stop-color="#FDBB0B"/>
<stop offset="0.4" stop-color="#FDA91B"/>
<stop offset="0.68" stop-color="#FD9E25"/>
<stop offset="1" stop-color="#FD9B28"/>
</radialGradient>
<clipPath id="clip0_20_2534">
<rect width="142.276" height="98.499" fill="white" transform="translate(346.367 94.7344) rotate(163.152)"/>
</clipPath>
<clipPath id="clip1_20_2534">
<rect width="268" height="210" fill="white" transform="translate(69.0115 41.3774)"/>
</clipPath>
</defs>
</svg>
