<svg width="170" height="49" viewBox="0 0 170 49" fill="none" xmlns="http://www.w3.org/2000/svg">
<path d="M31.549 47.613C30.6815 47.1435 29.9596 46.4306 29.4662 45.5561C28.98 44.6558 28.7248 43.6419 28.7248 42.6108C28.7248 41.5797 28.98 40.5658 29.4662 39.6655C29.9596 38.791 30.6815 38.0781 31.549 37.6087C32.459 37.0971 33.4814 36.8374 34.5171 36.8548C35.2858 36.8465 36.0491 36.9891 36.7665 37.2748C37.4207 37.5414 38.0081 37.9574 38.4849 38.4917L37.7455 39.2563C37.325 38.8163 36.8213 38.4706 36.2658 38.2408C35.7103 38.0111 35.115 37.9022 34.5171 37.921C33.6908 37.9094 32.876 38.121 32.153 38.5348C31.4598 38.9271 30.8836 39.5081 30.4868 40.2147C30.0928 40.9457 29.886 41.7686 29.886 42.6054C29.886 43.4422 30.0928 44.2652 30.4868 44.9961C30.8836 45.7028 31.4598 46.2837 32.153 46.6761C32.876 47.0899 33.6908 47.3014 34.5171 47.2899C35.117 47.3098 35.7144 47.1994 36.2705 46.9656C36.8266 46.7319 37.3291 46.3801 37.7455 45.933L38.4849 46.6976C37.9969 47.2434 37.395 47.6669 36.7249 47.936C36.0052 48.2278 35.238 48.3741 34.465 48.3668C33.4467 48.3769 32.4429 48.1174 31.549 47.613Z" fill="#1D1D1B"/>
<path d="M49.6386 48.2591L47.1392 44.63C46.8478 44.6466 46.5557 44.6466 46.2644 44.63H43.3275V48.2161H42.1716V36.9518H46.2644C47.4474 36.8922 48.6117 37.2744 49.5448 38.0287C49.9392 38.3777 50.2511 38.8153 50.4569 39.308C50.6627 39.8007 50.7568 40.3356 50.7321 40.8717C50.7687 41.6697 50.541 42.4568 50.0865 43.1029C49.6321 43.749 48.9781 44.2155 48.2327 44.4254L50.9091 48.3022L49.6386 48.2591ZM48.7221 42.8747C48.9933 42.6027 49.2089 42.2771 49.3561 41.9173C49.5033 41.5575 49.5791 41.1708 49.5791 40.7801C49.5791 40.3895 49.5033 40.0028 49.3561 39.643C49.2089 39.2832 48.9933 38.9576 48.7221 38.6856C48.0004 38.1488 47.12 37.8898 46.2331 37.9533H43.3275V43.6608H46.2331C47.1215 43.724 48.003 43.4609 48.7221 42.9178V42.8747Z" fill="#1D1D1B"/>
<path d="M66.041 36.9518V48.2591H64.9371V39.2132L60.6464 46.8161H60.1049L55.8142 39.2779V48.2699H54.6895V36.9518H55.6476L60.3965 45.3408L65.1037 36.9518H66.041Z" fill="#1D1D1B"/>
<path d="M76.8197 47.9576C76.1687 47.7463 75.576 47.3771 75.091 46.8808L75.5492 45.9654C75.9987 46.4084 76.535 46.7462 77.1218 46.9561C77.7877 47.2134 78.4938 47.3412 79.2046 47.333C79.9675 47.3865 80.7278 47.1946 81.3812 46.7838C81.609 46.6248 81.7949 46.4096 81.9222 46.1576C82.0494 45.9057 82.114 45.625 82.1102 45.3408C82.1186 45.1429 82.0879 44.9453 82.0199 44.7601C81.9518 44.5749 81.8479 44.4061 81.7144 44.2639C81.4353 43.9853 81.1014 43.7723 80.7355 43.6393C80.2094 43.4522 79.674 43.294 79.1317 43.1655C78.4639 42.9989 77.8066 42.7904 77.1634 42.5409C76.6781 42.3453 76.2458 42.0313 75.9033 41.6255C75.5367 41.1587 75.3511 40.5676 75.3826 39.9671C75.3771 39.4135 75.5292 38.8705 75.82 38.4056C76.158 37.9202 76.6245 37.5462 77.1634 37.3287C77.8765 37.0274 78.6429 36.8843 79.4129 36.9088C80.033 36.9092 80.6501 36.9998 81.2458 37.178C81.7981 37.3333 82.3222 37.5807 82.7975 37.9103L82.4226 38.8148C81.9699 38.5066 81.4749 38.2706 80.9542 38.1149C80.4572 37.9617 79.9419 37.8819 79.4233 37.878C78.6419 37.8237 77.8652 38.0396 77.2155 38.4918C76.9872 38.658 76.8015 38.8792 76.6745 39.1362C76.5475 39.3933 76.483 39.6785 76.4865 39.9671C76.4792 40.1649 76.5105 40.3622 76.5785 40.5472C76.6465 40.7322 76.7498 40.9011 76.8822 41.044C77.1774 41.3335 77.5341 41.5474 77.9236 41.6686C78.3263 41.8122 78.8644 41.9701 79.5379 42.1424C80.1984 42.3018 80.8488 42.5032 81.4853 42.7455C81.9701 42.9368 82.4026 43.2473 82.7454 43.6501C83.1098 44.1098 83.2954 44.6934 83.2662 45.287C83.2711 45.842 83.1151 46.3859 82.8183 46.8484C82.4752 47.3376 82.0009 47.712 81.4541 47.9253C80.7353 48.2185 79.9665 48.3577 79.1942 48.3346C78.3877 48.3507 77.5844 48.2232 76.8197 47.9576Z" fill="#1D1D1B"/>
<path d="M90.4728 44.35V48.2591H89.3273V44.35L84.9533 36.9518H86.1926L89.9417 43.3054L93.6908 36.9518H94.8468L90.4728 44.35Z" fill="#1D1D1B"/>
<path d="M98.3148 47.9576C97.6637 47.7463 97.071 47.377 96.586 46.8807L97.0442 45.9654C97.4937 46.4083 98.03 46.7462 98.6168 46.9561C99.2827 47.2134 99.9888 47.3411 100.7 47.333C101.474 47.39 102.246 47.1941 102.907 46.773C103.135 46.614 103.321 46.3988 103.448 46.1468C103.576 45.8949 103.64 45.6142 103.636 45.33C103.645 45.1321 103.614 44.9345 103.546 44.7493C103.478 44.5641 103.374 44.3953 103.241 44.2531C102.962 43.9745 102.628 43.7615 102.262 43.6285C101.736 43.4414 101.2 43.2832 100.658 43.1547C99.9902 42.9881 99.3329 42.7796 98.6897 42.5301C98.2044 42.3345 97.772 42.0205 97.4296 41.6147C97.063 41.1479 96.8774 40.5568 96.9088 39.9563C96.9033 39.4027 97.0554 38.8597 97.3462 38.3948C97.6843 37.9094 98.1508 37.5354 98.6897 37.3179C99.4028 37.0165 100.169 36.8735 100.939 36.898C101.559 36.8984 102.176 36.989 102.772 37.1672C103.324 37.3225 103.848 37.5698 104.324 37.8995L103.938 38.8579C103.486 38.5496 102.991 38.3136 102.47 38.1579C101.973 38.0047 101.458 37.9249 100.939 37.921C100.176 37.8636 99.4162 38.0639 98.773 38.4917C98.5447 38.6579 98.3591 38.8791 98.232 39.1362C98.105 39.3932 98.0405 39.6784 98.044 39.9671C98.0367 40.1649 98.068 40.3621 98.136 40.5471C98.204 40.7321 98.3073 40.9011 98.4397 41.044C98.7349 41.3334 99.0916 41.5474 99.4812 41.6686C99.8838 41.8122 100.422 41.9701 101.095 42.1424C101.756 42.3018 102.406 42.5032 103.043 42.7455C103.528 42.9368 103.96 43.2472 104.303 43.6501C104.667 44.1098 104.853 44.6933 104.824 45.2869C104.829 45.842 104.673 46.3859 104.376 46.8484C104.033 47.3376 103.558 47.712 103.012 47.9253C102.293 48.2185 101.524 48.3577 100.752 48.3345C99.9243 48.3582 99.0993 48.2306 98.3148 47.9576Z" fill="#1D1D1B"/>
<path d="M110.427 37.9856H106.584V36.9087H115.425V37.9856H111.582V48.2591H110.427V37.9856Z" fill="#1D1D1B"/>
<path d="M126.215 47.2253V48.3022H118.487V36.9518H125.985V38.0287H119.643V42.0455H125.298V43.0685H119.643V47.2684L126.215 47.2253Z" fill="#1D1D1B"/>
<path d="M141.513 36.9518V48.2591H140.399V39.2132L136.108 46.8161H135.535L131.245 39.2779V48.2699H130.141V36.9518H131.099L135.848 45.3408L140.555 36.9518H141.513Z" fill="#1D1D1B"/>
<path d="M0.150055 0.800537H3.08687V28.5735H0.150055V0.800537Z" fill="#FD9B28"/>
<path d="M30.2264 25.5691V8.54344L22.02 22.7369H20.5411L12.3764 8.65113V25.5691H9.25211V2.20056H11.9182L21.343 18.6231L30.643 2.20056H33.2882V25.5691H30.2264Z" fill="#1D1D1B"/>
<path d="M55.054 17.7937H41.1718C41.2463 18.5251 41.4605 19.2339 41.802 19.8791C42.1434 20.5243 42.6053 21.0929 43.1609 21.5521C44.3473 22.5125 45.8204 23.0151 47.3266 22.9736C48.2516 23.0088 49.1727 22.8342 50.0255 22.4621C50.8783 22.0901 51.642 21.5295 52.263 20.8198L53.9709 22.8874C53.1906 23.8346 52.2011 24.5734 51.0861 25.0412C49.6911 25.5885 48.2021 25.8337 46.7116 25.7615C45.2212 25.6892 43.7609 25.3011 42.4215 24.6212C41.0592 23.8917 39.9306 22.7696 39.1722 21.3905C38.3966 19.9651 38.0013 18.3522 38.0267 16.7168C38.0041 15.0961 38.388 13.497 39.141 12.0754C39.8505 10.7246 40.911 9.60561 42.2028 8.84476C43.5472 8.06566 45.067 7.66812 46.608 7.69249C48.1394 7.66504 49.65 8.06296 50.982 8.84476C52.2559 9.60824 53.2956 10.7281 53.9813 12.0754C54.7072 13.5396 55.0653 15.169 55.0227 16.8137C55.0501 17.1396 55.0605 17.4667 55.054 17.7937ZM42.9318 11.817C41.9216 12.7703 41.2936 14.0806 41.1718 15.4892H52.1484C52.0186 14.0891 51.3915 12.7884 50.3884 11.8385C49.3455 10.9282 48.0248 10.4289 46.6601 10.4289C45.2954 10.4289 43.9746 10.9282 42.9318 11.8385V11.817Z" fill="#1D1D1B"/>
<path d="M75.518 13.7233H78.6422V22.8338C77.4806 23.7955 76.1564 24.5258 74.7369 24.9876C73.2389 25.5007 71.6702 25.7589 70.0921 25.7521C67.9429 25.786 65.8209 25.2523 63.9269 24.2014C62.1355 23.2007 60.6442 21.7107 59.6154 19.8939C58.5613 18.0381 58.0209 15.9183 58.0533 13.7664C58.0243 11.6114 58.5644 9.48915 59.6154 7.62809C60.6401 5.80418 62.1369 4.31233 63.9373 3.32053C65.8615 2.27119 68.0108 1.74148 70.1859 1.78058C71.8694 1.75581 73.5419 2.06659 75.1118 2.69594C76.5482 3.28301 77.8346 4.20422 78.8713 5.38816L76.8093 7.60656C75.9463 6.72804 74.9223 6.03645 73.7975 5.57232C72.6727 5.10818 71.4696 4.88082 70.2588 4.90356C68.6446 4.87644 67.0502 5.27287 65.6244 6.05583C64.285 6.80259 63.174 7.92157 62.4168 9.2865C61.632 10.6894 61.229 12.2858 61.2504 13.9064C61.2315 15.5164 61.6346 17.1017 62.4168 18.4939C63.1809 19.8533 64.2902 20.9705 65.6244 21.7246C67.0371 22.5135 68.6221 22.914 70.2275 22.8876C72.0944 22.9324 73.9332 22.4122 75.518 21.3907V13.7233Z" fill="#1D1D1B"/>
<path d="M95.9611 9.51256C96.6269 10.2203 97.1393 11.0666 97.4643 11.9949C97.7893 12.9233 97.9194 13.9126 97.8461 14.897V25.569H94.9197V23.2321C94.3819 24.0738 93.613 24.7301 92.7119 25.1167C91.6321 25.5729 90.4726 25.7929 89.3064 25.7628C87.6579 25.8513 86.0309 25.3451 84.7033 24.3306C84.1482 23.8877 83.7023 23.3154 83.4018 22.6604C83.1014 22.0053 82.955 21.2861 82.9746 20.5614C82.9509 19.8463 83.087 19.1352 83.3724 18.4834C83.6578 17.8315 84.0847 17.2565 84.62 16.8031C85.717 15.8554 87.4527 15.3816 89.8271 15.3816H94.7323V14.8001C94.7857 14.211 94.7147 13.617 94.524 13.0592C94.3334 12.5013 94.0278 11.993 93.6284 11.5694C92.6583 10.7768 91.4346 10.3922 90.2021 10.4925C89.1918 10.4927 88.1886 10.6674 87.234 11.0094C86.3392 11.3125 85.506 11.7834 84.7762 12.3986L83.464 9.97562C84.3926 9.21273 85.4528 8.639 86.5883 8.28491C87.8547 7.89056 89.1711 7.69454 90.4937 7.70338C92.4731 7.55921 94.4304 8.20688 95.9611 9.51256ZM92.8369 22.4352C93.7129 21.9304 94.4017 21.1386 94.7947 20.1845V17.6969H90.0146C87.3902 17.6969 86.078 18.6087 86.078 20.4322C86.0601 20.8532 86.1463 21.2719 86.3286 21.6488C86.5108 22.0257 86.783 22.3482 87.1194 22.586C87.9426 23.1437 88.9178 23.4118 89.9 23.3506C90.9655 23.3549 92.0111 23.0529 92.9202 22.4783L92.8369 22.4352Z" fill="#1D1D1B"/>
<path d="M123.528 2.20056V25.5691H120.299V15.1555H107.323V25.5691H104.095V2.20056H107.323V12.2479H120.299V2.20056H123.528Z" fill="#FD9B28"/>
<path d="M145.804 7.87573V25.569H142.825V22.8983C142.199 23.8275 141.348 24.5703 140.357 25.0521C139.311 25.5592 138.169 25.8169 137.014 25.8059C135.037 25.9216 133.097 25.2204 131.62 23.8568C130.924 23.0779 130.393 22.1574 130.061 21.1542C129.729 20.1509 129.604 19.0871 129.693 18.0308V7.87573H132.817V17.6862C132.719 19.093 133.148 20.485 134.015 21.5738C134.464 22.0307 135.001 22.384 135.592 22.6104C136.182 22.8369 136.813 22.9314 137.441 22.8876C138.155 22.9259 138.869 22.8086 139.536 22.5433C140.204 22.278 140.81 21.8706 141.315 21.3476C142.313 20.1581 142.821 18.6121 142.732 17.0401V7.87573H145.804Z" fill="#1D1D1B"/>
<path d="M165.237 8.8449C166.546 9.57485 167.629 10.6723 168.361 12.011C169.124 13.452 169.508 15.0746 169.475 16.717C169.508 18.3662 169.124 19.9956 168.361 21.4445C167.64 22.8081 166.555 23.9292 165.237 24.6752C163.871 25.4446 162.335 25.8342 160.779 25.8059C159.576 25.8225 158.384 25.5613 157.291 25.0413C156.248 24.5388 155.348 23.7675 154.677 22.8014V25.569H151.709V0.800537H154.833V10.5464C155.502 9.61251 156.391 8.8711 157.416 8.39261C158.485 7.90459 159.642 7.65858 160.811 7.67109C162.359 7.66203 163.884 8.06634 165.237 8.8449ZM163.477 22.1768C164.348 21.6694 165.069 20.9245 165.56 20.023C166.075 19.0305 166.336 17.9186 166.32 16.7924C166.336 15.6661 166.075 14.5542 165.56 13.5617C165.074 12.6565 164.352 11.9103 163.477 11.4079C162.57 10.9064 161.558 10.644 160.529 10.644C159.501 10.644 158.489 10.9064 157.582 11.4079C156.702 11.9036 155.979 12.6514 155.499 13.5617C154.996 14.5578 154.742 15.6685 154.76 16.7924C154.742 17.9162 154.996 19.0269 155.499 20.023C155.983 20.9296 156.705 21.6763 157.582 22.1768C158.485 22.6915 159.499 22.9615 160.529 22.9615C161.56 22.9615 162.574 22.6915 163.477 22.1768Z" fill="#1D1D1B"/>
</svg>
