<svg width="75" height="71" viewBox="0 0 75 71" fill="none" xmlns="http://www.w3.org/2000/svg">
<g filter="url(#filter0_d_8_412)">
<path fill-rule="evenodd" clip-rule="evenodd" d="M16.2603 12.4154C14.8324 12.6569 13.4166 13.7478 12.7835 15.0941L12.4667 15.7678V35.267V54.7661L12.8141 55.473C13.2584 56.3774 14.2238 57.3399 15.0946 57.7466L15.7764 58.065L37.2303 58.097C56.7045 58.1261 58.7384 58.1115 59.2715 57.9389C60.6111 57.5054 61.7868 56.3549 62.254 55.0201C62.4554 54.4448 62.4667 53.394 62.4667 35.2081V16.0035L62.1921 15.3258C61.6774 14.0551 60.6908 13.1023 59.3292 12.5607C58.8317 12.3627 57.6335 12.3501 37.8213 12.3342C26.2817 12.3249 16.5792 12.3614 16.2603 12.4154ZM15.7403 14.3646C15.4024 14.5325 14.9649 14.8638 14.7681 15.101C14.1608 15.8329 14.0624 16.4046 14.0624 19.206V21.7177H37.4076H60.7527L60.7501 18.9784C60.7472 15.8942 60.6954 15.6512 59.8706 14.8527C58.9895 13.9998 60.682 14.0594 37.3506 14.0594H16.3547L15.7403 14.3646ZM19.1586 17.2111C19.0216 17.3246 18.8767 17.5861 18.8368 17.7924C18.7781 18.095 18.8228 18.226 19.0675 18.4699C19.8259 19.2258 20.9989 18.4293 20.5114 17.4895C20.238 16.9625 19.6141 16.8342 19.1586 17.2111ZM24.3732 17.0838C24.1182 17.186 23.8628 17.8056 23.9434 18.126C24.1135 18.8014 25.0877 19.009 25.5195 18.4618C25.8446 18.05 25.829 17.6475 25.4744 17.2942C25.1998 17.0204 24.7471 16.9339 24.3732 17.0838ZM29.3976 17.1522C29.0716 17.399 28.9622 17.8555 29.1324 18.259C29.2984 18.6523 29.506 18.7722 30.0209 18.7722C30.4168 18.7722 30.8473 18.3008 30.8473 17.8674C30.8473 17.2349 29.9036 16.7693 29.3976 17.1522ZM14.0624 38.6623C14.0624 55.7474 14.006 54.6571 14.9378 55.586C15.9085 56.5535 13.9903 56.4808 37.6488 56.4463L58.6842 56.4156L59.157 56.1608C59.417 56.0206 59.8 55.729 60.0079 55.5128C60.8044 54.6847 60.7527 55.8393 60.7527 38.8642V23.485H37.4076H14.0624V38.6623ZM18.1119 26.867C17.4757 26.9893 17.4903 26.7927 17.4903 35.1754C17.4903 42.7682 17.4952 42.9301 17.7267 43.1609C17.9584 43.3918 18.1195 43.3965 25.7941 43.3947C30.1012 43.3937 33.6836 43.354 33.7551 43.3064C34.141 43.0495 34.157 42.7185 34.1532 35.0686C34.1492 26.8326 34.1742 27.1546 33.519 26.9064C33.2056 26.7876 18.7177 26.7505 18.1119 26.867ZM37.4076 26.8677C36.7118 27.0396 36.5157 27.8733 37.0689 28.307C37.3783 28.5496 37.4459 28.5512 47.1031 28.5512C56.1909 28.5512 56.8417 28.5378 57.0703 28.3451C57.4697 28.0081 57.5054 27.5764 57.1664 27.1835L56.8726 26.8429L47.2583 26.826C41.9705 26.8168 37.5376 26.8356 37.4076 26.8677ZM19.1452 35.1491V41.747H19.4213C19.6585 41.747 19.7257 41.6459 19.8976 41.0293C20.1967 39.9569 20.6008 39.25 21.4032 38.395C23.676 35.9732 27.4657 35.8422 29.944 38.0998C30.8971 38.9681 31.446 39.9029 31.7915 41.2463C31.888 41.6216 31.9784 41.747 32.1521 41.747C32.3797 41.747 32.3839 41.6253 32.3839 35.1491V28.5512H25.7645H19.1452V35.1491ZM24.5026 29.3333C22.8872 29.9038 21.8849 31.942 22.3817 33.6456C23.1158 36.163 26.3826 37.0565 28.2495 35.2507C30.0549 33.5044 29.6274 30.6121 27.3999 29.5028C26.7832 29.1956 26.5447 29.1418 25.8343 29.1497C25.3734 29.1547 24.7741 29.2374 24.5026 29.3333ZM24.9192 31.0276C24.2437 31.3833 23.9534 31.9526 24.0149 32.8006C24.0588 33.4044 24.122 33.56 24.4679 33.9156C25.6544 35.1359 27.6558 34.3577 27.6558 32.6761C27.6558 31.2606 26.1728 30.3673 24.9192 31.0276ZM36.9415 32.2299C36.6805 32.6012 36.7127 33.0954 37.0162 33.3773C37.2681 33.6112 37.4062 33.6175 42.313 33.6175C47.2199 33.6175 47.3579 33.6112 47.6098 33.3773C47.9339 33.0763 47.9563 32.4372 47.6524 32.163C47.4582 31.9878 46.9121 31.968 42.2809 31.968H37.1254L36.9415 32.2299ZM24.2151 38.483C23.0299 38.9812 22.2891 39.6701 21.7903 40.7379C21.2779 41.8347 20.9262 41.747 25.8364 41.747H30.1637L30.0849 41.423C29.8097 40.2927 28.8043 39.1079 27.6837 38.5937C26.6946 38.1398 25.1489 38.0905 24.2151 38.483ZM17.7805 46.5134C17.4324 46.8603 17.409 47.2762 17.7163 47.6544L17.9422 47.9326L36.2447 47.9665C46.311 47.9851 54.7201 47.9694 54.9317 47.9316C55.7322 47.7884 56.0297 47.0433 55.498 46.5134L55.2079 46.2242H36.6393H18.0706L17.7805 46.5134ZM17.7805 51.5797C17.4324 51.9265 17.409 52.3424 17.7163 52.7206L17.9422 52.9988L36.4552 53.0293C52.8679 53.0564 55.0079 53.0395 55.3174 52.8799C55.9422 52.5579 55.9008 51.6525 55.25 51.4059C55.0558 51.3322 48.2617 51.2904 36.5079 51.2904H18.0706L17.7805 51.5797Z" fill="#FD9B28"/>
</g>
<defs>
<filter id="filter0_d_8_412" x="0.466675" y="0.332764" width="74" height="69.776" filterUnits="userSpaceOnUse" color-interpolation-filters="sRGB">
<feFlood flood-opacity="0" result="BackgroundImageFix"/>
<feColorMatrix in="SourceAlpha" type="matrix" values="0 0 0 0 0 0 0 0 0 0 0 0 0 0 0 0 0 0 127 0" result="hardAlpha"/>
<feOffset/>
<feGaussianBlur stdDeviation="6"/>
<feComposite in2="hardAlpha" operator="out"/>
<feColorMatrix type="matrix" values="0 0 0 0 0.992157 0 0 0 0 0.607843 0 0 0 0 0.156863 0 0 0 0.31 0"/>
<feBlend mode="normal" in2="BackgroundImageFix" result="effect1_dropShadow_8_412"/>
<feBlend mode="normal" in="SourceGraphic" in2="effect1_dropShadow_8_412" result="shape"/>
</filter>
</defs>
</svg>
