<svg width="21" height="21" viewBox="0 0 21 21" fill="none" xmlns="http://www.w3.org/2000/svg">
<path d="M8.64692 12.3202C9.87286 13.6334 11.3562 14.6473 12.9928 15.2906L15.2068 13.4302C15.2725 13.3825 15.3503 13.357 15.43 13.357C15.5097 13.357 15.5875 13.3825 15.6532 13.4302L19.7641 16.227C19.9202 16.3261 20.0523 16.4621 20.15 16.6244C20.2478 16.7866 20.3084 16.9707 20.3272 17.1619C20.346 17.3532 20.3224 17.5464 20.2584 17.7264C20.1943 17.9064 20.0914 18.0682 19.9579 18.199L18.0317 20.2082C17.7558 20.496 17.4167 20.7073 17.0448 20.823C16.6728 20.9388 16.2794 20.9556 15.8998 20.8718C12.1132 20.0459 8.62292 18.1119 5.82797 15.2906C3.09505 12.4413 1.20388 8.8158 0.383876 4.85391C0.30287 4.45929 0.319778 4.04926 0.432959 3.66357C0.54614 3.27787 0.751758 2.92959 1.02989 2.65247L3.02664 0.618457C3.1502 0.484378 3.30089 0.381553 3.46742 0.317682C3.63395 0.253811 3.81201 0.230549 3.98826 0.249637C4.16451 0.268725 4.33439 0.329668 4.48517 0.427905C4.63596 0.526141 4.76374 0.659124 4.85896 0.816897L7.59568 5.10196C7.64289 5.16925 7.66837 5.25077 7.66837 5.33451C7.66837 5.41825 7.64289 5.49977 7.59568 5.56706L5.79273 7.85532C6.41853 9.54885 7.3935 11.074 8.64692 12.3202Z" fill="black"/>
</svg>
