<svg width="100%" height="100%" viewBox="0 0 385 252" fill="none" xmlns="http://www.w3.org/2000/svg">
<g clip-path="url(#clip0_118_9699)">
<path d="M204.27 110.125C183.995 82.9672 208.403 46.2436 228.905 30.7711C230.852 29.2682 232.868 27.8253 234.947 26.5052C248.594 17.034 264.217 25.6221 278.77 30.1131C289.559 33.4345 300.044 30.8204 310.574 30.0595C323.043 29.1455 333.051 40.4251 331.786 55.2341C331.071 63.6249 329 71.2122 325.933 78.0795C324.386 81.525 322.615 84.7902 320.635 87.8485C312.229 100.084 299.863 108.296 286.645 112.542C283.339 113.603 279.935 114.187 276.618 114.98C262.078 118.456 236.216 122.682 216.024 117.599C210.254 116.152 207.778 114.258 204.27 110.125Z" fill="#E44E1B"/>
<path d="M318.835 6.44562L322.288 11.9212L319.273 17.6495L312.804 17.9022L309.351 12.4266L312.366 6.6983L318.835 6.44562Z" fill="#FD9B28" fill-opacity="0.17"/>
</g>
<g clip-path="url(#clip1_118_9699)">
<path d="M332.086 97.1013C353.811 165.046 289.758 224.898 244.351 243.801C240.02 245.664 235.598 247.363 231.129 248.772C201.356 259.665 177.879 232.487 154.095 214.331C136.457 200.887 116.128 199.742 96.7298 194.788C73.7507 188.948 61.8655 159.748 72.2309 130.312C78.1016 113.633 85.9766 99.4305 95.2552 87.313C99.9261 81.2388 104.902 75.6705 110.141 70.6536C131.974 50.8809 158.751 41.7658 184.9 41.2687C191.438 41.1466 197.893 42.0584 204.307 42.4901C232.417 44.3819 281.348 51.7388 314.976 74.5876C324.587 81.1066 328.019 86.5006 332.086 97.1013Z" fill="url(#paint0_radial_118_9699)"/>
<path fill-rule="evenodd" clip-rule="evenodd" d="M104.786 222.213L110.175 231.546L115.563 222.213L104.786 222.213ZM109.216 232.1C109.642 232.838 110.708 232.838 111.134 232.1L116.523 222.767C116.949 222.029 116.416 221.105 115.563 221.105L104.786 221.105C103.934 221.105 103.401 222.029 103.827 222.767L109.216 232.1Z" fill="#FD9B28"/>
<path fill-rule="evenodd" clip-rule="evenodd" d="M104.786 205.662L110.175 214.995L115.563 205.662L104.786 205.662ZM109.216 215.549C109.642 216.287 110.708 216.287 111.134 215.549L116.523 206.216C116.949 205.477 116.416 204.554 115.563 204.554L104.786 204.554C103.934 204.554 103.401 205.477 103.827 206.216L109.216 215.549Z" fill="#FD9B28"/>
<path fill-rule="evenodd" clip-rule="evenodd" d="M173.735 64.9656L173.041 65.6597V81.9353V98.2107H171.909H170.778V89.8545V81.4981L170.084 80.804C169.395 80.1153 169.346 80.1097 163.99 80.1097C158.635 80.1097 158.585 80.1153 157.897 80.804L157.202 81.4981V89.8398V98.1815L148.081 98.2669C139.058 98.3512 138.945 98.3594 137.553 99.0444C135.759 99.9272 134.03 101.656 133.147 103.45L132.455 104.857V141.201V177.544L133.147 178.951C134.03 180.745 135.759 182.474 137.553 183.357L138.96 184.049L163.472 184.126L187.984 184.203L186.498 188.651L185.013 193.1L180.698 193.241C175.277 193.419 175.303 193.399 175.303 197.373V200.029H163.553H151.803L151.109 200.723C150.19 201.642 150.19 202.941 151.109 203.86L151.803 204.554H202.455H253.107L253.801 203.86C254.72 202.941 254.72 201.642 253.801 200.723L253.107 200.029H241.356H229.606V197.373C229.606 193.399 229.632 193.419 224.212 193.241L219.897 193.1L218.411 188.651L216.926 184.203L241.438 184.126L265.95 184.049L267.357 183.357C269.151 182.474 270.88 180.745 271.762 178.951L272.455 177.544V141.201V104.857L271.762 103.45C271.382 102.677 270.516 101.489 269.838 100.812C268.057 99.0306 266.476 98.4115 263.336 98.2653L260.723 98.1434L261.536 97.1164C262.819 95.4949 264.292 92.5996 265.009 90.2915C265.55 88.5484 265.667 87.5401 265.667 84.6349C265.667 80.6168 265.132 78.3898 263.322 74.8773C261.833 71.9871 257.936 68.1599 254.884 66.5919C243.525 60.754 230.109 66.3136 226.018 78.5541C225.36 80.5237 225.259 81.2927 225.242 84.4935C225.226 87.5837 225.327 88.5088 225.881 90.2915C226.602 92.6166 228.072 95.4972 229.38 97.1501L230.22 98.2107H216.337H202.455V86.4606V74.7102L201.76 74.0161C201.072 73.3274 201.023 73.3218 195.667 73.3218C190.311 73.3218 190.262 73.3274 189.573 74.0161L188.879 74.7102V86.4606V98.2107H187.748H186.616V81.9353V65.6597L185.922 64.9656C185.234 64.2769 185.184 64.2713 179.829 64.2713C174.473 64.2713 174.423 64.2769 173.735 64.9656ZM177.566 94.8167V120.837H179.829H182.091V94.8167V68.7965H179.829H177.566V94.8167ZM240.478 69.6549C235.932 71.0965 231.842 75.2691 230.38 79.9564C229.113 84.0178 229.736 89.2982 231.88 92.6701L232.762 94.059L237.972 88.8547L243.182 83.6507V76.365C243.182 68.0589 243.446 68.7137 240.478 69.6549ZM247.707 75.7258V82.3723H254.354C259.85 82.3723 261 82.3041 261 81.9777C261 80.9522 259.766 77.7775 258.782 76.2711C257.394 74.1468 255.933 72.6854 253.809 71.2976C252.302 70.3133 249.127 69.0794 248.102 69.0794C247.776 69.0794 247.707 70.2296 247.707 75.7258ZM193.404 99.342V120.837H195.667H197.93V99.342V77.847H195.667H193.404V99.342ZM161.728 102.736V120.837H163.99H166.253V102.736V84.6349H163.99H161.728V102.736ZM241.225 92.1072L236.021 97.3172L237.41 98.1999C242.053 101.152 249.058 101.055 253.827 97.9722C255.991 96.5734 257.381 95.1836 258.776 93.0253C259.767 91.4932 261 88.3131 261 87.2921C261 86.9648 259.758 86.8975 253.715 86.8975H246.429L241.225 92.1072ZM139.373 103.372C138.451 103.837 137.94 104.349 137.475 105.271L136.839 106.533V136.311V166.089H202.455H268.071V136.311V106.533L267.435 105.271C266.969 104.347 266.456 103.835 265.526 103.364C264.317 102.75 264.004 102.723 259.303 102.822C254.49 102.923 254.284 102.952 251.808 103.882C249.377 104.795 249.093 104.838 245.445 104.838C241.785 104.838 241.521 104.798 239.081 103.873L236.536 102.908L219.495 102.817L202.455 102.727V111.782V120.837H203.586H204.717V113.612V106.387L205.412 105.693C206.1 105.004 206.15 104.999 211.505 104.999C216.861 104.999 216.91 105.004 217.599 105.693L218.293 106.387V115.18V123.974L217.599 124.668L216.905 125.362H179.829H142.752L142.058 124.668L141.364 123.974V115.18V106.387L142.058 105.693C142.747 105.004 142.796 104.999 148.152 104.999C153.507 104.999 153.557 105.004 154.245 105.693L154.94 106.387V113.612V120.837H156.071H157.202V111.786V102.736H148.919C140.891 102.736 140.596 102.755 139.373 103.372ZM170.778 111.786V120.837H171.909H173.041V111.786V102.736H171.909H170.778V111.786ZM186.616 111.786V120.837H187.748H188.879V111.786V102.736H187.748H186.616V111.786ZM230.251 112.431C225.657 117.025 225.081 117.704 225.081 118.525C225.081 119.758 226.155 120.837 227.382 120.837C228.183 120.837 228.855 120.281 232.85 116.312L237.406 111.786H247.519H257.632L258.326 111.092C258.764 110.655 259.02 110.075 259.02 109.524C259.02 108.973 258.764 108.393 258.326 107.956L257.632 107.261H246.527H235.421L230.251 112.431ZM145.889 115.18V120.837H148.152H150.414V115.18V109.524H148.152H145.889V115.18ZM209.243 115.18V120.837H211.505H213.768V115.18V109.524H211.505H209.243V115.18ZM142.058 128.319C141.62 128.757 141.364 129.336 141.364 129.887C141.364 130.438 141.62 131.018 142.058 131.456L142.752 132.15H156.071H169.39L170.084 131.456C171.002 130.537 171.002 129.237 170.084 128.319L169.39 127.625H156.071H142.752L142.058 128.319ZM173.735 128.319C173.297 128.757 173.041 129.336 173.041 129.887C173.041 130.438 173.297 131.018 173.735 131.456C174.341 132.062 174.683 132.15 176.435 132.15C178.187 132.15 178.528 132.062 179.134 131.456C179.572 131.018 179.829 130.438 179.829 129.887C179.829 129.336 179.572 128.757 179.134 128.319C178.528 127.712 178.187 127.625 176.435 127.625C174.683 127.625 174.341 127.712 173.735 128.319ZM218.251 130.281C216.363 130.955 214.791 132.54 214.193 134.371C213.896 135.278 212.444 136.467 202.145 144.235C195.704 149.093 190.321 153.07 190.183 153.073C190.045 153.077 189.389 152.578 188.724 151.966C187.302 150.655 185.649 150.129 183.608 150.338C181.559 150.547 179.876 151.563 178.631 153.341C178.247 153.889 177.893 153.763 166.572 149.038L154.909 144.17L154.402 143.033C153.817 141.723 152.438 140.252 151.187 139.606C149.834 138.906 147.244 138.776 145.781 139.334C144.386 139.867 142.725 141.35 142.04 142.674C141.333 144.042 141.199 146.627 141.76 148.096C142.292 149.487 143.758 151.132 145.125 151.871C146.341 152.529 149.932 152.546 151.122 151.9C152.101 151.368 153.206 150.384 153.834 149.484L154.27 148.859L165.933 153.727L177.596 158.594L178.104 159.732C178.383 160.358 179.026 161.284 179.533 161.791C181.046 163.304 181.994 163.674 184.354 163.674C186.753 163.674 187.712 163.287 189.262 161.691C190.14 160.787 190.477 160.188 190.96 158.678C191.084 158.289 212.156 142.212 214.284 140.883C214.821 140.548 214.974 140.604 215.792 141.441C217.013 142.69 218.069 143.198 219.81 143.377C221.935 143.594 223.515 143.063 225.073 141.605C225.81 140.916 226.503 140.352 226.613 140.352C226.724 140.352 232.088 143.427 238.534 147.184C246.443 151.795 250.253 154.168 250.253 154.481C250.253 155.197 251.602 157.093 252.73 157.96C254.04 158.969 255.686 159.401 257.504 159.215C259.245 159.037 260.295 158.53 261.537 157.271C262.802 155.989 263.283 154.978 263.464 153.228C263.691 151.02 262.985 149.183 261.302 147.609C259.715 146.125 258.15 145.593 256.012 145.812C254.235 145.994 253.153 146.53 251.919 147.838C251.401 148.388 250.869 148.837 250.738 148.837C250.607 148.837 245.226 145.762 238.78 142.005C230.65 137.265 227.061 135.026 227.061 134.694C227.061 133.975 225.624 131.978 224.522 131.165C222.802 129.896 220.311 129.545 218.251 130.281ZM219.515 134.749C217.953 135.504 218.09 137.985 219.732 138.665C222.25 139.708 223.993 135.862 221.513 134.732C220.677 134.351 220.332 134.354 219.515 134.749ZM146.973 143.896C145.473 144.71 145.743 147.241 147.388 147.784C149.926 148.621 151.532 144.887 149.109 143.783C148.215 143.376 147.9 143.392 146.973 143.896ZM255.717 150.587C254.155 151.342 254.292 153.824 255.934 154.504C258.452 155.547 260.195 151.7 257.715 150.571C256.879 150.189 256.534 150.192 255.717 150.587ZM230.301 153.208C229.863 153.646 229.606 154.225 229.606 154.776C229.606 155.327 229.863 155.907 230.301 156.345C230.976 157.021 231.108 157.039 235.263 157.039C239.417 157.039 239.549 157.021 240.225 156.345C240.663 155.907 240.919 155.327 240.919 154.776C240.919 154.225 240.663 153.646 240.225 153.208C239.549 152.532 239.417 152.514 235.263 152.514C231.108 152.514 230.976 152.532 230.301 153.208ZM183.313 155.113C181.751 155.868 181.888 158.349 183.53 159.029C186.048 160.072 187.791 156.226 185.311 155.096C184.475 154.715 184.13 154.717 183.313 155.113ZM221.25 159.996C220.812 160.433 220.556 161.013 220.556 161.564C220.556 162.115 220.812 162.695 221.25 163.132L221.944 163.827H230.738H239.531L240.225 163.132C240.663 162.695 240.919 162.115 240.919 161.564C240.919 161.013 240.663 160.433 240.225 159.996L239.531 159.302H230.738H221.944L221.25 159.996ZM136.839 173.242C136.839 176.612 137.478 178.073 139.373 179.029L140.635 179.665H202.455H264.274L265.536 179.029C267.431 178.073 268.071 176.612 268.071 173.242V170.615H202.455H136.839V173.242ZM142.058 173.572C141.62 174.009 141.364 174.589 141.364 175.14C141.364 175.691 141.62 176.271 142.058 176.708L142.752 177.403H150.414H158.077L158.771 176.708C159.689 175.79 159.689 174.49 158.771 173.572L158.077 172.877H150.414H142.752L142.058 173.572ZM162.422 173.572C161.984 174.009 161.728 174.589 161.728 175.14C161.728 175.691 161.984 176.271 162.422 176.708C163.028 177.315 163.369 177.403 165.121 177.403C166.874 177.403 167.215 177.315 167.821 176.708C168.259 176.271 168.515 175.691 168.515 175.14C168.515 174.589 168.259 174.009 167.821 173.572C167.215 172.965 166.874 172.877 165.121 172.877C163.369 172.877 163.028 172.965 162.422 173.572ZM192.69 184.54C192.617 184.737 191.929 186.775 191.162 189.069L189.768 193.241H202.454H215.139L213.651 188.786L212.163 184.332L202.494 184.257C194.908 184.199 192.795 184.26 192.69 184.54ZM179.829 198.898V200.029H202.455H225.081V198.898V197.766H202.455H179.829V198.898Z" fill="white"/>
</g>
<path fill-rule="evenodd" clip-rule="evenodd" d="M91.7907 34.6035L97.1791 43.9365L102.568 34.6035L91.7907 34.6035ZM96.2199 44.4903C96.6462 45.2288 97.7121 45.2288 98.1384 44.4903L103.527 35.1573C103.953 34.4189 103.42 33.4958 102.568 33.4958L91.7907 33.4958C90.938 33.4958 90.4051 34.4189 90.8314 35.1573L96.2199 44.4903Z" fill="#FD9B28"/>
<path fill-rule="evenodd" clip-rule="evenodd" d="M91.7907 18.0522L97.1791 27.3852L102.568 18.0522L91.7907 18.0522ZM96.2199 27.9391C96.6462 28.6775 97.7121 28.6775 98.1384 27.9391L103.527 18.6061C103.953 17.8676 103.42 16.9446 102.568 16.9446L91.7907 16.9446C90.938 16.9446 90.4051 17.8676 90.8314 18.6061L96.2199 27.9391Z" fill="#FD9B28"/>
<path d="M355.243 151.298L372.915 179.319L357.483 208.633L324.381 209.926L306.709 181.905L322.141 152.591L355.243 151.298Z" fill="#FD9B28" fill-opacity="0.17"/>
<path fill-rule="evenodd" clip-rule="evenodd" d="M345.658 224.212C343.779 224.591 341.948 223.374 341.57 221.494C341.191 219.615 342.408 217.784 344.288 217.406C346.167 217.027 347.998 218.244 348.376 220.124C348.755 222.003 347.538 223.834 345.658 224.212ZM345.882 225.322C343.389 225.824 340.962 224.21 340.46 221.718C339.958 219.225 341.572 216.798 344.064 216.296C346.557 215.794 348.984 217.407 349.486 219.9C349.988 222.393 348.375 224.82 345.882 225.322Z" fill="#FD9B28"/>
<path fill-rule="evenodd" clip-rule="evenodd" d="M6.47404 35.8377C4.59444 36.2162 2.7639 34.9993 2.3854 33.1198C2.0069 31.2402 3.22378 29.4096 5.10337 29.0311C6.98297 28.6526 8.81351 29.8695 9.19201 31.7491C9.57051 33.6287 8.35363 35.4592 6.47404 35.8377ZM6.69757 36.9478C4.20492 37.4497 1.77731 35.8359 1.27536 33.3433C0.773406 30.8506 2.38719 28.423 4.87984 27.9211C7.37249 27.4191 9.8001 29.0329 10.3021 31.5256C10.804 34.0182 9.19022 36.4458 6.69757 36.9478Z" fill="#FD9B28"/>
<path d="M59.6774 60.5445L67.5188 72.9786L60.6713 85.9865L45.9824 86.5603L38.141 74.1262L44.9885 61.1183L59.6774 60.5445Z" fill="#FD9B28" fill-opacity="0.17"/>
<path fill-rule="evenodd" clip-rule="evenodd" d="M367.935 102.151L373.324 111.484L378.712 102.151L367.935 102.151ZM372.365 112.038C372.791 112.776 373.857 112.776 374.283 112.038L379.672 102.705C380.098 101.966 379.565 101.043 378.712 101.043L367.935 101.043C367.083 101.043 366.55 101.966 366.976 102.705L372.365 112.038Z" fill="#FD9B28"/>
<path fill-rule="evenodd" clip-rule="evenodd" d="M367.935 85.5996L373.324 94.9326L378.712 85.5996L367.935 85.5996ZM372.365 95.4864C372.791 96.2249 373.857 96.2249 374.283 95.4864L379.672 86.1534C380.098 85.415 379.565 84.4919 378.712 84.4919L367.935 84.4919C367.083 84.4919 366.55 85.415 366.976 86.1534L372.365 95.4864Z" fill="#FD9B28"/>
<path fill-rule="evenodd" clip-rule="evenodd" d="M367.935 69.0483L373.324 78.3813L378.712 69.0483L367.935 69.0483ZM372.365 78.9352C372.791 79.6736 373.857 79.6736 374.283 78.9352L379.672 69.6022C380.098 68.8637 379.565 67.9406 378.712 67.9406L367.935 67.9407C367.083 67.9407 366.55 68.8637 366.976 69.6022L372.365 78.9352Z" fill="#FD9B28"/>
<path fill-rule="evenodd" clip-rule="evenodd" d="M367.935 52.4968L373.324 61.8298L378.712 52.4968L367.935 52.4968ZM372.365 62.3837C372.791 63.1221 373.857 63.1221 374.283 62.3837L379.672 53.0507C380.098 52.3122 379.565 51.3891 378.712 51.3891L367.935 51.3891C367.083 51.3891 366.55 52.3122 366.976 53.0507L372.365 62.3837Z" fill="#FD9B28"/>
<path fill-rule="evenodd" clip-rule="evenodd" d="M48.7865 122.272L31.2265 122.36L22.5228 137.611L31.379 152.774L48.9389 152.686L57.6427 137.435L48.7865 122.272ZM59.2405 137.427L49.5785 120.884L30.4207 120.98L20.925 137.619L30.587 154.162L49.7448 154.066L59.2405 137.427Z" fill="#FD9B28"/>
<path fill-rule="evenodd" clip-rule="evenodd" d="M76.4608 137.974L58.9009 138.062L50.1971 153.313L59.0533 168.477L76.6133 168.389L85.317 153.137L76.4608 137.974ZM86.9148 153.129L77.2528 136.586L58.095 136.682L48.5993 153.321L58.2613 169.864L77.4191 169.768L86.9148 153.129Z" fill="#FD9B28"/>
<path fill-rule="evenodd" clip-rule="evenodd" d="M49.0691 154.122L31.5091 154.21L22.8054 169.462L31.6616 184.625L49.2215 184.537L57.9253 169.286L49.0691 154.122ZM59.5231 169.278L49.8611 152.735L30.7033 152.831L21.2076 169.47L30.8696 186.013L50.0274 185.917L59.5231 169.278Z" fill="#FD9B28"/>
<defs>
<radialGradient id="paint0_radial_118_9699" cx="0" cy="0" r="1" gradientUnits="userSpaceOnUse" gradientTransform="translate(150.565 198.958) scale(229.271 330.792)">
<stop stop-color="#FDC800"/>
<stop offset="0.14" stop-color="#FDBB0B"/>
<stop offset="0.4" stop-color="#FDA91B"/>
<stop offset="0.68" stop-color="#FD9E25"/>
<stop offset="1" stop-color="#FD9B28"/>
</radialGradient>
<clipPath id="clip0_118_9699">
<rect width="142.276" height="98.499" fill="white" transform="translate(345.81 94.6257) rotate(163.152)"/>
</clipPath>
<clipPath id="clip1_118_9699">
<rect width="268" height="210" fill="white" transform="translate(68.4548 41.2688)"/>
</clipPath>
</defs>
</svg>
