<svg width="100%" height="100%" viewBox="0 0 385 251" fill="none" xmlns="http://www.w3.org/2000/svg">
<g clip-path="url(#clip0_118_9618)">
<path d="M204.27 109.789C183.995 82.6303 208.403 45.9066 228.905 30.4341C230.852 28.9312 232.868 27.4884 234.947 26.1683C248.594 16.6971 264.217 25.2852 278.77 29.7762C289.559 33.0975 300.044 30.4835 310.574 29.7226C323.043 28.8086 333.051 40.0882 331.786 54.8971C331.071 63.288 329 70.8753 325.933 77.7426C324.386 81.1881 322.615 84.4533 320.635 87.5116C312.229 99.7471 299.863 107.959 286.645 112.206C283.339 113.266 279.935 113.85 276.618 114.643C262.078 118.119 236.216 122.345 216.024 117.263C210.254 115.815 207.778 113.921 204.27 109.789Z" fill="#E44E1B"/>
<path d="M318.835 6.1087L322.288 11.5843L319.273 17.3126L312.804 17.5652L309.351 12.0897L312.366 6.36139L318.835 6.1087Z" fill="#FD9B28" fill-opacity="0.17"/>
</g>
<g clip-path="url(#clip1_118_9618)">
<path d="M332.086 96.7644C353.811 164.709 289.758 224.561 244.351 243.464C240.02 245.328 235.598 247.026 231.129 248.435C201.356 259.328 177.879 232.151 154.095 213.994C136.457 200.55 116.128 199.405 96.7298 194.452C73.7507 188.612 61.8655 159.411 72.2309 129.975C78.1016 113.296 85.9766 99.0936 95.2552 86.9761C99.9261 80.9019 104.902 75.3336 110.141 70.3166C131.974 50.544 158.751 41.4289 184.9 40.9318C191.438 40.8097 197.893 41.7215 204.307 42.1532C232.417 44.045 281.348 51.4018 314.976 74.2507C324.587 80.7696 328.019 86.1637 332.086 96.7644Z" fill="url(#paint0_radial_118_9618)"/>
<path fill-rule="evenodd" clip-rule="evenodd" d="M104.786 221.876L110.175 231.209L115.563 221.876L104.786 221.876ZM109.216 231.763C109.642 232.502 110.708 232.502 111.134 231.763L116.523 222.43C116.949 221.692 116.416 220.769 115.563 220.769L104.786 220.769C103.934 220.769 103.401 221.692 103.827 222.43L109.216 231.763Z" fill="#FD9B28"/>
<path fill-rule="evenodd" clip-rule="evenodd" d="M104.786 205.325L110.175 214.658L115.563 205.325L104.786 205.325ZM109.216 215.212C109.642 215.95 110.708 215.95 111.134 215.212L116.523 205.879C116.949 205.14 116.416 204.217 115.563 204.217L104.786 204.217C103.934 204.217 103.401 205.14 103.827 205.879L109.216 215.212Z" fill="#FD9B28"/>
<path fill-rule="evenodd" clip-rule="evenodd" d="M159.179 64.8574C155.817 65.9363 152.799 68.9902 151.739 72.3849C151.209 74.0842 151.161 75.0834 151.161 84.4122V94.5866H153.494H155.826V87.5889V80.5912H202.478H249.129V119.079V157.566H251.461H253.794V115.902C253.794 75.1709 253.781 74.1964 253.216 72.3849C252.14 68.9386 249.119 65.9173 245.672 64.8414C243.86 64.2758 242.911 64.2635 202.374 64.2795C162.289 64.2953 160.871 64.3145 159.179 64.8574ZM161.073 69.1986C158.368 70.029 156.475 72.1205 155.964 74.8429L155.761 75.926H202.478H249.194L248.991 74.8429C248.576 72.6322 247.22 70.7973 245.193 69.7033L244.026 69.0741L202.915 69.0243C180.304 68.9969 161.475 69.0753 161.073 69.1986ZM160.491 87.5889V89.9214H162.824H165.157V87.5889V85.2563H162.824H160.491V87.5889ZM169.822 87.5889V89.9214H172.154H174.487V87.5889V85.2563H172.154H169.822V87.5889ZM179.152 87.5889V89.9214H181.484H183.817V87.5889V85.2563H181.484H179.152V87.5889ZM193.738 85.7628C191.941 86.3972 189.599 88.7887 188.971 90.632C187.899 93.7766 188.596 96.7795 190.942 99.1249C192.813 100.996 194.434 101.584 197.719 101.584H200.145V103.261L200.145 104.937L194.537 108.297C186.339 113.208 186.339 113.286 194.537 118.197L200.145 121.557L200.145 123.233V124.91H195.029C189.986 124.91 189.903 124.92 189.198 125.626L188.482 126.341V134.24V142.139L189.198 142.855C189.903 143.56 189.986 143.57 195.029 143.57H200.145V150.568V157.566H197.719C194.434 157.566 192.813 158.154 190.942 160.025C187.626 163.34 187.626 168.119 190.942 171.434C192.813 173.305 194.434 173.894 197.719 173.894H200.145V171.561V169.229H198.089C195.692 169.229 194.545 168.747 193.719 167.392C192.998 166.21 192.998 165.25 193.719 164.068C194.768 162.347 195.327 162.231 202.536 162.232C208.512 162.233 209.115 162.28 209.989 162.813C211.308 163.617 211.953 165.056 211.643 166.499C211.51 167.118 211.394 167.71 211.386 167.814C211.377 167.918 212.146 168.606 213.095 169.342C214.754 170.631 214.833 170.66 215.217 170.111C215.91 169.122 216.473 167.165 216.473 165.745C216.473 163.543 215.675 161.686 214.014 160.025C212.143 158.154 210.521 157.566 207.237 157.566H204.81V155.233V152.901H210.642H216.473V150.568V148.236H210.642H204.81V145.903V143.57H209.926C214.969 143.57 215.052 143.56 215.757 142.855L216.473 142.139V134.24V126.341L215.757 125.626C215.052 124.92 214.969 124.91 209.926 124.91H204.81L204.817 123.233L204.825 121.557L209.86 118.568L214.895 115.58H220.349H225.803V127.242V138.905H228.136H230.468V125.626V112.346L229.753 111.63L229.037 110.915H221.966H214.895L209.86 107.926L204.825 104.937L204.817 103.261L204.81 101.584H207.237C210.521 101.584 212.143 100.996 214.014 99.1249C217.329 95.8097 217.329 91.0309 214.014 87.7157C211.69 85.3922 211.019 85.2519 202.353 85.2793C196.482 85.2977 194.786 85.3931 193.738 85.7628ZM223.471 89.9214V92.254H230.468H237.466V89.9214V87.5889H230.468H223.471V89.9214ZM194.984 90.4929C193.979 91.1052 193.147 92.4316 193.147 93.4203C193.147 94.409 193.979 95.7354 194.984 96.3477C195.836 96.8672 196.485 96.9171 202.419 96.918C207.721 96.9188 209.082 96.8357 209.794 96.4675C210.824 95.9351 211.806 94.4481 211.806 93.4203C211.806 92.3925 210.824 90.9055 209.794 90.3731C209.082 90.0048 207.721 89.9217 202.419 89.9226C196.485 89.9235 195.836 89.9733 194.984 90.4929ZM223.471 99.2517V101.584H230.468H237.466V99.2517V96.9191H230.468H223.471V99.2517ZM151.161 121.932V144.613L148.646 146.915C140.731 154.159 135.557 163.334 133.344 174.048C132.725 177.042 132.676 178.108 132.569 190.732L132.455 204.217H134.81H137.166L137.168 192.773C137.17 181.444 137.355 178.107 138.209 173.973C139.71 166.709 143.983 158.509 149.024 153.222L151.138 151.006L151.149 159.612L151.161 168.218L147.956 171.414L144.75 174.609L146.417 176.294L148.084 177.979L156.985 169.106C164.787 161.329 166.024 160.207 167.007 160.028C169.339 159.602 171.616 161.058 172.025 163.237C172.436 165.429 172.188 165.774 164.978 173.039C159.343 178.716 158.159 180.052 158.159 180.726C158.159 181.183 158.727 182.455 159.452 183.622C162.173 188.001 163.179 193.637 162.087 198.386C161.216 202.178 161.213 202.632 162.053 203.473L162.797 204.217H188.469H214.14V201.885V199.552H190.408H166.676L166.93 198.459C167.069 197.857 167.187 196.283 167.191 194.96L167.198 192.554H183.671H200.145V190.222V187.889H183.287H166.429L165.908 186.213C165.622 185.29 164.986 183.777 164.496 182.849L163.605 181.161L169.588 175.122C174.994 169.666 175.634 168.914 176.224 167.333C178.904 160.156 171.879 153.136 164.719 155.835C163.242 156.391 162.414 157.039 159.398 159.995L155.826 163.495V131.373V99.2517H153.494H151.161V121.932ZM167.489 108.582V110.915H174.487H181.484V108.582V106.249H174.487H167.489V108.582ZM198.979 111.082C197.295 112.111 195.917 113.084 195.917 113.247C195.917 113.557 202.015 117.329 202.518 117.329C202.87 117.329 209.442 113.455 209.442 113.247C209.442 112.991 202.826 109.164 202.425 109.189C202.213 109.202 200.663 110.054 198.979 111.082ZM167.489 117.912V120.245H174.487H181.484V117.912V115.58H174.487H167.489V117.912ZM167.489 129.575V131.908H174.487H181.484V129.575V127.242H174.487H167.489V129.575ZM193.147 134.24V138.905H202.478H211.808V134.24V129.575H202.478H193.147V134.24ZM167.489 138.905V141.238H174.487H181.484V138.905V136.573H174.487H167.489V138.905ZM226.394 144.077C224.596 144.711 222.255 147.103 221.627 148.946C221.195 150.214 221.138 152.093 221.138 165.11V179.84L217.712 176.466C213.355 172.175 212.51 171.712 209.038 171.709C206.676 171.707 206.259 171.793 204.863 172.566C203.129 173.527 201.925 174.768 200.952 176.599C200.422 177.597 200.298 178.299 200.298 180.308C200.3 184.698 199.338 183.658 221.503 203.25L222.598 204.217H246.81H271.023L271.739 203.501L272.455 202.786V185.914C272.455 166.537 272.535 167.23 269.995 164.69C267.052 161.748 262.646 161.399 259.427 163.855L258.459 164.593L257.491 163.855C254.697 161.724 250.562 161.721 247.773 163.849L246.814 164.58L245.653 163.739C243.652 162.289 240.705 161.874 238.122 162.678L237.466 162.882V156.631C237.466 149.144 237.268 148.291 235.007 146.03C232.673 143.696 229.507 142.978 226.394 144.077ZM227.64 148.807C225.741 149.964 225.803 149.293 225.803 168.79V186.458L225.087 187.173C224.624 187.637 224.041 187.889 223.434 187.889C222.607 187.889 221.826 187.224 216.788 182.229C211.91 177.393 210.916 176.539 209.958 176.36C206.681 175.749 204.016 178.711 205.15 181.706C205.468 182.547 207.648 184.645 214.981 191.169L224.404 199.552H246.097H267.789V184.667C267.789 168.241 267.829 168.611 265.953 167.468C264.771 166.747 263.81 166.747 262.628 167.468C261.201 168.338 260.792 169.412 260.792 172.289C260.792 174.561 260.725 174.862 260.076 175.511C259.625 175.962 259.027 176.226 258.459 176.226C257.891 176.226 257.293 175.962 256.842 175.511C256.193 174.862 256.127 174.561 256.127 172.289C256.127 169.412 255.718 168.338 254.29 167.468C253.108 166.747 252.148 166.747 250.966 167.468C249.538 168.338 249.129 169.412 249.129 172.289C249.129 174.561 249.062 174.862 248.413 175.511C247.962 175.962 247.364 176.226 246.796 176.226C246.228 176.226 245.631 175.962 245.18 175.511C244.528 174.859 244.464 174.564 244.463 172.23C244.461 169.326 243.97 168.134 242.45 167.348C241.347 166.777 240.583 166.777 239.48 167.348C237.96 168.134 237.468 169.326 237.467 172.23C237.466 174.564 237.402 174.859 236.75 175.511C236.299 175.962 235.701 176.226 235.134 176.226C234.566 176.226 233.968 175.962 233.517 175.511L232.801 174.795L232.8 162.9C232.799 151.617 232.769 150.957 232.229 150.072C231.604 149.045 230.285 148.235 229.244 148.237C228.875 148.237 228.153 148.494 227.64 148.807Z" fill="white"/>
</g>
<path fill-rule="evenodd" clip-rule="evenodd" d="M91.7907 34.2666L97.1791 43.5996L102.568 34.2666L91.7907 34.2666ZM96.2199 44.1534C96.6462 44.8919 97.7121 44.8919 98.1384 44.1534L103.527 34.8204C103.953 34.082 103.42 33.1589 102.568 33.1589L91.7907 33.1589C90.938 33.1589 90.4051 34.082 90.8314 34.8204L96.2199 44.1534Z" fill="#FD9B28"/>
<path fill-rule="evenodd" clip-rule="evenodd" d="M91.7907 17.7153L97.1791 27.0483L102.568 17.7153L91.7907 17.7153ZM96.2199 27.6022C96.6462 28.3406 97.7121 28.3406 98.1384 27.6022L103.527 18.2692C103.953 17.5307 103.42 16.6076 102.568 16.6076L91.7907 16.6076C90.938 16.6076 90.4051 17.5307 90.8314 18.2692L96.2199 27.6022Z" fill="#FD9B28"/>
<path d="M355.243 150.961L372.915 178.982L357.483 208.296L324.381 209.589L306.709 181.568L322.141 152.254L355.243 150.961Z" fill="#FD9B28" fill-opacity="0.17"/>
<path fill-rule="evenodd" clip-rule="evenodd" d="M345.658 223.875C343.779 224.254 341.948 223.037 341.57 221.157C341.191 219.278 342.408 217.447 344.288 217.069C346.167 216.69 347.998 217.907 348.376 219.787C348.755 221.666 347.538 223.497 345.658 223.875ZM345.882 224.985C343.389 225.487 340.962 223.874 340.46 221.381C339.958 218.888 341.572 216.461 344.064 215.959C346.557 215.457 348.984 217.07 349.486 219.563C349.988 222.056 348.375 224.483 345.882 224.985Z" fill="#FD9B28"/>
<path fill-rule="evenodd" clip-rule="evenodd" d="M6.47404 35.5008C4.59444 35.8793 2.7639 34.6624 2.3854 32.7828C2.0069 30.9032 3.22378 29.0727 5.10337 28.6942C6.98297 28.3157 8.81351 29.5326 9.19201 31.4122C9.57051 33.2918 8.35363 35.1223 6.47404 35.5008ZM6.69757 36.6109C4.20492 37.1128 1.77731 35.499 1.27536 33.0064C0.773406 30.5137 2.38719 28.0861 4.87984 27.5842C7.37249 27.0822 9.8001 28.696 10.3021 31.1886C10.804 33.6813 9.19022 36.1089 6.69757 36.6109Z" fill="#FD9B28"/>
<path d="M59.6774 60.2076L67.5188 72.6417L60.6713 85.6496L45.9824 86.2234L38.141 73.7893L44.9885 60.7814L59.6774 60.2076Z" fill="#FD9B28" fill-opacity="0.17"/>
<path fill-rule="evenodd" clip-rule="evenodd" d="M367.935 101.814L373.324 111.147L378.712 101.814L367.935 101.814ZM372.365 111.701C372.791 112.439 373.857 112.439 374.283 111.701L379.672 102.368C380.098 101.629 379.565 100.706 378.712 100.706L367.935 100.706C367.083 100.706 366.55 101.629 366.976 102.368L372.365 111.701Z" fill="#FD9B28"/>
<path fill-rule="evenodd" clip-rule="evenodd" d="M367.935 85.2627L373.324 94.5957L378.712 85.2627L367.935 85.2627ZM372.365 95.1495C372.791 95.888 373.857 95.888 374.283 95.1495L379.672 85.8165C380.098 85.0781 379.565 84.155 378.712 84.155L367.935 84.155C367.083 84.155 366.55 85.0781 366.976 85.8165L372.365 95.1495Z" fill="#FD9B28"/>
<path fill-rule="evenodd" clip-rule="evenodd" d="M367.935 68.7114L373.324 78.0444L378.712 68.7114L367.935 68.7114ZM372.365 78.5983C372.791 79.3367 373.857 79.3367 374.283 78.5983L379.672 69.2653C380.098 68.5268 379.565 67.6037 378.712 67.6037L367.935 67.6037C367.083 67.6037 366.55 68.5268 366.976 69.2653L372.365 78.5983Z" fill="#FD9B28"/>
<path fill-rule="evenodd" clip-rule="evenodd" d="M367.935 52.1599L373.324 61.4929L378.712 52.1599L367.935 52.1599ZM372.365 62.0467C372.791 62.7852 373.857 62.7852 374.283 62.0467L379.672 52.7137C380.098 51.9753 379.565 51.0522 378.712 51.0522L367.935 51.0522C367.083 51.0522 366.55 51.9753 366.976 52.7137L372.365 62.0467Z" fill="#FD9B28"/>
<path fill-rule="evenodd" clip-rule="evenodd" d="M48.7865 121.935L31.2265 122.023L22.5228 137.274L31.379 152.438L48.9389 152.35L57.6427 137.098L48.7865 121.935ZM59.2405 137.09L49.5785 120.547L30.4207 120.643L20.925 137.282L30.587 153.825L49.7448 153.729L59.2405 137.09Z" fill="#FD9B28"/>
<path fill-rule="evenodd" clip-rule="evenodd" d="M76.4608 137.637L58.9009 137.725L50.1971 152.976L59.0533 168.14L76.6133 168.052L85.317 152.8L76.4608 137.637ZM86.9148 152.792L77.2528 136.249L58.095 136.345L48.5993 152.984L58.2613 169.527L77.4191 169.431L86.9148 152.792Z" fill="#FD9B28"/>
<path fill-rule="evenodd" clip-rule="evenodd" d="M49.0691 153.785L31.5091 153.873L22.8054 169.125L31.6616 184.288L49.2215 184.2L57.9253 168.949L49.0691 153.785ZM59.5231 168.941L49.8611 152.398L30.7033 152.494L21.2076 169.133L30.8696 185.676L50.0274 185.58L59.5231 168.941Z" fill="#FD9B28"/>
<defs>
<radialGradient id="paint0_radial_118_9618" cx="0" cy="0" r="1" gradientUnits="userSpaceOnUse" gradientTransform="translate(150.565 198.621) scale(229.271 330.792)">
<stop stop-color="#FDC800"/>
<stop offset="0.14" stop-color="#FDBB0B"/>
<stop offset="0.4" stop-color="#FDA91B"/>
<stop offset="0.68" stop-color="#FD9E25"/>
<stop offset="1" stop-color="#FD9B28"/>
</radialGradient>
<clipPath id="clip0_118_9618">
<rect width="142.276" height="98.499" fill="white" transform="translate(345.81 94.2888) rotate(163.152)"/>
</clipPath>
<clipPath id="clip1_118_9618">
<rect width="268" height="210" fill="white" transform="translate(68.4548 40.9319)"/>
</clipPath>
</defs>
</svg>
